<svg xmlns="http://www.w3.org/2000/svg" viewBox="0 0 1379.5 14" style="enable-background:new 0 0 1379.5 14" xml:space="preserve">
  <path d="M1393.1 0H-29.7l1.6 2 14 10L0 2l14.1 10L28.2 2l14.1 10 14-10 14.1 10L84.5 2l14 10 14.1-10 14.1 10 14.1-10 14.1 10L169 2l14.1 10 14.1-10 14.1 10 14.1-10 14.1 10 14.1-10 14.1 10 14.1-10 13.7 10 14.1-10 14.1 10 14.1-10 14.1 10L366 2l14.1 10 14.1-10 14.1 10 14.1-10 14.1 10 14.1-10 14.1 10 14.1-10 13.7 10 14-10 14.1 10 14.1-10 14.1 10 14.1-10L577 12l14.1-10 14.1 10 14.1-10 14.1 10 14.1-10 14.1 10 14.1-10 13.8 10 14-10 14.1 10 14.1-10 14.1 10 14.1-10L774 12l14.1-10 14.1 10 14.1-10 14.1 10 14.1-10 14.1 10 14.1-10 14.1 10 13.7-10 14.1 10 14.1-10 14.1 10 14.1-10L971 12l14.1-10 14.1 10 14.1-10 14.1 10 14.1-10 14.1 10 14.1-10 14.1 10 13.7-10 14.1 10 14.1-10 14.1 10 14.1-10 14.1 10 14.1-10 14.1 10 14.1-10 14.1 10 14.1-10 14.1 10 14.1-10 14.1 10 14.1-10 14.1 10 14.1-10 14.1 10 14.1-10 14.1 10 14.1-10 14.1 10V0h-.5z" style="fill:#cb4444"/>
</svg>