<svg xmlns="http://www.w3.org/2000/svg" viewBox="0 0 1379 14" style="enable-background:new 0 0 1379 14" xml:space="preserve"><path d="m-28.1 2 14 10L0 2l14.1 10L28.2 2l14 10L56.3 2l14.1 10 14-10 14.1 10 14.1-10 14 10 14.1-10 14.1 10 14.1-10 14 10L197 2l14.1 10 14-10 14.1 10 14.1-10 14 10 14.1-10 14.1 10 14.1-10 14 10 14.1-10 14.1 10 14-10 14.1 10L394 2l14 10 14.1-10 14.1 10 14.1-10 14 10 14.1-10 14.1 10 14-10 14.1 10 14.1-10 14.1 10 14-10 14.1 10L591 2l14 10 14.1-10 14.1 10 14.1-10 14 10 14.1-10 14.1 10 14-10 14.1 10 14.1-10 14 10 14.1-10 14.1 10 14-10L802 12l14.1-10 14.1 10 14-10 14.1 10 14.1-10 14 10 14.1-10 14.1 10 14.1-10 14 10 14.1-10 14.1 10 14-10L999 12l14.1-10 14.1 10 14-10 14.1 10 14.1-10 14 10 14.1-10 14.1 10 14.1-10 14 10 14.1-10 14.1 10L1182 2l14 10 14.1-10 14.1 10 14.1-10 14 10 14.1-10 14.1 10 14.1-10 14 10 14.1-10 14.1 10 14.1-10 14 10L1379 2l14.1 10" style="fill:none;stroke:#b61de9;stroke-width:2"/></svg>