<svg xmlns="http://www.w3.org/2000/svg" viewBox="0 0 1379.5 14" style="enable-background:new 0 0 1379.5 14" xml:space="preserve">
  <path d="M1393.1 0H-29.7l1.6 2 14 10L0 2l14.1 10L28.2 2l14.1 10 14-10 14.1 10L84.5 2l14 10 14.1-10 14.1 10 14.1-10 14.1 10L169 2l14.1 10 14.1-10 14.1 10 14.1-10 14.1 10 14.1-10 14.1 10 14.1-10 13.7 10 14.1-10 14.1 10 14.1-10 14.1 10L366 2l14.1 10 14.1-10 14.1 10 14.1-10 14.1 10 14.1-10 14.1 10 14.1-10 13.7 10 14-10 14.1 10 14.1-10 14.1 10 14.1-10L577 12l14.1-10 14.1 10 14.1-10 14.1 10 14.1-10 14.1 10 14.1-10 13.8 10 14-10 14.1 10 14.1-10 14.1 10 14.1-10L774 12l14.1-10 14.1 10 14.1-10 14.1 10 14.1-10 14.1 10 14.1-10 14.1 10 13.7-10 14.1 10 14.1-10 14.1 10 14.1-10L971 12l14.1-10 14.1 10 14.1-10 14.1 10 14.1-10 14.1 10 14.1-10 14.1 10 13.7-10 14.1 10 14.1-10 14.1 10 14.1-10 14.1 10 14.1-10 14.1 10 14.1-10 14.1 10 14.1-10 14.1 10 14.1-10 14.1 10 14.1-10 14.1 10 14.1-10 14.1 10 14.1-10 14.1 10 14.1-10 14.1 10V0h-.5z" style="fill:#cb4444"/>
  <path d="m-21.7 2 14 10L6.4 2l14.1 10L34.6 2l14 10L62.7 2l14.1 10 14-10 14.1 10L119 2l14 10 14.1-10 14.1 10 14.1-10 14 10 14.1-10 14.1 10 14-10 14.1 10 14.1-10 14 10 14.1-10 14.1 10L316 2l14 10 14.1-10 14.1 10 14-10 14.1 10 14.1-10 14 10 14.1-10 14.1 10 14.1-10 14 10 14.1-10 14.1 10 14-10L527 12l14.1-10 14.1 10 14-10 14.1 10 14.1-10 14 10 14.1-10 14.1 10 14.1-10 14 10 14.1-10 14.1 10 14-10L724 12l14.1-10 14 10 14.1-10 14.1 10 14-10 14.1 10 14.1-10 14.1 10 14-10 14.1 10 14.1-10 14 10 14.1-10L921 12l14.1-10 14 10 14.1-10 14.1 10 14-10 14.1 10 14.1-10 14.1 10 14-10 14.1 10 14.1-10 14 10 14.1-10 14.1 10 14.1-10 14 10 14.1-10 14.1 10 14.1-10 14 10 14.1-10 14.1 10 14.1-10 14 10 14.1-10 14.1 10L1301 2l14 10 14.1-10 14.1 10 14.1-10 14 10 14.1-10 14.1 10" style="fill:none;stroke:#000;stroke-width:2"/>
</svg>