<svg xmlns="http://www.w3.org/2000/svg" viewBox="0 0 1379 14" style="enable-background:new 0 0 1379 14" xml:space="preserve"><path d="M1393.5 0H-29.3l1.6 2 14 10L.4 2l14.1 10L28.6 2l14.1 10 14-10 14.1 10L84.9 2l14 10L113 2l14.1 10 14.1-10 14.1 10 14.1-10 14.1 10 14.1-10 14.1 10 14.1-10 14.1 10L254 2l14.1 10 14.1-10 13.7 10L310 2l14.1 10 14.1-10 14.1 10 14.1-10 14.1 10 14.1-10 14.1 10 14.1-10 14.1 10L451 2l14.1 10 14.1-10 13.7 10 14-10L521 12l14.1-10 14.1 10 14.1-10 14.1 10 14.1-10 14.1 10 14.1-10 14.1 10 14.1-10L662 12l14.1-10 13.8 10 14-10L718 12l14.1-10 14.1 10 14.1-10 14.1 10 14.1-10 14.1 10 14.1-10 14.1 10 14.1-10L859 12l14.1-10 14.1 10 13.7-10L915 12l14.1-10 14.1 10 14.1-10 14.1 10 14.1-10 14.1 10 14.1-10 14.1 10 14.1-10 14.1 10 14.1-10 14.1 10 13.7-10 14.1 10 14.1-10 14.1 10 14.1-10 14.1 10 14.1-10 14.1 10 14.1-10 14.1 10 14.1-10 14.1 10 14.1-10 14.1 10 14.1-10 14.1 10 14.1-10 14.1 10 14.1-10 14.1 10 14.1-10 14.1 10V0h-.5z" style="fill:#b61de9"/><path d="m-28.1 2 14 10L0 2l14.1 10L28.2 2l14 10L56.3 2l14.1 10 14-10 14.1 10 14.1-10 14 10 14.1-10 14.1 10 14.1-10 14 10L197 2l14.1 10 14-10 14.1 10 14.1-10 14 10 14.1-10 14.1 10 14.1-10 14 10 14.1-10 14.1 10 14-10 14.1 10L394 2l14 10 14.1-10 14.1 10 14.1-10 14 10 14.1-10 14.1 10 14-10 14.1 10 14.1-10 14.1 10 14-10 14.1 10L591 2l14 10 14.1-10 14.1 10 14.1-10 14 10 14.1-10 14.1 10 14-10 14.1 10 14.1-10 14 10 14.1-10 14.1 10 14-10L802 12l14.1-10 14.1 10 14-10 14.1 10 14.1-10 14 10 14.1-10 14.1 10 14.1-10 14 10 14.1-10 14.1 10 14-10L999 12l14.1-10 14.1 10 14-10 14.1 10 14.1-10 14 10 14.1-10 14.1 10 14.1-10 14 10 14.1-10 14.1 10L1182 2l14 10 14.1-10 14.1 10 14.1-10 14 10 14.1-10 14.1 10 14.1-10 14 10 14.1-10 14.1 10 14.1-10 14 10L1379 2l14.1 10" style="fill:none;stroke:#000;stroke-width:2"/></svg>