<svg xmlns="http://www.w3.org/2000/svg" viewBox="0 0 43.91 39.79">
  <polyline fill="none" stroke="white" stroke-miterlimit="10" stroke-width="5px" points="1.67 3.36 8.34 9.36 15.01 3.36 21.68 9.36 28.35 3.36 35.02 9.36 41.7 3.36"/>
  <polyline fill="none" stroke="white" stroke-miterlimit="10" stroke-width="5px" points="1.67 3.36 8.34 9.36 15.01 3.36 21.68 9.36 28.35 3.36 35.02 9.36 41.7 3.36"/>
  <polyline fill="none" stroke="white" stroke-miterlimit="10" stroke-width="5px" points="2.21 16.89 8.88 22.89 15.55 16.89 22.21 22.89 28.89 16.89 35.56 22.89 42.24 16.89"/>
  <polyline fill="none" stroke="white" stroke-miterlimit="10" stroke-width="5px" points="2.21 16.89 8.88 22.89 15.55 16.89 22.21 22.89 28.89 16.89 35.56 22.89 42.24 16.89"/>
  <polyline fill="none" stroke="white" stroke-miterlimit="10" stroke-width="5px" points="2.21 16.89 8.88 22.89 15.55 16.89 22.21 22.89 28.89 16.89 35.56 22.89 42.24 16.89"/>
  <polyline fill="none" stroke="white" stroke-miterlimit="10" stroke-width="5px" points="2.21 16.89 8.88 22.89 15.55 16.89 22.21 22.89 28.89 16.89 35.56 22.89 42.24 16.89"/>
  <polyline fill="none" stroke="white" stroke-miterlimit="10" stroke-width="5px" points="2.21 16.89 8.88 22.89 15.55 16.89 22.21 22.89 28.89 16.89 35.56 22.89 42.24 16.89"/>
  <polyline fill="none" stroke="white" stroke-miterlimit="10" stroke-width="5px" points="2.21 16.89 8.88 22.89 15.55 16.89 22.21 22.89 28.89 16.89 35.56 22.89 42.24 16.89"/>
  <polyline fill="none" stroke="white" stroke-miterlimit="10" stroke-width="5px" points="2.21 30.42 8.88 36.42 15.55 30.42 22.21 36.42 28.89 30.42 35.56 36.42 42.24 30.42"/>
  <polyline fill="none" stroke="white" stroke-miterlimit="10" stroke-width="5px" points="2.21 30.42 8.88 36.42 15.55 30.42 22.21 36.42 28.89 30.42 35.56 36.42 42.24 30.42"/>
</svg>