<svg id="Layer_1" data-name="Layer 1"
  xmlns="http://www.w3.org/2000/svg" viewBox="0 0 480.31 418.85">
  <path fill="white" d="M35.44 226.16c-.28-9.61 3.86-15.81 9.61-21.29 7.15-6.84 7.09-6.87 3-15.55-3.06-6.47-6-13-7.55-20-.61-2.74-1.83-3.79-4.71-3.71a112.29 112.29 0 0 1-14-.37C10.26 164.09.53 153.57 0 142c-.48-10.76 9.6-22.57 20.92-24a109.6 109.6 0 0 1 15-.5c2.55 0 3.89-.64 4.52-3.28a89 89 0 0 1 10.62-25.77c1.29-2.13 1-3.44-.74-5.1-3.14-3-6.18-6.07-9-9.34a23.75 23.75 0 0 1 1.2-32.9c9.26-9 23.1-9.07 33-.44 3.87 3.37 6.63 9.6 11.33 9.91 4.29.28 8.79-4.09 13.36-6a93.73 93.73 0 0 1 14.13-4.9c3.52-.85 4.49-2.44 4.22-5.83a93.72 93.72 0 0 1 0-11c.49-12 9.82-22 21.1-22.78 13.7-.91 24.11 6.82 26.4 19.67.91 5.12.48 10.31.45 15.46 0 2.42.72 3.46 3.15 4.11A94.33 94.33 0 0 1 195.45 50c2.25 1.39 3.7 1.16 5.53-.85a97.22 97.22 0 0 1 9.69-9.35 23.88 23.88 0 0 1 33.82 33.39 108.36 108.36 0 0 1-9.37 9.68c-2 1.84-2.62 3.28-1 5.9a88.32 88.32 0 0 1 10.5 25.23c.65 2.62 1.79 3.48 4.42 3.45 5 0 10.06-.24 15 .51 10 1.52 16.36 7.58 19.46 17.15 2.89 8.92-.15 16.29-6 22.95-1.66 1.89-3.31 2.5-6.09 1.86-16.32-3.79-32.21 5.45-37.42 21.41-1.8 5.53-4.13 6.54-9.07 3.92a32 32 0 0 0-43.34 42.9c2.67 5.21 1.67 7.63-3.92 9.43-14.67 4.73-25 20-21.36 36.56.88 4-.59 5.4-3.55 6.86-14.45 7.15-32.32-2.67-34-18.85a92.14 92.14 0 0 1-.21-13c.12-3.1-.63-4.72-4-5.6a90.21 90.21 0 0 1-24.74-10.33c-2.54-1.57-4.06-1-6 1-4.57 4.73-9.18 9.19-15.43 12.12-14.6 6.84-32-3.16-33-19.45.04-.67.07-1.33.07-.73Zm155.22-84.23a48.38 48.38 0 0 0-48-48.61c-26.5-.16-48 21.35-48.23 48.32-.25 26.06 21.59 48 48 48.1 26.16.15 48.14-21.63 48.23-47.81ZM237.92 311.29c-6.92-9.63-14.48-17.88-19.22-27.53-3.37-6.85-.88-15.39 1.59-22.95 4.61-14.12 13.31-25.63 23.41-36.15 5.62-5.85 10.93-12.15 18.41-15.92a16.76 16.76 0 0 1 8.65-1.91c15.14.78 30.28 1.38 45.42 2.21 10.25.56 18.92 4.43 25.69 12.48 10.82 12.88 21.95 25.5 32.78 38.37a30 30 0 0 0 10.08 7.9 256.33 256.33 0 0 1 43.79 26.76 17.59 17.59 0 0 0 14.53 3.14c6-1.18 10.45-.07 14.56 4.72 4.75 5.55 10.2 10.51 15.48 15.58 6.79 6.52 9 13.71 5.73 23-3.5 10-5.85 20.38-9 31.51l-4.63-7c-2.33 3.86-3.63 8.19-6.75 11.36a43.73 43.73 0 0 1-4.77 4.37c-5.41 4-5.4 4-7.16-2.49a45.35 45.35 0 0 0-6.95-15.24 30.14 30.14 0 0 1-13.22 19.74c-3.1 2.1-4.5 2.42-5.3-2a60.42 60.42 0 0 0-8.5-21.73c-3.63 17.66-14.44 29-28.6 38.63C381.06 387 379.2 376 375.26 365c-4.36 5-7.8 10.5-13.05 14.28-1.22.87-2.35 1.85-3.53 2.77-3.42 2.65-5.43 2.79-8.61-1.47-4.57-6.12-9.36-12.07-13.26-18.65-1.34-2.26-2.51-1.36-4-.49-4.95 2.84-10.06 5.14-15.94 5.26-5.19.11-9.21-2.13-12.89-5.59-11.34-10.68-19.21-23.76-26.31-37.4a7.18 7.18 0 0 1-.39-5.3q1.86-8 3.6-16.08c3.19-14.77-6.34-23.76-21.16-19.76a22.92 22.92 0 0 0-15.81 14.06c-1.91 4.55-3.73 9.11-5.99 14.66Zm111.71-6.43c6-.05 10.85-1.29 13.48-6.67 2-4.18 3.89-8.45 5.8-12.69 1.69-3.75.18-6.16-3.45-7.23-4.3-1.26-8.65-2.41-13-3.24a22.44 22.44 0 0 1-12.67-7.16c-5.68-6.05-11.71-11.79-17.76-17.48-4.58-4.32-8.89-3.34-11.31 2.45-3.13 7.5-6 15.14-9.22 22.59-1.44 3.29-.9 6.1.68 9 5.2 9.56 14.3 14.47 23.85 17.5 7.57 2.41 16.05 2.07 23.6 2.93Zm103.35 25c6-.12 6-.12 3.3-5.29-1.9-3.67-3.65-7.43-5.68-11-2.49-4.43-7.39-5.63-11.6-6.81-2.24-.63-4 3.48-5.85 5.5-1.25 1.36-1.19 2.93.64 4.37 4.41 3.47 8.74 7.07 12.87 10.87 1.99 1.78 3.96 2.84 6.34 2.35Z"/>
  <path fill="white" d="M371.73 383.68c2.41 7.23 4.78 13.59 6.59 20.11 1 3.73 2.35 3.76 5.47 2.14a69.57 69.57 0 0 0 25.84-22.21c.57-.82 1.15-1.63 1.78-2.4.19-.23.57-.31 1.31-.7 1.75 4.66 3.76 9.19 5.12 13.9 1.21 4.21 2.75 3.79 5.69 1.56 5.56-4.23 10.85-8.71 15.36-14.7 3.25 5 2.84 10.19 3.26 15.43 9.2-1.38 14.71-8.06 21.41-14.31.53 7 .43 13.05-2.18 18.73-1.9 4.12-4.32 7.75-9.64 8.27a13.32 13.32 0 0 0-6.84 3.19c-8 6.5-17 7.18-26.87 5.13a636 636 0 0 0-82-11.72c-13.32-1-26.59 1-39.84 2.32a48.14 48.14 0 0 1-14.39-.42c-6.56-1.35-11.91-4.12-15.71-10.24-8.06-13-16.69-25.65-25.13-38.42-6.82-10.32-7.82-20.95-2-32.05q7.32-13.92 14.55-27.87c2.39-4.57 6-7.09 11.31-6.43a8.59 8.59 0 0 1 7.46 10.4 14.52 14.52 0 0 1-1 3.86c-6.33 12.5-1.86 23.32 4.88 34 4.81 7.6 9.75 15.09 15.22 22.23 9.84 12.81 22.44 16.78 37.52 11.27 3.23-1.17 4.74-.48 6.43 2.18 3.92 6.18 8.2 12.13 12.1 18.31 1.43 2.26 2.81 2.6 5.25 1.78 7.32-2.48 13.1-7.1 19.05-13.34ZM216.2 297.17c-8.86.56-16-2.3-23.08-5.12a213.9 213.9 0 0 0-22.53-8c-6.57-1.79-7.88-6.71-3.09-11.41 10.58-10.38 22.76-17.28 38.12-16.89 6.34.17 6.5.44 4.86 6.38a70.11 70.11 0 0 0-2 21.79 8.84 8.84 0 0 0 1.93 5c1.81 2.51 3.59 5.08 5.79 8.25ZM242.94 209.31c-.9 2.77-3.1 4.15-4.74 5.92-6.7 7.23-12.84 14.85-17.58 23.55-.85 1.55-1.43 3.51-4 1.67-11.28-8.13-20.84-17.65-25.56-31.13-1.64-4.69-.61-6.58 4.09-6.64 16.2-.17 32.15 1.54 47.79 6.63ZM307.2 199.35l-42.7-2c-1.53-.07-2.29-1.17-3.12-2.23-4.9-6.3-9.87-12.56-14.72-18.91-2.71-3.55-1.25-6.57 3.4-7.1 7.9-.89 15.12 1.69 22.24 4.58 13.25 5.38 23.7 14.64 34.9 25.66Z"/>
</svg>