<svg id="Livello_1" data-name="Livello 1" xmlns="http://www.w3.org/2000/svg" viewBox="0 0 481.77 209.65"><defs><style>.cls-1{fill:#050505;}.cls-2{fill:#c44;}.cls-3{fill:#c4af7a;}.cls-4{fill:#e9d6a4;}.cls-5{fill:#3e3e3e;}.cls-6{fill:#81daef;}.cls-7{fill:none;}.cls-8{fill:#090909;}.cls-9{fill:#070707;}.cls-10,.cls-13{fill:#ffbc45;}.cls-11{fill:#545656;}.cls-12{fill:#f8f8f8;}.cls-13{stroke:#000;stroke-miterlimit:10;stroke-width:1.5px;}</style></defs><path d="M274.72,83.51c8.25.09,14.35,1.66,19.3,6.36a23.88,23.88,0,0,1,6.88,12.88c2.18,10.7,5,21.23,7.59,31.84,3.41,14.13,7,28.22,10.35,42.36,2,8.25-.23,15.42-6.49,21.17-7.31,6.7-15.75,8.31-25,4.62-6.45-2.59-10.3-7.83-12.51-14.19-5.57-16.09-11-32.24-16.44-48.36-2.44-7.2-5-14.35-7.34-21.58-4-12.45-.2-24.47,12.69-31.81C267.72,84.57,271.82,83.3,274.72,83.51Zm-19.88,39.81,19.38,57.12c.13-1.18.28-2,.3-2.84,0-1.26.46-2,1.86-2a13,13,0,0,0,2.11-.38,2.19,2.19,0,0,0,1.42-3.7c-2.33-3-2.32-3,.22-5.88a1.1,1.1,0,0,1,1.46-.35c1,.45,2.06.85,3.1,1.26a1.93,1.93,0,0,0,2.56-1.86c-.05-1.11-.14-2.22-.25-3.33a.85.85,0,0,1,.7-1c1-.31,2.05-.64,3.05-1a1,1,0,0,1,1.31.43c.63.93,1.27,1.84,1.92,2.75a1.67,1.67,0,0,0,2.95-.12c.24-.42.46-.84.69-1.26,1.27-2.39,1.27-2.39,3.88-1.76a13.6,13.6,0,0,0,1.41.3c.7.09.91.49.91,1.15,0,1.08.05,2.15.12,3.23a1.63,1.63,0,0,0,2.51,1.44c.67-.35,1.32-.75,2-1.1,1.78-.95,1.5-1.17,2.95.41a14.55,14.55,0,0,0,1.36,1.36,1.19,1.19,0,0,1,.25,1.84c-.55.78-1,1.64-1.45,2.47a1.73,1.73,0,0,0,1.48,2.77c.59.06,1.19,0,1.79.11.8.09,1.09,0,.85-1q-7.56-30.69-15.05-61.39c-.27-1.1-.18-2.81-1-3.11s-2,.79-3.07,1.31a2.17,2.17,0,0,0-.3,3.63c.93.7,1.84,1.42,2.82,2a1.48,1.48,0,0,1,.63,2.19,22.72,22.72,0,0,0-1,2.79,1.12,1.12,0,0,1-1.47.94c-1.26-.21-2.54-.28-3.81-.39a1.19,1.19,0,0,0-1.19.37c-.86,1-1.63,2-.73,3.5.43.7.55,1.59.94,2.32a1.64,1.64,0,0,1-.74,2.48c-1,.62-1.83,1.92-2.93,2s-2.06-1.26-3-2.08a2.66,2.66,0,0,0-3.4-.62c-.82.41-1.39.8-1.46,1.8a19.36,19.36,0,0,1-.44,2.22c-.47,2.26-.47,2.26-2.81,2.41-2.86.19-2.86.19-3.76-2.49a3.86,3.86,0,0,1-.22-.68,2.87,2.87,0,0,0-2.91-2.69,2,2,0,0,0-2,.64c-.58.66-1.21,1.27-1.83,1.9-1.66,1.66-1.17,1.46-3.05.44-2.9-1.57-3-1.65-1.95-4.84a3.38,3.38,0,0,0-1.22-4.24,1.59,1.59,0,0,0-1.51-.39C257.79,122.65,256.35,123,254.84,123.32Zm20.81,1.1a14.88,14.88,0,1,0-14.75-15.06A14.9,14.9,0,0,0,275.65,124.42Zm20.78,43.06a13,13,0,1,0,12.94,12.94A13,13,0,0,0,296.43,167.48Zm-.85,35.07-1.32-3.85a2.51,2.51,0,0,0-3.94-.95c-.95.95-1.84,1.95-2.74,2.93A18.86,18.86,0,0,0,295.58,202.55Zm4.22-.28a15.85,15.85,0,0,0,7.74-3l-2.19-1.78-.83-.68a2.43,2.43,0,0,0-3.64,1.27A18.55,18.55,0,0,1,299.8,202.27ZM291.25,90.16A19.71,19.71,0,0,0,285,86.79c-.44-.15-.68-.07-.65.47.06,1.23.05,2.47.17,3.7a1.87,1.87,0,0,0,2.73,1.43C288.53,91.7,289.81,91,291.25,90.16Zm24.56,100c-1.25-.12-2.33-.18-3.39-.35a2,2,0,0,0-2.38,1.07,1.74,1.74,0,0,0-.22,1.75c.52,1.2.95,2.43,1.45,3.73A18.53,18.53,0,0,0,315.81,190.16ZM253,117.92c1-.92,1.95-1.76,2.85-2.66s.31-3.46-.79-3.91c-.92-.37-1.86-.7-2.79-1.06-.42-.16-.7-.12-.66.44A26.22,26.22,0,0,0,253,117.92Zm42.28-23.43c-.81,1.4-1.59,2.69-2.31,4a2,2,0,0,0,1.36,2.66c1.33.13,2.67.18,4.14.27A22,22,0,0,0,295.28,94.49Zm-43.07,9.62c1.39-.24,2.64-.42,3.87-.7.83-.18,1.94-2.49,1.5-3.15-.72-1.06-1.54-2-2.36-3.13A20.72,20.72,0,0,0,252.21,104.11Zm26.58,88.15a22.34,22.34,0,0,0,4.84,5.83,25.11,25.11,0,0,1,.8-3,2.32,2.32,0,0,0-.77-2.83,2,2,0,0,0-2.31-.58A24.35,24.35,0,0,1,278.79,192.26Zm-4.55-11.77c.79,2.33,1.52,4.41,2.2,6.51.19.61.43.41.73.13.61-.56,1.25-1.1,1.83-1.69s.3-3.08-.6-3.44C277.12,181.49,275.8,181.05,274.24,180.49Zm3.92-94.9a33.33,33.33,0,0,0-6.36.23c-.64.07-.77.26-.37.8.62.83,1.17,1.71,1.79,2.53a2,2,0,0,0,3.06-.1C276.91,88,277.49,86.83,278.16,85.59Zm39,99.79a16.89,16.89,0,0,0,.27-4.77c-.1-2-.11-2-1.89-1.14-.43.21-.87.4-1.28.63a1.93,1.93,0,0,0-.23,3C315.05,183.87,316.07,184.56,317.21,185.38ZM265.07,88.47a28.22,28.22,0,0,0-5.66,3.93c1.12.46,2.14.91,3.18,1.3a2.3,2.3,0,0,0,2.76-2.1C265.28,90.61,265.18,89.63,265.07,88.47Z"/><path d="M439.43,170.63V167c0-3.75,0-7.51,0-11.26,0-.76.15-1.06,1-1,1.24.07,2.48,0,3.72,0,.52,0,.74.15.69.68,0,.24,0,.48,0,.72,0,12.69,0,25.39,0,38.08,0,1.15-.35,1.42-1.39,1.33a17.31,17.31,0,0,0-2.88,0c-.78.06-.94-.25-.9-1,.06-1.07,0-2.14,0-3.48a12.89,12.89,0,0,1-11.27,4.74,14,14,0,0,1-10.26-4.7c-5.17-5.8-4.69-16,.87-21.23C424.16,165.08,434.29,164.52,439.43,170.63Zm-9.6.21c-5.75,0-9.84,4.14-9.87,10s4,10.34,9.71,10.37,9.82-4.2,9.84-10.21S435.56,170.86,429.83,170.84Z"/><path d="M332.85,191.13c0,1.41,0,2.56,0,3.71,0,.57-.15.75-.73.73-1.2,0-2.4,0-3.6,0-.66,0-.78-.22-.78-.82q0-19.59,0-39.18c0-.61.14-.85.79-.82,1.2.05,2.4.07,3.6,0,.82,0,1,.25,1,1,0,4.63,0,9.26,0,13.9,0,.25-.12.54.11.78,5.65-6.36,16-5.15,20.82,0,5.48,5.81,5.27,16.12-.31,21.53C348.59,196.93,338.19,197.76,332.85,191.13Zm19.74-9.8c0-4.09-1.39-7.27-4.85-9.25a10,10,0,0,0-12.8,2.56c-3,4.17-2.45,10.93,1.28,14.14A9.53,9.53,0,0,0,347,190.33C350.88,188.58,352.47,185.25,352.59,181.33Z"/><path d="M476.39,104.58c0-1.2,0-2.2,0-3.19,0-.7.23-.89.89-.87q1.8.06,3.6,0c.65,0,.91.13.91.85q0,13.77,0,27.55c0,.57-.15.77-.74.75-1.19,0-2.4,0-3.59,0-.62,0-.84-.16-.81-.8.05-1.11,0-2.23,0-3.63A12.78,12.78,0,0,1,465.74,130,14.18,14.18,0,0,1,455,125.22c-5-5.65-4.65-15.46.57-20.82C460.28,99.59,470.48,98.11,476.39,104.58Zm-9.72.35c-5.76,0-9.77,4.24-9.76,10.27,0,5.87,4.16,10.14,9.82,10.14s9.75-4.27,9.74-10.32S472.43,104.91,466.67,104.93Z"/><path d="M248.33,196.16c-9.59,0-17.41-5.37-19.76-13.69-3.67-13,4.47-24.27,16.9-25.54,6.19-.63,11.84.58,16.54,5,.73.69.79,1.1,0,1.73a15.57,15.57,0,0,0-2.06,2c-.57.68-.9.52-1.48,0-7-6.44-18.61-4.74-23.28,3.44-4.76,8.36-.66,20.53,11,22a14.46,14.46,0,0,0,12.34-3.89c.56-.53.83-.46,1.31.06a21.66,21.66,0,0,0,2.26,2.13c.69.55.6.92,0,1.49a18.86,18.86,0,0,1-11.68,5.2C249.68,196.11,248.88,196.13,248.33,196.16Z"/><path d="M377.17,195.92c-8.79-.28-14.93-6.69-14.69-15.36s6.85-14.72,15.74-14.44,14.94,6.77,14.62,15.78C392.55,190.17,385.81,196.2,377.17,195.92Zm.52-25.08c-5.77,0-9.81,4.2-9.81,10.19s4.13,10.22,9.84,10.22,9.72-4.26,9.72-10.3S383.43,170.83,377.69,170.84Z"/><path d="M421.88,104.73c4.14-5,11.43-5.29,15.74-3.58s6.58,5.3,6.75,9.85c.23,6,.08,12,.12,18,0,.63-.25.71-.78.69-1.2,0-2.4-.06-3.59,0-.79.05-1-.2-1-1,0-5.07,0-10.14,0-15.21a12.81,12.81,0,0,0-.32-3c-.92-3.85-4.16-5.92-8.48-5.46-5.25.56-8.2,3.82-8.24,9.19q0,7.19,0,14.37c0,.81-.15,1.13-1,1.07a30.71,30.71,0,0,0-3.59,0c-.59,0-.74-.17-.73-.74q0-13.79,0-27.55c0-.57.07-.89.76-.86,1.2,0,2.4,0,3.6,0,.59,0,.76.19.74.75C421.85,102.35,421.88,103.43,421.88,104.73Z"/><path d="M383.15,130c-7.78.34-14.18-4.39-15.58-12-1.75-9.41,4.3-16.75,12.91-17.67,4.34-.47,8.35.22,11.78,3.14.89.76,2,1.63,2.1,2.67s-1.56,1.26-2.34,2c-.23.21-.55.32-.79.53-.47.41-.74.29-1.12-.19a9.57,9.57,0,0,0-10.78-3.09,9.41,9.41,0,0,0-6.6,8.53c-.74,9.71,7.76,13,13.69,10.67a8.08,8.08,0,0,0,3.65-2.82c.39-.56.69-.59,1.23-.22.85.58,1.73,1.14,2.63,1.64.65.37.66.68.25,1.28a12.69,12.69,0,0,1-9.34,5.39C384.33,130,383.81,130,383.15,130Z"/><path d="M312.89,112.75V98.26c0-6.51,4-10.2,10.52-9.69a10.35,10.35,0,0,1,4.44,1.25c.5.28.71.6.39,1.13a1.66,1.66,0,0,0-.15.33c-.35.88-.46,2-1.1,2.59-.79.7-1.58-.5-2.44-.72-3.82-1-6.35.83-6.46,4.74-.08,2.64-.08,2.64,2.56,2.64,1.72,0,3.44,0,5.16,0,.61,0,.84.15.81.8-.06,1.15.38,2.65-.19,3.37s-2.16.19-3.3.23c-1.32,0-2.64.06-4,0-.78,0-1,.2-1,1,0,7.5,0,15,.05,22.51,0,1-.24,1.38-1.3,1.28a17,17,0,0,0-3.11,0c-.83.07-1-.26-1-1C312.9,123.36,312.89,118.06,312.89,112.75Z"/><path d="M331.61,112.68c0-4.75.11-9.5,0-14.24-.21-6.92,4.53-10.93,12-9.68,3.66.62,4.16,2,2.18,5.14-.36.57-.6.15-.85,0a6.64,6.64,0,0,0-4.72-.85A3.81,3.81,0,0,0,337,96.53c-.14,1.06-.08,2.15-.15,3.22-.05.66.24.8.84.79,2.28,0,4.55,0,6.83,0,.68,0,.91.18.87.87a22.94,22.94,0,0,0,0,2.75c0,.62-.17.82-.81.81-2.19,0-4.39,0-6.59,0-.85,0-1,.22-1,1,0,7.5,0,15,0,22.51,0,1-.25,1.3-1.24,1.2a13.11,13.11,0,0,0-2.87,0c-1.13.14-1.27-.33-1.26-1.32C331.63,123.14,331.61,117.91,331.61,112.68Z"/><path d="M400.24,172c0-5.39,0-10.77,0-16.16,0-.82.16-1.13,1-1.06a20.49,20.49,0,0,0,3.23,0c.93-.08,1.1.23,1.1,1.11,0,10,0,19.95,0,29.93v.84c0,3.61,2.31,5.47,5.84,4.56,1.29-.33,1.41.1,1.36,1.12a5.75,5.75,0,0,0,.07,1.55c.29,1.15-.12,1.61-1.28,1.8a12.62,12.62,0,0,1-5.8-.19,7.45,7.45,0,0,1-5.45-7.34c-.1-5.38,0-10.77,0-16.16Z"/><path d="M360,115c0,4.55,0,9.1,0,13.65,0,.74-.14,1-1,1a28.7,28.7,0,0,0-3.47,0c-.75.05-.93-.18-.92-.92,0-5.58,0-11.17,0-16.75,0-3.51,0-7,0-10.53,0-.71.13-1,.91-1a28.7,28.7,0,0,0,3.47,0c.81,0,1,.23,1,1C360,106,360,110.53,360,115Z"/><path d="M406.76,115.17c0,4.51,0,9,0,13.52,0,.78-.19,1-1,1a35.82,35.82,0,0,0-3.59,0c-.66,0-.78-.21-.78-.81q0-13.77,0-27.53c0-.62.16-.83.8-.81a33.07,33.07,0,0,0,3.59,0c.84-.06,1,.28.95,1C406.74,106.07,406.76,110.62,406.76,115.17Z"/><path d="M460,181c0,4.51,0,9,0,13.53,0,.82-.16,1.11-1,1.05a35.81,35.81,0,0,0-3.59,0c-.58,0-.73-.17-.73-.74q0-13.82,0-27.64c0-.71.3-.77.85-.76,1.2,0,2.4.06,3.59,0,.78,0,.91.23.91.94C460,171.91,460,176.46,460,181Z"/><path d="M357.34,95a3.37,3.37,0,0,1-3.65-3.41,3.62,3.62,0,0,1,7.23-.12A3.48,3.48,0,0,1,357.34,95Z"/><path d="M404,95a3.37,3.37,0,0,1-3.54-3.41,3.41,3.41,0,0,1,3.61-3.47,3.32,3.32,0,0,1,3.59,3.46A3.41,3.41,0,0,1,404,95Z"/><path d="M457.33,160.85a3.37,3.37,0,0,1-3.58-3.49,3.44,3.44,0,0,1,3.71-3.39,3.32,3.32,0,0,1,3.5,3.43A3.41,3.41,0,0,1,457.33,160.85Z"/><path class="cls-1" d="M100.31,0a7.1,7.1,0,0,1,4.08,3.4A193.11,193.11,0,0,0,120.2,25.32a206.77,206.77,0,0,0,26.58,25.17,1.13,1.13,0,0,0,1.37.17c10.83-4.81,21-3.06,30.72,3.11a35.28,35.28,0,0,1,9.51,8.84c1.51,2,2.81,4.26,4.27,6.35a27.85,27.85,0,0,0,5.17,5.78c3.2,2.62,5.26,2.12,6.86-1.7.74-1.79,1-3.73,1.91-5.49a16.22,16.22,0,0,1,1.54-3,5.49,5.49,0,0,1,6.2-1.95,3.89,3.89,0,0,1,2.84,3.49,5.2,5.2,0,0,1,0,2.26c-1.06,3-.28,6-.13,9a137.34,137.34,0,0,1-.7,20.78,56.8,56.8,0,0,1-2,12,9.47,9.47,0,0,0-.39,3.51c.16,3-.52,5.65-3.3,7.33-.46.28-.38.64-.38,1a69.22,69.22,0,0,1-5.58,27.82c-.28.66-.1.86.46,1.15a23.35,23.35,0,0,1,7.83,6.18c4.17,5.31,4.55,11.23,2.7,17.45-1.81,6.06-5.27,11.22-9.14,16.13-2.08,2.63-4.33,5.12-6.63,7.56a5.54,5.54,0,0,1-8.72-.54,1.81,1.81,0,0,0-2.51-.8,5.59,5.59,0,0,1-4.21-.16,1,1,0,0,0-1.31.29c-6.46,7-14.63,10.67-23.93,11.87a73.83,73.83,0,0,1-39-5.29,52,52,0,0,1-14.6-9.47c-9.88-9-21.08-15.54-34.08-18.91A61,61,0,0,0,61,173.52a5.3,5.3,0,0,1-4-8.59,23.27,23.27,0,0,1,13.53-8.66,38.21,38.21,0,0,1,8.32-1,10.45,10.45,0,0,0-2-2.09c-9.54-8.8-20.79-14.5-33.11-18.3a121.33,121.33,0,0,0-20.23-4.28A5.66,5.66,0,0,1,22,119.79a100.85,100.85,0,0,1,23.3-7,28.49,28.49,0,0,1,4.51-.39c-.9-1.23-1.36-2.54-2.63-3.39-8.8-6-15.4-13.95-21-22.87C19.21,75,14.19,62.93,10.09,50.5A280.71,280.71,0,0,1,.44,12.06c-.08-.43,0-1-.44-1.28V9.35c.39-.1.26-.45.33-.69a6,6,0,0,1,9.81-3.1c.44.36.85.73,1.28,1.08,9.32,7.55,19.64,13.49,30.29,18.88,18.44,9.32,37.63,16.85,57.13,23.61.18.07.42.3.65-.05-.16-.37-.33-.77-.52-1.17-6-13.11-8.33-26.7-5.37-41,.37-1.78.6-3.62,1.79-5.14C96.07.94,97.12.66,97.91,0ZM209.19,72.79a25.05,25.05,0,0,1-2.49,4.86,2.24,2.24,0,0,0-.28,1.14c-.28,3.3-.61,6.59-.77,9.89a217,217,0,0,0-.46,22.81,18.12,18.12,0,0,0,1.16,6.08c.1.25.12.63.54.63a3.37,3.37,0,0,0,2.74-2c.08-.27.35-.59-.27-.64-1-.07-1.47-.86-1.77-1.71a14.69,14.69,0,0,1-.72-4A137.79,137.79,0,0,1,209.41,73a19.75,19.75,0,0,1,1.53-4.2,2.36,2.36,0,0,1,1.67-1.4c.4-.06.74-.09.57-.61s-.55-.41-.89-.33a2.14,2.14,0,0,0-1.39,1.36C210.11,69.38,209.84,71.15,209.19,72.79ZM134.42,145c0,.29,0,.44,0,.58,0,4.84,0,9.67,0,14.5a2.05,2.05,0,0,0,2.79,2.14c3.24-.74,5.4.06,7.28,2.72s4,5.59,5.94,8.4a3.17,3.17,0,0,0,3.7,1.45,6.5,6.5,0,0,1,7.44,3c1.35,2,2.68,4,4.05,5.93a2.56,2.56,0,0,0,3.28,1.23c.89-.21,1.78-.44,2.68-.64a7.1,7.1,0,0,1,7.57,2.64c1,1.21,1.91,2.46,2.87,3.68,1.15,1.47,2.93,1.87,4.49,2.62a1.43,1.43,0,0,0,1.05-.1c3-1,4.86-.38,6.7,2.08.87,1.18,1.74,1.27,2.76.24,2-2,3.83-4.08,5.58-6.26,3.85-4.77,7.36-9.75,9.18-15.69,1.58-5.15,1.28-10-2.41-14.29-2.82-3.26-6.61-5.11-10.46-6.69a39.85,39.85,0,0,0-11.19-2.44c-.73-.08-1.15-.38-1.09-1.11s.53-.93,1.18-.86c.28,0,.57,0,.84.05a58.27,58.27,0,0,1,9.6,2c1.65.51,1.68.52,2.33-1a64.39,64.39,0,0,0,5.59-27.66c0-.38.12-.78-.26-1.11a6.62,6.62,0,0,1-1.94-3.75c-1.07-4.52-.91-9.11-.87-13.7a14.12,14.12,0,0,0-.93-5.61c-.66-1.56-1.46-1.8-2.92-1a8.91,8.91,0,0,0-1.88,1.47c-2.56,2.46-4.31,5.52-6.32,8.39-6.16,8.78-14.72,12.55-25.35,11.55-7.28-.69-13.51-3.85-19-8.59a1.77,1.77,0,0,0-1.71-.45q-12.73,2.58-25.6,4.38c-10.16,1.44-20.36,2.62-30.62,3.22-10.78.62-21.56.84-32.31-.53a2,2,0,0,0-2,.46,1.39,1.39,0,0,1-1.23.36c-4.53-.64-8.91.29-13.26,1.34a112.8,112.8,0,0,0-16.19,5.44,1.68,1.68,0,0,0-1.28,1.89c.14,1,.87,1.35,1.77,1.47.67.09,1.35.16,2,.26A110.05,110.05,0,0,1,61.6,137.8a79.51,79.51,0,0,1,20.53,14.94,3.84,3.84,0,0,1,1.08,4.35c-.58,1.53-1.88,2.3-3.82,2.28a31.93,31.93,0,0,0-6.33.49c-5.08.93-9.45,3.11-12.65,7.29-1,1.29-.59,2.16,1,2.34,2.38.26,4.76.55,7.11,1A80.23,80.23,0,0,1,106.78,190a56.6,56.6,0,0,0,27.94,14.06c9.06,1.69,18.14,2.36,27.24.37a33.92,33.92,0,0,0,18.73-10.61,1,1,0,0,0,.05-1.58c-1.13-1.35-2.18-2.76-3.26-4.15a5.33,5.33,0,0,0-3.2-1.94c-1.69-.36-3.22.34-4.8.7-2.61.58-4.18,0-5.67-2.17-1.37-2-2.72-4-4.1-6a4.43,4.43,0,0,0-5-2,5.25,5.25,0,0,1-6.09-2.39c-1.78-2.6-3.68-5.12-5.42-7.75-1.45-2.2-3.23-3.06-5.89-2.37a3.83,3.83,0,0,1-4.87-3.95c0-5-.23-10,.11-15,.12-1.87-.79-2.11-1.88-2.66l-.43-.2a14.75,14.75,0,0,0-4.85-1.19c-.64,0-1.11-.3-1.1-1s.51-1,1.22-1c.43,0,.88.05,1.31.12,5,.79,8.86,3.43,12.1,7.15.46.54.77,1.13.14,1.67s-1.23.2-1.71-.4A16.62,16.62,0,0,0,134.42,145ZM7.27,8.49c-.21.43.05.64.16.88a127,127,0,0,0,16,25.18,167.09,167.09,0,0,0,40,35.37A188.52,188.52,0,0,0,97.6,87.5a2.27,2.27,0,0,0,2-.06c1.78-.9,3.59-1.74,5.37-2.63,9.41-4.73,18.69-9.67,27.19-15.94A9.64,9.64,0,0,0,136,64.3c.24-.71.39-.95-.53-1.14A202.56,202.56,0,0,1,107,55.36c-2.42-.89-5-.77-7.4-1.63C78.86,46.47,58.36,38.58,38.74,28.54a175.9,175.9,0,0,1-28.9-18ZM4.89,8.7c-.94.82-.66,1.72-.51,2.54A292.57,292.57,0,0,0,11.3,40.79c4.07,13.87,9.07,27.36,16.33,39.91,4.67,8.07,10.14,15.5,17.29,21.57,1.77,1.5,3.82,2.66,5.52,4.19a2.29,2.29,0,0,0,2.86.38c12.42-4.67,24.72-9.62,36.83-15,2-.87,3.9-1.77,6-2.71A197.42,197.42,0,0,1,54.62,66.36C40,55.92,27.15,43.72,16.72,29A129.32,129.32,0,0,1,4.89,8.7ZM133.63,70.41a1.58,1.58,0,0,0-.38.15,169,169,0,0,1-25.26,15,549.55,549.55,0,0,1-53.66,23c-1.77.67-1.78.65-.76,2.26,1.89,3,1.9,2.91,5.42,3.27a170.82,170.82,0,0,0,22.62.57c8.15-.27,16.27-1,24.36-1.87q14.64-1.65,29.14-4.25c3-.54,6-1.12,9-1.69C134.77,96.31,130.87,84.33,133.63,70.41ZM98.31,5a46.82,46.82,0,0,0-2,13.11c-.16,11.21,2.85,21.63,8,31.52a9.92,9.92,0,0,1,1.18,2.46c.14.72.51.87,1,1a217.9,217.9,0,0,0,22.13,6.44c2.72.62,5.46,1.17,8.17,1.83,1.11.27,1.15-.71,1.47-1.2s-.41-.6-.71-.76a82.74,82.74,0,0,1-14.54-9.84c-9.5-8-16.87-17.55-21.2-29.3A66.65,66.65,0,0,1,98.31,5Zm96.09,83a33.57,33.57,0,0,0-1.06-8.53c-.51-2-.84-4.16-2.21-5.86a57.69,57.69,0,0,1-4.55-6.45A31.31,31.31,0,0,0,174.74,56c-8.64-4.8-17.49-5.71-26.47-.84a1.84,1.84,0,0,1-1.48.28,1.44,1.44,0,0,0-1.41.42,25.34,25.34,0,0,0-7.79,9.69,31.61,31.61,0,0,0-2,21.25c3,12.5,10.17,21.88,22.16,26.89,9.9,4.13,19.47,3.18,27.71-4.16C191.85,103.86,194.24,96.37,194.4,88.06ZM100.66,5.16a1,1,0,0,0-.12.9,54.46,54.46,0,0,0,3.37,14c6.76,17.3,19.26,29.28,35.31,38,.53.29.78.11,1.1-.26A22.49,22.49,0,0,1,144,54.38c.51-.36.51-.58,0-1-1-.78-2-1.6-3-2.41-14.58-12-27.45-25.45-37.5-41.48C102.63,8.07,101.64,6.65,100.66,5.16Zm109,108c.34-.67-.24-1.19-.07-1.73s.46-1.1.64-1.67a20.5,20.5,0,0,0,.73-2.51,128.86,128.86,0,0,0,1.87-32.51,6.38,6.38,0,0,0-.72-3.36C208.85,79.37,207.42,107.81,209.62,113.2Zm-6.27-18.09c.18-5.12.48-10.18.94-15.39a6.85,6.85,0,0,1-4.94.43A16.8,16.8,0,0,1,195,77.79a42.29,42.29,0,0,1,1.36,9.54,37.31,37.31,0,0,1-1.06,9.55C198.69,93.77,200.55,92.93,203.35,95.11Z"/><path class="cls-2" d="M134.42,145a16.62,16.62,0,0,1,2.92,2.8c.48.6,1,1,1.71.4s.32-1.13-.14-1.67c-3.24-3.72-7.13-6.36-12.1-7.15-.43-.07-.88-.09-1.31-.12-.71,0-1.21.2-1.22,1s.46,1,1.1,1a14.75,14.75,0,0,1,4.85,1.19l.43.2c1.09.55,2,.79,1.88,2.66-.34,5-.13,10-.11,15a3.83,3.83,0,0,0,4.87,3.95c2.66-.69,4.44.17,5.89,2.37,1.74,2.63,3.64,5.15,5.42,7.75a5.25,5.25,0,0,0,6.09,2.39,4.43,4.43,0,0,1,5,2c1.38,2,2.73,4,4.1,6,1.49,2.19,3.06,2.75,5.67,2.17,1.58-.36,3.11-1.06,4.8-.7a5.33,5.33,0,0,1,3.2,1.94c1.08,1.39,2.13,2.8,3.26,4.15a1,1,0,0,1-.05,1.58A33.92,33.92,0,0,1,162,204.42c-9.1,2-18.18,1.32-27.24-.37A56.6,56.6,0,0,1,106.78,190a80.23,80.23,0,0,0-38.25-19.47c-2.35-.48-4.73-.77-7.11-1-1.6-.18-2-1.05-1-2.34,3.2-4.18,7.57-6.36,12.65-7.29a31.93,31.93,0,0,1,6.33-.49c1.94,0,3.24-.75,3.82-2.28a3.84,3.84,0,0,0-1.08-4.35A79.51,79.51,0,0,0,61.6,137.8,110.05,110.05,0,0,0,26.32,127c-.67-.1-1.35-.17-2-.26-.9-.12-1.63-.45-1.77-1.47a1.68,1.68,0,0,1,1.28-1.89A112.8,112.8,0,0,1,40,117.93c4.35-1.05,8.73-2,13.26-1.34a1.39,1.39,0,0,0,1.23-.36,2,2,0,0,1,2-.46c10.75,1.37,21.53,1.15,32.31.53,10.26-.6,20.46-1.78,30.62-3.22q12.87-1.81,25.6-4.38a1.77,1.77,0,0,1,1.71.45c5.47,4.74,11.7,7.9,19,8.59,10.63,1,19.19-2.77,25.35-11.55,2-2.87,3.76-5.93,6.32-8.39a8.91,8.91,0,0,1,1.88-1.47c1.46-.81,2.26-.57,2.92,1a14.12,14.12,0,0,1,.93,5.61c0,4.59-.2,9.18.87,13.7a6.62,6.62,0,0,0,1.94,3.75c.38.33.25.73.26,1.11a64.39,64.39,0,0,1-5.59,27.66c-.65,1.52-.68,1.51-2.33,1a58.27,58.27,0,0,0-9.6-2c-.27,0-.56,0-.84-.05-.65-.07-1.13.16-1.18.86s.36,1,1.09,1.11a39.85,39.85,0,0,1,11.19,2.44c3.85,1.58,7.64,3.43,10.46,6.69,3.69,4.28,4,9.14,2.41,14.29-1.82,5.94-5.33,10.92-9.18,15.69-1.75,2.18-3.62,4.26-5.58,6.26-1,1-1.89.94-2.76-.24-1.84-2.46-3.73-3.06-6.7-2.08a1.43,1.43,0,0,1-1.05.1c-1.56-.75-3.34-1.15-4.49-2.62-1-1.22-1.89-2.47-2.87-3.68a7.1,7.1,0,0,0-7.57-2.64c-.9.2-1.79.43-2.68.64a2.56,2.56,0,0,1-3.28-1.23c-1.37-2-2.7-4-4.05-5.93a6.5,6.5,0,0,0-7.44-3,3.17,3.17,0,0,1-3.7-1.45c-2-2.81-4-5.6-5.94-8.4s-4-3.46-7.28-2.72a2.05,2.05,0,0,1-2.79-2.14c0-4.83,0-9.66,0-14.5C134.39,145.41,134.4,145.26,134.42,145Zm61.18-1c.12.93-.08,2.18,1.15,2.58s1.86-.68,2.39-1.54a17,17,0,0,0,2.22-6.51,6.77,6.77,0,0,0,0-3,1.38,1.38,0,0,0-2.46-.7,6,6,0,0,0-1,1.33A18.87,18.87,0,0,0,195.6,144Zm-3.49,17.65c-1.24,0-2.48,0-3.72,0-.72,0-1.36.19-1.38,1s.57,1,1.31,1c2.52,0,5,0,7.55,0,.69,0,1.23-.24,1.25-1s-.57-1-1.3-1C194.58,161.65,193.34,161.64,192.11,161.64Z"/><path class="cls-3" d="M7.27,8.49l2.57,2.07a175.9,175.9,0,0,0,28.9,18c19.62,10,40.12,17.93,60.89,25.19,2.44.86,5,.74,7.4,1.63a202.56,202.56,0,0,0,28.45,7.8c.92.19.77.43.53,1.14a9.64,9.64,0,0,1-3.82,4.57c-8.5,6.27-17.78,11.21-27.19,15.94-1.78.89-3.59,1.73-5.37,2.63a2.27,2.27,0,0,1-2,.06A188.52,188.52,0,0,1,63.44,69.92a167.09,167.09,0,0,1-40-35.37,127,127,0,0,1-16-25.18C7.32,9.13,7.06,8.92,7.27,8.49Z"/><path class="cls-4" d="M4.89,8.7A129.32,129.32,0,0,0,16.72,29C27.15,43.72,40,55.92,54.62,66.36A197.42,197.42,0,0,0,96.09,89.08c-2.06.94-4,1.84-6,2.71-12.11,5.43-24.41,10.38-36.83,15a2.29,2.29,0,0,1-2.86-.38c-1.7-1.53-3.75-2.69-5.52-4.19C37.77,96.2,32.3,88.77,27.63,80.7c-7.26-12.55-12.26-26-16.33-39.91A292.57,292.57,0,0,1,4.38,11.24C4.23,10.42,4,9.52,4.89,8.7Z"/><path class="cls-5" d="M133.63,70.41c-2.76,13.92,1.14,25.9,10.51,36.45-3,.57-6,1.15-9,1.69Q120.6,111.13,106,112.8c-8.09.92-16.21,1.6-24.36,1.87A170.82,170.82,0,0,1,59,114.1c-3.52-.36-3.53-.28-5.42-3.27-1-1.61-1-1.59.76-2.26a549.55,549.55,0,0,0,53.66-23,169,169,0,0,0,25.26-15A1.58,1.58,0,0,1,133.63,70.41Zm-2.55,24.1a9.84,9.84,0,0,0-2.45-6.87,6.27,6.27,0,0,0-10.34.86,9.66,9.66,0,0,0,2.16,12,6.18,6.18,0,0,0,9.39-1.66A8.2,8.2,0,0,0,131.08,94.51Zm-21.92,6.38a8.12,8.12,0,0,0-1.93-5.38,4.52,4.52,0,0,0-7.83,1,8.23,8.23,0,0,0,1.92,9.2,4.38,4.38,0,0,0,6.86-1.07A6.84,6.84,0,0,0,109.16,100.89Zm-16,4.28a6.83,6.83,0,0,0-2-5.07,4,4,0,0,0-6.7,1.25,6.92,6.92,0,0,0-.13,5.34c.92,2.62,3.11,4.16,5.27,3.76S93.15,108,93.15,105.17Zm-16.84,4.22a5.22,5.22,0,0,0-1.06-3.45,3.44,3.44,0,0,0-3.4-1.56A3.32,3.32,0,0,0,69.06,107a5.47,5.47,0,0,0,1,5.09,3.36,3.36,0,0,0,6-.92A3.67,3.67,0,0,0,76.31,109.39Z"/><path class="cls-4" d="M98.31,5a66.65,66.65,0,0,0,3.55,15.31c4.33,11.75,11.7,21.3,21.2,29.3a82.74,82.74,0,0,0,14.54,9.84c.3.16,1.09.18.71.76s-.36,1.47-1.47,1.2c-2.71-.66-5.45-1.21-8.17-1.83a217.9,217.9,0,0,1-22.13-6.44c-.52-.18-.89-.33-1-1a9.92,9.92,0,0,0-1.18-2.46c-5.12-9.89-8.13-20.31-8-31.52A46.82,46.82,0,0,1,98.31,5Z"/><path class="cls-5" d="M194.4,88.06c-.16,8.31-2.55,15.8-8.89,21.45-8.24,7.34-17.81,8.29-27.71,4.16-12-5-19.14-14.39-22.16-26.89a31.61,31.61,0,0,1,2-21.25,25.34,25.34,0,0,1,7.79-9.69,1.44,1.44,0,0,1,1.41-.42,1.84,1.84,0,0,0,1.48-.28c9-4.87,17.83-4,26.47.84a31.31,31.31,0,0,1,11.84,11.24,57.69,57.69,0,0,0,4.55,6.45c1.37,1.7,1.7,3.84,2.21,5.86A33.57,33.57,0,0,1,194.4,88.06ZM160.88,54.5c-.81,0-1.82.06-2.8.19a22.8,22.8,0,0,0-2.94.58C145.78,57.74,139,66,138,76.21a33.69,33.69,0,0,0,18.76,33.53c6.59,3.16,13.47,3.81,20.27.79,9.28-4.11,13.56-11.81,14.12-21.59s-3-18.46-10-25.51A28.47,28.47,0,0,0,160.88,54.5Z"/><path class="cls-3" d="M100.66,5.16c1,1.49,2,2.91,2.89,4.38,10,16,22.92,29.53,37.5,41.48,1,.81,2,1.63,3,2.41.49.37.49.59,0,1a22.49,22.49,0,0,0-3.69,3.41c-.32.37-.57.55-1.1.26-16-8.69-28.55-20.67-35.31-38a54.46,54.46,0,0,1-3.37-14A1,1,0,0,1,100.66,5.16Z"/><path class="cls-6" d="M209.62,113.2c-2.2-5.39-.77-33.83,2.45-41.78a6.38,6.38,0,0,1,.72,3.36,128.86,128.86,0,0,1-1.87,32.51,20.5,20.5,0,0,1-.73,2.51c-.18.57-.45,1.11-.64,1.67S210,112.53,209.62,113.2Z"/><path class="cls-5" d="M203.35,95.11c-2.8-2.18-4.66-1.34-8.06,1.77a37.31,37.31,0,0,0,1.06-9.55A42.29,42.29,0,0,0,195,77.79a16.8,16.8,0,0,0,4.36,2.36,6.85,6.85,0,0,0,4.94-.43C203.83,84.93,203.53,90,203.35,95.11Z"/><path class="cls-5" d="M209.41,73a137.79,137.79,0,0,0-2.54,36.86,14.69,14.69,0,0,0,.72,4c.3.85.73,1.64,1.77,1.71.62,0,.35.37.27.64a3.37,3.37,0,0,1-2.74,2c-.42,0-.44-.38-.54-.63a18.12,18.12,0,0,1-1.16-6.08,217,217,0,0,1,.46-22.81c.16-3.3.49-6.59.77-9.89a2.24,2.24,0,0,1,.28-1.14,25.05,25.05,0,0,0,2.49-4.86Z"/><path class="cls-5" d="M209.19,72.79c.65-1.64.92-3.41,1.71-5a2.14,2.14,0,0,1,1.39-1.36c.34-.08.75-.13.89.33s-.17.55-.57.61a2.36,2.36,0,0,0-1.67,1.4,19.75,19.75,0,0,0-1.53,4.2Z"/><path class="cls-7" d="M182.36,128.11a22.81,22.81,0,0,1-1.88,9.83,9.79,9.79,0,0,1-1.89,2.92,3.83,3.83,0,0,1-6.16-.34,8,8,0,0,1-1.33-3.76,25.77,25.77,0,0,1,1.76-13.47,9.63,9.63,0,0,1,2-3,3.83,3.83,0,0,1,6,.33,9.35,9.35,0,0,1,1.51,4.7A26.51,26.51,0,0,1,182.36,128.11Zm-4-7.31c-3.9,2.25-5.66,16.19-2.32,18.84C179.88,137.55,181.77,123.51,178.37,120.8Z"/><path class="cls-8" d="M192.11,161.64c1.23,0,2.47,0,3.71,0,.73,0,1.32.19,1.3,1s-.56,1-1.25,1c-2.51,0-5,0-7.55,0-.74,0-1.33-.27-1.31-1s.66-1,1.38-1C189.63,161.65,190.87,161.64,192.11,161.64Z"/><path class="cls-9" d="M131.08,94.51a8.2,8.2,0,0,1-1.24,4.35,6.18,6.18,0,0,1-9.39,1.66,9.66,9.66,0,0,1-2.16-12,6.27,6.27,0,0,1,10.34-.86A9.84,9.84,0,0,1,131.08,94.51Zm-8.47-2.64a7.31,7.31,0,0,0,3.64,6.57A1.11,1.11,0,0,0,128,98a7.34,7.34,0,0,0,.09-7.63c-.72-1.34-1.69-2.66-3.34-2.72C123.7,87.62,122.63,90,122.61,91.87Zm-.3-4.23c-2.81,1.15-4,4.7-2.82,8.08,1,3,3.94,5,5.9,4A9,9,0,0,1,122.31,87.64Z"/><path class="cls-8" d="M109.16,100.89a6.84,6.84,0,0,1-1,3.75,4.38,4.38,0,0,1-6.86,1.07,8.23,8.23,0,0,1-1.92-9.2,4.52,4.52,0,0,1,7.83-1A8.12,8.12,0,0,1,109.16,100.89Zm-6.24-5c-.64,0-1,.47-1.32.9-1.66,2.18-.84,6.37,1.5,7.77a1.85,1.85,0,0,0,2.07.17,7.4,7.4,0,0,1-2.38-3.41,8.93,8.93,0,0,1,.32-5.29l0-.28Zm4.23,5.14a5.87,5.87,0,0,0-1.84-4.52c-.22-.2-.49-.65-.74.05a6.38,6.38,0,0,0,0,5c.41.88,1.08,2.06,1.89,1.9S107.1,101.86,107.15,101Z"/><path class="cls-9" d="M93.15,105.17c0,2.78-1.41,4.88-3.54,5.28s-4.35-1.14-5.27-3.76a6.92,6.92,0,0,1,.13-5.34,4,4,0,0,1,6.7-1.25A6.83,6.83,0,0,1,93.15,105.17Zm-2.52,2.13a5.07,5.07,0,0,0-.78-5.69c-.49-.48-.68-.49-.89.25A4.75,4.75,0,0,0,90.63,107.3Zm-1.19,1.13a6.4,6.4,0,0,1-2.1-3.48,10.35,10.35,0,0,1,.24-4c-1.58,1-2.09,2.78-1.45,4.8C86.7,107.56,87.77,108.49,89.44,108.43Z"/><path class="cls-9" d="M76.31,109.39a3.67,3.67,0,0,1-.29,1.78,3.36,3.36,0,0,1-6,.92,5.47,5.47,0,0,1-1-5.09,3.32,3.32,0,0,1,2.79-2.62,3.44,3.44,0,0,1,3.4,1.56A5.22,5.22,0,0,1,76.31,109.39Zm-4,1.8,0,.15.14,0-.15-.1a12.14,12.14,0,0,1-.49-4.62A2.87,2.87,0,0,0,72.26,111.19Zm.58-4.67a6.46,6.46,0,0,0,.74,4.69A3.1,3.1,0,0,0,72.84,106.52Z"/><path class="cls-8" d="M160.88,54.5a28.47,28.47,0,0,1,20.33,8.93c6.94,7.05,10.52,15.59,10,25.51s-4.84,17.48-14.12,21.59c-6.8,3-13.68,2.37-20.27-.79A33.69,33.69,0,0,1,138,76.21c1-10.21,7.76-18.47,17.12-20.94a22.8,22.8,0,0,1,2.94-.58C159.06,54.56,160.07,54.55,160.88,54.5Zm-21,25.11a24.53,24.53,0,0,0,.8,6.89c2.88,10.88,9.23,18.84,20,22.64s21.38-.77,26.16-10.81a25.52,25.52,0,0,0,1.73-17.17c-2.67-11.39-9.2-19.68-20.48-23.47-7.88-2.65-15.29-1.29-21.42,4.62C141.81,67,139.92,73,139.86,79.61Z"/><path class="cls-10" d="M178.37,120.8c3.4,2.71,1.51,16.75-2.32,18.84C172.71,137,174.47,123.05,178.37,120.8Z"/><path class="cls-3" d="M122.61,91.87c0-1.87,1.09-4.25,2.16-4.21,1.65.06,2.62,1.38,3.34,2.72A7.34,7.34,0,0,1,128,98a1.11,1.11,0,0,1-1.77.43A7.31,7.31,0,0,1,122.61,91.87Z"/><path class="cls-11" d="M122.31,87.64a9,9,0,0,0,3.08,12.12c-2,.93-4.89-1.06-5.9-4C118.35,92.34,119.5,88.79,122.31,87.64Z"/><path class="cls-11" d="M103.11,96a8.93,8.93,0,0,0-.32,5.29,7.4,7.4,0,0,0,2.38,3.41,1.85,1.85,0,0,1-2.07-.17c-2.34-1.4-3.16-5.59-1.5-7.77.33-.43.68-.9,1.32-.9A1.33,1.33,0,0,0,103.11,96Z"/><path class="cls-4" d="M107.15,101c-.05.88,0,2.27-.74,2.41s-1.48-1-1.89-1.9a6.38,6.38,0,0,1,0-5c.25-.7.52-.25.74-.05A5.87,5.87,0,0,1,107.15,101Z"/><path class="cls-12" d="M102.92,95.84l.14-.14c0,.09,0,.19,0,.28A1.33,1.33,0,0,1,102.92,95.84Z"/><path class="cls-4" d="M90.63,107.3A4.75,4.75,0,0,1,89,101.86c.21-.74.4-.73.89-.25A5.07,5.07,0,0,1,90.63,107.3Z"/><path class="cls-11" d="M89.44,108.43c-1.67.06-2.74-.87-3.31-2.7-.64-2-.13-3.83,1.45-4.8a10.35,10.35,0,0,0-.24,4A6.4,6.4,0,0,0,89.44,108.43Z"/><path class="cls-4" d="M72.84,106.52a3.1,3.1,0,0,1,.74,4.69A6.46,6.46,0,0,1,72.84,106.52Z"/><path class="cls-11" d="M72.26,111.19a2.87,2.87,0,0,1-.52-4.61,12.14,12.14,0,0,0,.49,4.62Z"/><path class="cls-12" d="M72.23,111.2l.15.1-.14,0s0-.1,0-.15Z"/><path class="cls-6" d="M139.86,79.61c.06-6.63,1.95-12.62,6.83-17.3,6.13-5.91,13.54-7.27,21.42-4.62,11.28,3.79,17.81,12.08,20.48,23.47a25.52,25.52,0,0,1-1.73,17.17c-4.78,10-15.47,14.56-26.16,10.81s-17.16-11.76-20-22.64A24.53,24.53,0,0,1,139.86,79.61Zm36.08,20.58c-.06-.61-.62-.94-1-1.34q-9.08-8.61-18.16-17.19l-4.1-3.86a.94.94,0,0,0-1.47,0,1,1,0,0,0,.09,1.48c.17.17.34.34.52.5l16.87,16c1.8,1.7,3.6,3.39,5.39,5.1a1.16,1.16,0,0,0,1.4.32A1,1,0,0,0,175.94,100.19Zm3.79-13.55c0-.56-.4-.82-.71-1.12l-17.6-17c-.54-.52-1.14-.86-1.75-.23s-.16,1.21.37,1.72l11.22,10.8c2.16,2.07,4.33,4.15,6.48,6.23a1.22,1.22,0,0,0,1.38.44A.93.93,0,0,0,179.73,86.64ZM173,88.7a1.28,1.28,0,0,0-.55-1l-8.53-8.24c-.52-.51-1.09-1-1.73-.28s-.18,1.23.35,1.74l5,4.84,3.62,3.5a1.15,1.15,0,0,0,1.31.31A.89.89,0,0,0,173,88.7Z"/><path d="M175.94,100.19a1,1,0,0,1-.5,1,1.16,1.16,0,0,1-1.4-.32c-1.79-1.71-3.59-3.4-5.39-5.1l-16.87-16c-.18-.16-.35-.33-.52-.5a1,1,0,0,1-.09-1.48.94.94,0,0,1,1.47,0l4.1,3.86q9.07,8.58,18.16,17.19C175.32,99.25,175.88,99.58,175.94,100.19Z"/><path d="M179.73,86.64a.93.93,0,0,1-.61.87,1.22,1.22,0,0,1-1.38-.44c-2.15-2.08-4.32-4.16-6.48-6.23L160,70c-.53-.51-1-1.06-.37-1.72s1.21-.29,1.75.23l17.6,17C179.33,85.82,179.71,86.08,179.73,86.64Z"/><path d="M173,88.7a.89.89,0,0,1-.55.86,1.15,1.15,0,0,1-1.31-.31l-3.62-3.5-5-4.84c-.53-.51-1-1.07-.35-1.74s1.21-.23,1.73.28l8.53,8.24A1.28,1.28,0,0,1,173,88.7Z"/><ellipse class="cls-13" cx="178.14" cy="131.19" rx="10.34" ry="4.07" transform="translate(25.98 291.79) rotate(-82.92)"/><ellipse class="cls-13" cx="199.29" cy="137.87" rx="9.19" ry="2.74" transform="translate(6.42 284.59) rotate(-71.94)"/></svg>