<?xml version="1.0" encoding="utf-8"?>
<!-- Generator: Adobe Illustrator 25.2.1, SVG Export Plug-In . SVG Version: 6.00 Build 0)  -->
<svg version="1.1" id="Livello_1" xmlns="http://www.w3.org/2000/svg" xmlns:xlink="http://www.w3.org/1999/xlink" x="0px" y="0px"
	 viewBox="0 0 217.3 209.6" style="enable-background:new 0 0 217.3 209.6;" xml:space="preserve">
<style type="text/css">
	.st0{fill:#CC4444;}
	.st1{fill:#C4AF7A;}
	.st2{fill:#E9D6A4;}
	.st3{fill:#81DAEF;}
	.st4{fill:#3E3E3E;}
	.st5{fill:#090909;}
	.st6{fill:#545656;}
	.st7{fill:#F8F8F8;}
	.st8{fill:#FFBC45;}
	.st9{fill:#050505;}
	.st10{fill:#070707;}
</style>
<path class="st0" d="M150.2,207.1c-4.8,0-9.9-0.5-15.7-1.6c-10.7-2-20.7-7-28.7-14.4c-10.5-9.7-23.5-16.3-37.6-19.1
	c-2.5-0.5-5-0.8-7-1c-1.7-0.2-2.4-1-2.6-1.6c-0.3-0.6-0.4-1.7,0.7-3c3.2-4.2,7.6-6.7,13.5-7.8c1.9-0.3,3.9-0.5,5.9-0.5
	c0.3,0,0.5,0,0.8,0c1.7,0,2.2-0.7,2.5-1.4c0.4-1,0.1-2.1-0.7-2.8l-0.1-0.1c-5.9-6-12.7-10.9-20.2-14.7c-10.9-5.5-22.7-9.1-34.8-10.7
	c-0.4-0.1-0.8-0.1-1.1-0.2c-0.3,0-0.6-0.1-0.9-0.1c-2.2-0.3-2.8-1.6-3-2.7c-0.2-1.5,0.7-3,2.2-3.4c5.3-2.2,10.7-4.1,16.3-5.5
	c3.5-0.8,6.9-1.6,10.5-1.6c1.1,0,2.2,0.1,3.3,0.2c0.7-0.6,1.5-0.9,2.4-0.9c0.3,0,0.6,0,0.9,0.1c5.3,0.7,10.9,1,17.1,1
	c4.4,0,9.1-0.2,14.8-0.5c9.1-0.5,18.8-1.6,30.5-3.2c8.5-1.2,17.1-2.7,25.5-4.4c0.2-0.1,0.5-0.1,0.7-0.1c0.8,0,1.6,0.3,2.2,0.9
	c5.6,4.9,11.6,7.6,18.1,8.2c1.1,0.1,2.1,0.2,3.1,0.2c8.7,0,15.8-3.7,20.9-11.1c0.5-0.7,0.9-1.3,1.4-2c1.5-2.3,3.1-4.6,5.1-6.6
	c0.6-0.6,1.3-1.2,2.1-1.7c0.8-0.4,1.5-0.6,2.1-0.6c1.2,0,2.2,0.8,2.9,2.3c0.8,2,1.1,4.1,1,6.2c0,0.6,0,1.2,0,1.8c0,4,0,7.8,0.8,11.5
	v0.1c0.2,1.1,0.7,2.2,1.5,2.9c0.8,0.7,0.7,1.6,0.7,2v0.1c0.2,9.7-1.8,19.4-5.7,28.3c-0.3,0.7-0.7,1.5-1.4,1.9
	c3.6,1.5,7.2,3.5,9.9,6.6c3.7,4.3,4.6,9.4,2.7,15.6c-1.9,6.3-5.7,11.5-9.4,16.2c-1.7,2.1-3.6,4.3-5.7,6.4c-0.8,0.8-1.5,1.1-2.3,1.1
	c-1,0-1.8-0.5-2.6-1.5c-1.3-1.7-2.3-2-3.1-2c-0.5,0-1.2,0.1-1.9,0.3c-0.4,0.2-0.8,0.3-1.2,0.3c-0.3,0-0.5,0-0.8-0.1h-0.1l-0.1-0.1
	c-0.4-0.2-0.7-0.3-1.1-0.5c-0.7-0.3-1.6-0.6-2.3-1.1c0.1,0.6-0.1,1.3-0.5,1.7c-0.1,0.1-0.2,0.2-0.3,0.3c-5.1,5.6-12,9.4-19.4,10.9
	C158.4,206.7,154.5,207.1,150.2,207.1z"/>
<path class="st1" d="M98.6,88.9c-0.5,0-1-0.1-1.4-0.3c-12-4.7-23.5-10.6-34.3-17.7C47.6,61.2,34,49.2,22.6,35.3
	C16.2,27.5,10.8,18.9,6.4,9.9C6.2,9.6,5.8,8.9,6.3,8l0.6-1.3l3.7,3c8.9,6.8,18.6,12.9,28.7,17.9C60.8,38.5,83,46.8,100,52.7
	c1.1,0.4,2.2,0.6,3.4,0.7c1.3,0.2,2.6,0.4,4,0.9c9.2,3.3,18.7,5.9,28.3,7.8c0.5,0.1,1.1,0.3,1.4,0.9c0.3,0.6,0.1,1.2,0,1.6v0.1
	c-0.9,2.2-0.5,3.4-2.5,4.6c-8,5.9,6.4,30.6,9.5,37.6c-0.8,0.4-10.9,2.7-11.7,3.1C131.4,110.4,99.1,88.9,98.6,88.9z"/>
<path class="st2" d="M52.1,108.3c-0.9,0-1.8-0.4-2.5-1.1c-0.8-0.7-1.7-1.4-2.8-2.1c-0.9-0.6-1.8-1.3-2.7-2
	C37.6,97.6,32,90.6,26.6,81.3c-6.4-11.2-11.6-24-16.4-40.2C7.4,31.4,5,21.4,3.3,11.4v-0.1c-0.2-0.8-0.4-2.2,0.9-3.4l1.1-1.1L6,8.2
	c3.3,7,7.2,13.8,11.7,20.1c9.9,13.9,22.2,26.1,37.6,37.1C68.1,74.6,81.9,82.2,96.5,88l39,21.5l-47.9,6c-1.6,0.7-23.9-1.3-25.5-0.6
	C50,116.2,52.7,108.3,52.1,108.3z"/>
<path class="st2" d="M137.2,62.6c-0.2,0-0.4,0-0.6-0.1c-1.6-0.4-3.3-0.8-5-1.1c-1.1-0.2-2.1-0.5-3.2-0.7c-7.5-1.8-15-3.9-22.3-6.5
	c-0.5-0.2-1.5-0.5-1.7-1.8c-0.2-0.7-0.6-1.5-1-2.1v-0.1v-0.1c-5.6-10.8-8.3-21.3-8.1-32.1c0-4.6,0.7-9.1,2-13.5l2.2,0.2
	c0.6,5.1,1.7,10.2,3.5,15c4,11,10.9,20.4,20.9,28.8c4.4,3.7,9.2,7,14.3,9.7h0.1c0.3,0.1,1,0.3,1.3,1c0.1,0.3,0.2,0.8-0.2,1.4
	c-0.1,0.1-0.1,0.2-0.1,0.3C138.9,61.6,138.5,62.6,137.2,62.6z"/>
<path class="st1" d="M139.7,59.4c-0.3,0-0.7-0.1-1-0.3c-17.7-9.6-29.5-22.3-35.8-38.6c-1.8-4.5-2.9-9.3-3.4-14.2
	c-0.2-0.6-0.1-1.3,0.2-1.8l0.9-1.4l1.7,2.5c0.8,1.1,1.5,2.2,2.2,3.3c9.2,14.7,21.4,28.2,37.2,41.2l0.6,0.5c0.8,0.6,1.6,1.3,2.4,1.9
	c0.2,0.2,0.8,0.6,0.8,1.3c0,0.8-0.6,1.2-0.8,1.4c-1.3,1-2.5,2.1-3.6,3.3C141,58.8,140.5,59.4,139.7,59.4z"/>
<path class="st3" d="M208.6,113.6c-2.4-6-0.8-34.7,2.4-42.6l0.9-2.3l1.1,2.2c0.6,1.2,0.9,2.5,0.9,3.9c0.8,10.9,0.1,21.9-1.9,32.7
	c-0.2,0.9-0.5,1.8-0.8,2.7c-0.1,0.3-0.2,0.6-0.4,0.9c-0.1,0.2-0.2,0.4-0.2,0.6v0.1c0.1,0.4,0.4,1.1-0.1,1.9l-1.2,2L208.6,113.6z"/>
<path class="st4" d="M213.5,66.7c-0.1-0.4-0.4-0.6-0.8-0.6c-0.2,0-0.3,0-0.5,0.1c-0.7,0.2-1.3,0.8-1.6,1.5c-0.5,0.9-0.8,2-1,2.9
	c-0.2,0.7-0.4,1.4-0.7,2.1l0,0c-0.6,1.7-1.5,3.3-2.5,4.8c-0.2,0.3-1.1,0.9-1.6,1.3l-0.8,0.4c-0.9,0.4-1.8,0.6-2.8,0.6
	c-0.6,0-1.2-0.1-1.7-0.2c-1.5-0.5-2.9-1.3-4.2-2.3l-2.9-2.8c-0.2-0.4-0.5-0.8-0.8-1.2c-1.6-2-3.2-4.2-4.5-6.4
	c-2.9-4.8-7.1-8.8-12-11.4c-4.9-2.8-9.8-4.2-14.5-4.2c-4.2,0-8.4,1.1-12.5,3.4c-0.2,0.1-0.5,0.2-0.7,0.2c-0.1,0-0.2,0-0.3,0
	c-0.2,0-0.3-0.1-0.5-0.1c-0.5,0-1.1,0.2-1.4,0.6c-3.4,2.6-6.1,6-7.9,9.9c-0.5,1.1-1,2.2-1.3,3.4l-2.3,1.2c-0.2,0.1-0.3,0.1-0.5,0.2
	c-7.9,5.7-16.4,10.7-25.2,15c-17.4,8.6-35.4,16.3-53.7,23c-1,0.4-1.5,0.6-1.7,1.1s0.1,1,0.7,2c1.9,3,2.1,3.2,5.6,3.5h0.3
	c5.2,0.5,10.5,0.7,15.7,0.7c2.3,0,4.7,0,7-0.1c7.5-0.2,15.5-0.9,24.4-1.9c9.7-1.1,19.5-2.5,29.2-4.3c2.4-0.4,4.8-0.9,7.2-1.4
	l3.6-0.9c3.2,3,7.1,5.5,11.5,7.3c3.9,1.6,7.8,2.5,11.5,2.5c6.1,0,11.8-2.3,16.8-6.7c3.4-3,5.8-6.7,7.3-11l2.5-1.6
	c1.9-1.8,3.4-2.8,4.8-2.8c0.8,0,1.6,0.3,2.6,1.1l0,0c1.2,0.5,1.8,1.8,1.6,3c-0.8,4-1.1,8.1-0.6,12.3c0.1,0.5,0,1,0,1.5
	c-0.2,1.4-0.2,3.5,0.9,4.3l0.2,0.7c0.1,0.2,1.2,1.2,1.8,1.2l0,0l0,0c1.3-0.1,2.4-1,3-2.2v-0.1c0.1-0.2,0.2-0.4,0-0.6
	s-0.5-0.2-0.6-0.2l0,0c-0.8-0.1-1.2-0.6-1.5-1.5c-0.4-1.3-0.7-2.6-0.7-3.9c-0.8-12.2,0-24.5,2.5-36.6c0.4-1.6,1-3.2,1.6-4.4
	c0.3-0.6,0.8-1.1,1.5-1.2c0.3,0,0.6-0.1,0.8-0.4C213.5,67.1,213.5,66.9,213.5,66.7z M75.7,109.5c0.1,0.5,0,1-0.2,1.6
	s-0.6,1.2-1.1,1.5s-1,0.5-1.6,0.5c-0.9,0-1.8-0.5-2.3-1.3c-1-1.3-1.4-3-0.9-4.6c0.2-1.1,1.2-2,2.3-2.2c0.1,0,0.3,0,0.4,0
	c1,0,1.9,0.5,2.5,1.4c0.6,0.7,0.9,1.6,0.9,2.5h-0.1L75.7,109.5z M92.6,104.6v0.6c0,2.6-1.2,4.4-3.1,4.7c-0.2,0-0.4,0.1-0.6,0.1
	c-1.7,0-3.3-1.4-4.1-3.5c-0.6-1.6-0.6-3.4,0.1-4.9c0.2-0.5,0.5-1,0.9-1.3c0.6-0.6,1.5-0.9,2.3-0.9c1,0,1.9,0.4,2.6,1.2
	C91.9,101.6,92.5,103.1,92.6,104.6L92.6,104.6z M107.7,104.4c-0.2,0.3-0.4,0.6-0.6,0.8c-0.7,0.8-1.7,1.2-2.8,1.2
	c-1,0-1.9-0.4-2.6-1.1c-2.3-2.2-3-5.6-1.8-8.6c0.3-0.7,0.7-1.3,1.3-1.7c0.7-0.5,1.5-0.8,2.3-0.8c1.3,0,2.4,0.6,3.2,1.6
	c1.2,1.4,1.8,3.2,1.8,5C108.6,102.1,108.3,103.3,107.7,104.4z M129.3,98.6c-0.2,0.3-0.4,0.6-0.6,0.9c-1.1,1.3-2.6,2-4.3,2
	c-1.3,0-2.6-0.5-3.6-1.3c-3.3-2.8-4.1-7.5-2-11.3c0.4-0.6,0.8-1.2,1.4-1.6c1-0.8,2.3-1.3,3.6-1.3c1.7,0,3.4,0.8,4.5,2.1
	c1.6,1.8,2.4,4.1,2.3,6.5C130.5,95.9,130.1,97.3,129.3,98.6z M190.6,88.9c-0.6,10.2-5.2,17.3-13.8,21.1c-2.8,1.3-5.8,1.9-8.8,1.9
	l0,0c-3.6,0-7.3-0.9-11-2.7c-12.4-6-19.8-19.3-18.4-33c1-10,7.5-18,16.7-20.4c0.9-0.3,1.9-0.4,2.9-0.6c0.9-0.1,1.9-0.2,2.7-0.2
	c7.5,0.1,14.7,3.3,19.9,8.8C187.7,70.9,191.1,79.5,190.6,88.9z"/>
<path class="st5" d="M192.1,161.6c1.2,0,2.5,0,3.7,0c0.7,0,1.3,0.2,1.3,1s-0.6,1-1.2,1c-2.5,0-5,0-7.6,0c-0.7,0-1.3-0.3-1.3-1
	s0.7-1,1.4-1C189.6,161.6,190.9,161.6,192.1,161.6z"/>
<g>
	<path class="st6" d="M124.3,100.3c-2,0-4.2-1.9-5.1-4.4c-1.2-3.6,0.1-7.3,3-8.5l0.8-0.3l-0.4,0.7c-2.3,4.1-1,9.3,3,11.7l0.4,0.3
		l-0.5,0.2C125.1,100.2,124.7,100.3,124.3,100.3z"/>
	<path class="st6" d="M104.3,105.2c-0.5,0-1-0.2-1.3-0.5c-1.1-0.7-2-2.1-2.4-3.8c-0.3-1.7,0-3.3,0.8-4.4c0.4-0.5,0.8-1,1.5-1h0.1
		l0.1,0.1l0.1,0.1l0.2,0.1l-0.1,0.2c-0.6,1.6-0.7,3.4-0.3,5.1c0.4,1.3,1.2,2.4,2.3,3.3l0.3,0.3l-0.4,0.2
		C105,105.1,104.6,105.2,104.3,105.2z"/>
	<path class="st6" d="M89.3,108.7c-1.7,0-2.8-1-3.4-2.9c-0.7-2.1-0.1-4.1,1.6-5.1l0.6-0.4l-0.2,0.7c-0.3,1.3-0.4,2.6-0.2,3.9
		c0.3,1.3,1,2.5,2,3.3l0.6,0.5H89.3z"/>
	<path class="st6" d="M72.2,111.5l-0.2,0.1l-0.1-0.2c-1.4-0.9-1.9-2.8-1.1-4.2c0.2-0.3,0.4-0.5,0.6-0.8l0.5-0.5l-0.1,0.7
		c-0.1,1.5,0,3,0.4,4.4l0.4,0.2l-0.3,0.1l0.1,0.4L72.2,111.5z"/>
</g>
<path class="st7" d="M102.9,95.8L102.9,95.8c0.1,0,0.1,0.1,0.1,0.2C103,95.9,103,95.9,102.9,95.8z"/>
<path class="st7" d="M72.2,111.2l0.2,0.1L72.2,111.2C72.2,111.3,72.2,111.2,72.2,111.2L72.2,111.2z"/>
<ellipse transform="matrix(0.1233 -0.9924 0.9924 0.1233 25.9828 291.8276)" class="st8" cx="178.2" cy="131.2" rx="10.3" ry="4.1"/>
<ellipse transform="matrix(0.31 -0.9507 0.9507 0.31 6.4605 284.6179)" class="st8" cx="199.3" cy="137.9" rx="9.2" ry="2.7"/>
<g>
	<path class="st3" d="M168.2,111.6c-2.6,0-5.3-0.5-7.8-1.4c-10.7-3.7-17.6-11.6-20.7-23.4c-0.6-2.3-0.9-4.8-0.9-7.2
		c0.1-7.5,2.5-13.6,7.2-18.1c4.3-4.1,9.2-6.2,14.7-6.2c2.5,0,5.2,0.5,7.8,1.4c11.2,3.8,18.3,11.9,21.2,24.3c1.5,6,0.8,12.3-1.8,17.9
		C184.1,106.8,176.7,111.6,168.2,111.6z"/>
	<path d="M177.1,142.2c-0.1,0-0.2,0-0.3,0c-3.1-0.4-4.1-6.3-3.4-11.6l0,0c0.4-2.8,1.1-5.5,2.2-7.4c1.2-2.1,2.6-3.2,4-3
		c3.1,0.4,4.1,6.3,3.4,11.6C182.3,136.9,180,142.2,177.1,142.2z M174.8,130.8c-0.7,5.4,0.6,9.7,2.1,9.9s3.8-3.7,4.5-9.1
		c0.7-5.4-0.6-9.7-2.1-9.9c-0.7-0.1-1.7,0.8-2.5,2.3C175.9,125.7,175.2,128.1,174.8,130.8L174.8,130.8z"/>
	<path d="M196.7,147.4c-0.2,0-0.3,0-0.5-0.1c-1.1-0.3-1.6-1.7-1.5-3.9c0-1.9,0.5-4.2,1.3-6.6c0.8-2.4,1.8-4.6,2.9-6.1
		c1.3-1.8,2.5-2.6,3.5-2.2c1.1,0.3,1.6,1.7,1.5,3.9c0,1.9-0.5,4.2-1.3,6.6c-0.8,2.4-1.8,4.6-2.9,6.1
		C198.7,146.6,197.6,147.4,196.7,147.4z M201.9,129.8c-0.2,0-0.8,0.3-1.8,1.7s-1.9,3.5-2.7,5.7l0,0c-0.7,2.3-1.2,4.5-1.2,6.2
		c0,1.9,0.4,2.4,0.5,2.4s0.8-0.1,1.8-1.7c1-1.4,1.9-3.5,2.7-5.7s1.2-4.5,1.2-6.2C202.4,130.4,202,129.9,201.9,129.8L201.9,129.8z"/>
	<path class="st5" d="M160.9,54.5c7.7,0.1,15,3.3,20.3,8.9c6.9,7.1,10.5,15.6,10,25.5s-4.8,17.5-14.1,21.6c-6.8,3-13.7,2.4-20.3-0.8
		c-12.7-6.1-20.2-19.5-18.8-33.5c1-10.2,7.8-18.5,17.1-20.9c1-0.3,1.9-0.5,2.9-0.6C159.1,54.6,160.1,54.5,160.9,54.5z M139.9,79.6
		c-0.1,2.3,0.2,4.6,0.8,6.9c2.9,10.9,9.2,18.8,20,22.6s21.4-0.8,26.2-10.8c2.6-5.3,3.2-11.4,1.7-17.2c-2.7-11.4-9.2-19.7-20.5-23.5
		c-7.9-2.7-15.3-1.3-21.4,4.6C141.8,67,139.9,73,139.9,79.6L139.9,79.6z"/>
	<g>
		<path d="M174.9,98.8c-6.1-5.7-12.1-11.5-18.2-17.2l-4.1-3.9c0-0.1-0.1-0.1-0.1-0.1c-0.4-0.3-1-0.3-1.3,0.1c0,0,0,0-0.1,0.1
			c-0.3,0.4-0.3,1.1,0.2,1.4c0.2,0.2,0.3,0.3,0.5,0.5l16.9,16c1.8,1.7,3.6,3.4,5.4,5.1c0.3,0.4,0.9,0.5,1.4,0.3
			c0.4-0.2,0.6-0.6,0.5-1C175.9,99.6,175.3,99.3,174.9,98.8z"/>
		<path d="M179,85.5l-17.6-17c-0.5-0.5-1.1-0.9-1.8-0.2c-0.6,0.7-0.2,1.2,0.4,1.7l11.3,10.8c2.2,2.1,4.3,4.2,6.5,6.2
			c0.3,0.4,0.9,0.6,1.4,0.4c0.4-0.1,0.6-0.5,0.6-0.9C179.7,86.1,179.3,85.8,179,85.5z"/>
		<path d="M167.5,85.8l3.6,3.5c0.3,0.4,0.9,0.5,1.3,0.3c0.3-0.1,0.6-0.5,0.5-0.9c0-0.4-0.2-0.8-0.6-1l-8.5-8.2
			c-0.5-0.5-1.1-0.9-1.7-0.3c-0.6,0.7-0.2,1.2,0.4,1.7L167.5,85.8z"/>
	</g>
	<path class="st9" d="M100.3,0c1.7,0.6,3.2,1.8,4.1,3.4c4.8,7.7,10,15,15.8,21.9c8.1,9.2,17,17.6,26.6,25.2c0.4,0.4,0.9,0.4,1.4,0.2
		c10.8-4.8,21-3.1,30.7,3.1c3.7,2.3,6.9,5.3,9.5,8.8c1.5,2,2.8,4.3,4.3,6.4c1.4,2.2,3.2,4.1,5.2,5.8c3.2,2.6,5.3,2.1,6.9-1.7
		c0.7-1.8,1-3.7,1.9-5.5c0.4-1.1,0.9-2.1,1.5-3c1.4-1.9,3.9-2.7,6.2-2c1.6,0.4,2.7,1.8,2.8,3.5c0.2,0.7,0.2,1.5,0,2.3
		c-1.1,3-0.3,6-0.1,9c0.3,6.9,0.1,13.9-0.7,20.8c-0.2,4.1-0.9,8.1-2,12c-0.3,1.1-0.5,2.3-0.4,3.5c0.2,3-0.5,5.7-3.3,7.3
		c-0.5,0.3-0.4,0.6-0.4,1c0.1,9.6-1.8,19-5.6,27.8c-0.3,0.7-0.1,0.9,0.5,1.1c3,1.5,5.7,3.6,7.8,6.2c4.2,5.3,4.6,11.2,2.7,17.4
		c-1.8,6.1-5.3,11.2-9.1,16.1c-2.1,2.6-4.3,5.1-6.6,7.6c-2,2.3-5.5,2.5-7.8,0.5c-0.3-0.3-0.6-0.6-0.9-1c-0.4-0.9-1.5-1.3-2.4-0.8
		h-0.1c-1.4,0.5-2.9,0.4-4.2-0.2c-0.4-0.3-1-0.1-1.3,0.3c-6.5,7-14.6,10.7-23.9,11.9c-13.2,1.8-26.7,0-39-5.3
		c-5.4-2.3-10.3-5.5-14.6-9.5c-9.9-9-21.1-15.5-34.1-18.9c-3.5-0.9-7-1.5-10.5-1.7c-2.9-0.1-5.2-2.5-5.1-5.5c0-1.1,0.4-2.2,1.1-3.1
		c3.3-4.4,8.1-7.5,13.5-8.7c2.7-0.6,5.5-1,8.3-1c-0.6-0.8-1.2-1.5-2-2.1c-9.5-8.8-20.8-14.5-33.1-18.3c-6.6-2-13.4-3.4-20.2-4.3
		c-3.1-0.4-5.3-3.2-4.9-6.3c0.3-2,1.5-3.7,3.4-4.5c7.5-3.3,15.3-5.6,23.3-7c1.5-0.2,3-0.4,4.5-0.4c-0.9-1.2-1.4-2.5-2.6-3.4
		c-8.8-6-15.4-13.9-21-22.9c-7-11.1-12-23.2-16.1-35.6C6,37.9,2.7,25.1,0.4,12.1c-0.1-0.4,0-1-0.4-1.3V9.4C0.4,9.3,0.3,9,0.3,8.7
		c0.8-3.2,4-5.2,7.2-4.4c1,0.2,1.8,0.7,2.6,1.3C10.5,6,11,6.3,11.4,6.7c9.3,7.5,19.6,13.5,30.3,18.9c18.4,9.3,37.6,16.9,57.1,23.6
		c0.2,0.1,0.4,0.3,0.7,0c-0.2-0.4-0.3-0.8-0.5-1.2c-6-13.1-8.3-26.7-5.4-41c0.4-1.8,0.6-3.6,1.8-5.1c0.7-0.8,1.7-1.1,2.5-1.8
		L100.3,0L100.3,0z M209.2,72.8c-0.7,1.7-1.5,3.3-2.5,4.9c-0.2,0.3-0.3,0.7-0.3,1.1c-0.3,3.3-0.6,6.6-0.8,9.9
		c-0.6,7.6-0.7,15.2-0.5,22.8c0,2.1,0.4,4.1,1.2,6.1c0.1,0.2,0.1,0.6,0.5,0.6c1.2-0.1,2.3-0.9,2.7-2c0.1-0.3,0.4-0.6-0.3-0.6
		c-1-0.1-1.5-0.9-1.8-1.7c-0.4-1.3-0.7-2.6-0.7-4c-0.8-12.3,0-24.7,2.5-36.8c0.3-1.5,0.9-2.9,1.5-4.2c0.3-0.7,0.9-1.2,1.7-1.4
		c0.4-0.1,0.7-0.1,0.6-0.6s-0.6-0.4-0.9-0.3c-0.7,0.2-1.2,0.7-1.4,1.4C210.1,69.4,209.8,71.2,209.2,72.8z M134.4,145
		c0,0.3,0,0.4,0,0.6c0,4.8,0,9.7,0,14.5c-0.1,1.1,0.7,2.1,1.8,2.3c0.3,0,0.7,0,1-0.1c3.2-0.7,5.4,0.1,7.3,2.7s4,5.6,5.9,8.4
		c0.7,1.3,2.3,1.9,3.7,1.4c2.9-0.8,5.9,0.4,7.4,3c1.4,2,2.7,4,4.1,5.9c0.6,1.2,2,1.7,3.3,1.2c0.9-0.2,1.8-0.4,2.7-0.6
		c2.8-0.8,5.8,0.3,7.6,2.6c1,1.2,1.9,2.5,2.9,3.7c1.1,1.5,2.9,1.9,4.5,2.6c0.3,0.1,0.7,0.1,1.1-0.1c3-1,4.9-0.4,6.7,2.1
		c0.9,1.2,1.7,1.3,2.8,0.2c2-2,3.8-4.1,5.6-6.3c3.9-4.8,7.4-9.8,9.2-15.7c1.6-5.1,1.3-10-2.4-14.3c-2.8-3.3-6.6-5.1-10.5-6.7
		c-3.6-1.3-7.4-2.2-11.2-2.4c-0.7-0.1-1.1-0.4-1.1-1.1s0.5-0.9,1.2-0.9c0.3,0,0.6,0,0.8,0.1c3.3,0.4,6.5,1.1,9.6,2
		c1.6,0.5,1.7,0.5,2.3-1c3.9-8.7,5.8-18.1,5.6-27.7c0-0.4,0.1-0.8-0.3-1.1c-1-1-1.7-2.3-1.9-3.8c-1.1-4.5-0.9-9.1-0.9-13.7
		c0.1-1.9-0.2-3.8-0.9-5.6c-0.7-1.6-1.5-1.8-2.9-1c-0.7,0.4-1.3,0.9-1.9,1.5c-2.6,2.5-4.3,5.5-6.3,8.4c-6.2,8.8-14.7,12.6-25.4,11.6
		c-7.3-0.7-13.5-3.8-19-8.6c-0.4-0.4-1.1-0.6-1.7-0.4c-8.5,1.7-17,3.2-25.6,4.4c-10.2,1.4-20.4,2.6-30.6,3.2
		c-10.8,0.6-21.6,0.8-32.3-0.5c-0.7-0.2-1.5,0-2,0.5c-0.3,0.3-0.8,0.4-1.2,0.4c-4.5-0.6-8.9,0.3-13.3,1.3
		c-5.5,1.4-10.9,3.2-16.2,5.4c-0.9,0.2-1.4,1-1.3,1.9c0.1,1,0.9,1.3,1.8,1.5c0.7,0.1,1.4,0.2,2,0.3c12.3,1.6,24.2,5.2,35.3,10.8
		c7.6,3.8,14.5,8.9,20.5,14.9c1.3,1.1,1.7,2.8,1.1,4.4c-0.6,1.5-1.9,2.3-3.8,2.3c-2.1,0-4.2,0.1-6.3,0.5c-5.1,0.9-9.5,3.1-12.7,7.3
		c-1,1.3-0.6,2.2,1,2.3c2.4,0.3,4.8,0.6,7.1,1c14.3,2.9,27.5,9.7,38.3,19.5c7.8,7.2,17.5,12.1,27.9,14.1c9.1,1.7,18.1,2.4,27.2,0.4
		c7.2-1.4,13.8-5.1,18.7-10.6c0.4-0.3,0.5-0.9,0.2-1.4c0-0.1-0.1-0.1-0.2-0.2c-1.1-1.4-2.2-2.8-3.3-4.1c-0.8-1-1.9-1.7-3.2-1.9
		c-1.7-0.4-3.2,0.3-4.8,0.7c-2.6,0.6-4.2,0-5.7-2.2c-1.4-2-2.7-4-4.1-6c-1-1.7-3.1-2.5-5-2c-2.3,0.7-4.9-0.3-6.1-2.4
		c-1.8-2.6-3.7-5.1-5.4-7.8c-1.4-2.2-3.2-3.1-5.9-2.4c-2,0.6-4.2-0.6-4.7-2.6c-0.1-0.4-0.2-0.9-0.1-1.3c0-5-0.2-10,0.1-15
		c0.1-1.9-0.8-2.1-1.9-2.7l-0.4-0.2c-1.5-0.7-3.2-1.1-4.8-1.2c-0.6,0-1.1-0.3-1.1-1s0.5-1,1.2-1c0.4,0,0.9,0.1,1.3,0.1
		c5,0.8,8.9,3.4,12.1,7.1c0.5,0.5,0.8,1.1,0.1,1.7s-1.2,0.2-1.7-0.4C136.5,146.7,135.5,145.8,134.4,145z M7.3,8.5
		c-0.2,0.4,0,0.6,0.1,0.9c4.3,9,9.7,17.4,16,25.2c11.4,13.9,24.9,25.8,40,35.4c10.8,7,22.2,12.9,34.2,17.6c0.6,0.3,1.4,0.3,2-0.1
		c1.8-0.9,3.6-1.7,5.4-2.6c9.4-4.7,18.7-9.7,27.2-15.9c1.7-1.1,3.1-2.7,3.8-4.6c0.2-0.7,0.4-1-0.5-1.1c-9.7-1.9-19.2-4.5-28.5-7.8
		c-2.4-0.9-5-0.8-7.4-1.6c-20.7-7.3-41.2-15.1-60.9-25.2c-10.2-5.1-19.9-11.1-28.9-18L7.3,8.5z M4.9,8.7C4,9.5,4.2,10.4,4.4,11.2
		c1.8,10,4.1,19.8,6.9,29.6c4.1,13.9,9.1,27.4,16.3,39.9c4.7,8.1,10.1,15.5,17.3,21.6c1.8,1.5,3.8,2.7,5.5,4.2
		c0.7,0.8,1.9,0.9,2.9,0.4c12.4-4.7,24.7-9.6,36.8-15c2-0.9,3.9-1.8,6-2.7c-14.7-5.9-28.6-13.5-41.5-22.8C40,55.9,27.1,43.7,16.7,29
		C12.2,22.6,8.2,15.8,4.9,8.7z M133.6,70.4c-0.1,0-0.3,0.1-0.4,0.2c-8,5.7-16.4,10.7-25.3,15c-17.5,8.6-35.4,16.3-53.7,23
		c-1.8,0.7-1.8,0.7-0.8,2.3c1.9,3,1.9,2.9,5.4,3.3c7.5,0.7,15.1,0.9,22.6,0.6c8.2-0.3,16.3-1,24.4-1.9c9.8-1.1,19.5-2.5,29.1-4.2
		c3-0.5,6-1.1,9-1.7C134.8,96.3,130.9,84.3,133.6,70.4z M98.3,5c-1.3,4.3-2,8.7-2,13.1c-0.2,11.2,2.8,21.6,8,31.5
		c0.5,0.8,0.9,1.6,1.2,2.5c0.1,0.7,0.5,0.9,1,1c7.3,2.5,14.6,4.7,22.1,6.4c2.7,0.6,5.5,1.2,8.2,1.8c1.1,0.3,1.1-0.7,1.5-1.2
		s-0.4-0.6-0.7-0.8c-5.2-2.8-10.1-6.1-14.5-9.8c-9.5-8-16.9-17.5-21.2-29.3C100,15.3,98.9,10.2,98.3,5z M194.4,88
		c0-2.9-0.3-5.7-1.1-8.5c-0.5-2-0.8-4.2-2.2-5.9c-1.7-2-3.2-4.2-4.6-6.4c-2.9-4.7-7-8.5-11.8-11.2c-8.6-4.8-17.5-5.7-26.5-0.8
		c-0.4,0.3-1,0.4-1.5,0.3c-0.5-0.1-1.1,0-1.4,0.4c-3.4,2.5-6,5.9-7.8,9.7c-3.1,6.6-3.8,14.1-2,21.2c3,12.5,10.2,21.9,22.2,26.9
		c9.9,4.1,19.5,3.2,27.7-4.2C191.9,103.9,194.2,96.4,194.4,88L194.4,88z M100.7,5.2c-0.2,0.3-0.2,0.6-0.1,0.9
		c0.5,4.8,1.6,9.5,3.4,14c6.8,17.3,19.3,29.3,35.3,38c0.5,0.3,0.8,0.1,1.1-0.3c1.1-1.3,2.3-2.4,3.7-3.4c0.5-0.4,0.5-0.6,0-1
		c-1-0.8-2-1.6-3-2.4c-14.6-12-27.4-25.5-37.5-41.5C102.6,8.1,101.6,6.7,100.7,5.2z M209.7,113.2c0.3-0.7-0.2-1.2-0.1-1.7
		s0.5-1.1,0.6-1.7c0.3-0.8,0.5-1.7,0.7-2.5c2-10.7,2.6-21.6,1.9-32.5c0.1-1.2-0.2-2.3-0.7-3.4C208.9,79.4,207.4,107.8,209.7,113.2
		L209.7,113.2z M203.4,95.1c0.2-5.1,0.5-10.2,0.9-15.4c-1.5,0.8-3.3,0.9-4.9,0.4c-1.6-0.6-3-1.3-4.4-2.3c0.8,3.1,1.3,6.3,1.4,9.5
		c0.1,3.2-0.3,6.4-1.1,9.6C198.7,93.8,200.6,92.9,203.4,95.1L203.4,95.1z"/>
	<path class="st10" d="M131.1,94.5c0,1.5-0.4,3-1.2,4.3c-1.7,3-5.5,4-8.4,2.3c-0.3-0.2-0.7-0.4-1-0.7c-3.5-3-4.4-8-2.2-12
		c1.7-3,5.5-4.1,8.5-2.4c0.7,0.4,1.3,0.9,1.8,1.5C130.3,89.5,131.2,92,131.1,94.5z M122.6,91.9c-0.1,2.7,1.3,5.2,3.6,6.6
		c0.5,0.4,1.2,0.3,1.6-0.1c0.1-0.1,0.1-0.2,0.2-0.3c1.5-2.3,1.5-5.3,0.1-7.6c-0.7-1.3-1.7-2.7-3.3-2.7
		C123.7,87.6,122.6,90,122.6,91.9z M122.3,87.6c-2.8,1.2-4,4.7-2.8,8.1c1,3,3.9,5,5.9,4C121.3,97.2,119.9,91.8,122.3,87.6z"/>
	<path class="st5" d="M109.2,100.9c0,1.3-0.3,2.6-1,3.8c-1.2,2.1-3.8,2.9-5.9,1.7c-0.3-0.2-0.6-0.4-0.9-0.7c-2.5-2.4-3.3-6-1.9-9.2
		c0.9-2.3,3.6-3.4,5.9-2.5c0.8,0.3,1.5,0.8,2,1.5C108.5,97,109.2,98.9,109.2,100.9z M102.9,95.9c-0.6,0-1,0.5-1.3,0.9
		c-1.7,2.2-0.8,6.4,1.5,7.8c0.6,0.5,1.4,0.5,2.1,0.2c-1.1-0.9-1.9-2.1-2.4-3.4c-0.4-1.8-0.3-3.6,0.3-5.3v-0.3L102.9,95.9z
		 M107.2,101c0.1-1.7-0.6-3.4-1.8-4.5c-0.2-0.2-0.5-0.7-0.7,0.1c-0.7,1.6-0.7,3.4,0,5c0.4,0.9,1.1,2.1,1.9,1.9
		S107.1,101.9,107.2,101L107.2,101z"/>
	<path class="st10" d="M93.2,105.2c0,2.8-1.4,4.9-3.5,5.3s-4.3-1.1-5.3-3.8c-0.7-1.7-0.6-3.6,0.1-5.3c0.8-2.1,3.1-3.1,5.2-2.3
		c0.6,0.2,1.1,0.6,1.5,1.1C92.5,101.4,93.2,103.3,93.2,105.2z M90.6,107.3c0.9-1.9,0.6-4.1-0.8-5.7c-0.5-0.5-0.7-0.5-0.9,0.2
		C88.2,103.8,88.9,106.1,90.6,107.3z M89.4,108.4c-1.1-0.9-1.8-2.1-2.1-3.5c-0.2-1.3-0.1-2.7,0.2-4c-1.6,1-2.1,2.8-1.4,4.8
		C86.7,107.6,87.8,108.5,89.4,108.4z"/>
	<path class="st10" d="M76.3,109.4c0.1,0.6,0,1.2-0.3,1.8c-0.5,1.8-2.4,2.8-4.2,2.3c-0.7-0.2-1.4-0.7-1.8-1.3
		c-1.2-1.4-1.5-3.3-1-5.1c0.3-1.4,1.4-2.4,2.8-2.6c1.3-0.2,2.7,0.4,3.4,1.6C76,106.9,76.4,108.1,76.3,109.4z M72.3,111.2v0.2h0.1
		L72.3,111.2c-0.5-1.4-0.6-3-0.5-4.6c-1.2,1.1-1.2,2.9-0.2,4.1C71.8,110.9,72,111,72.3,111.2L72.3,111.2z M72.9,106.5
		c-0.4,1.6-0.1,3.3,0.7,4.7c1.1-1.3,1-3.3-0.3-4.4C73.1,106.7,73,106.6,72.9,106.5L72.9,106.5z"/>
</g>
</svg>
