<svg xmlns="http://www.w3.org/2000/svg" id="Layer_1" data-name="Layer 1" viewBox="0 0 1883.2 1896.57"><defs><style>.cls-1{fill:#050505}.cls-2{fill:#9daea7}.cls-4{fill:#010101}.cls-5{fill:#ca4444}.cls-6{fill:#F6EEE3}.cls-7{fill:#f8ba45}.cls-8{fill:#c94343}.cls-9{fill:#84caee}</style></defs><path d="M1681.37 1409.16c11.07-1.45 16.67 6.52 23.63 11.33 10.31 7.13 21.13 13.4 31.6 20.24a111.78 111.78 0 0 1 11.58 8.46c5 4.29 4.31 9.8-1.35 13.21a2.71 2.71 0 0 0-1.22 1.36c-4.13 15.19-13.46 27.79-20.68 41.41-13.89 26.2-32.33 49.27-50.59 72.43a144.82 144.82 0 0 1-14.23 15.29c-10.46 9.94-22.78 9-37.09-1.45-16.66-12.18-34.08-23.33-49.76-36.84-1.63-1.4-2.76-.67-3.78.36-10.63 10.76-20.72 22.1-31.9 32.24-15.44 14-30.86 28.13-47.27 41.06-10.49 8.27-20.67 17-31.57 24.65-4.65 3.27-5.5 3.95-2 9.65 11.92 19.65 25.46 38.19 37.7 57.59 5.61 8.89 3.77 16.56-5.3 21.89-27.5 16.18-53.41 34.77-80.2 52-13.4 8.62-27.67 15.93-44.46 15.57-2 0-4.06 1.22-6.13 1.71-10.23 2.4-16.26-3-21.74-10.82-12.11-17.29-24.2-34.57-34.79-52.84-.77-1.33-1.37-2.84-3.36-1.83-13.58 6.88-27.89 12-42 17.62-14.85 5.89-29.91 11.14-45.15 15.9-10.33 3.22-20.51 7-31 9.57-4.37 1.07-2.79 3.39-2.56 5.33a547.51 547.51 0 0 1 3.65 56.8c.12 8-.59 16-.79 24-.11 4.14-2.39 6-6.18 6.38q-62.55 5.94-124.87 14a157.76 157.76 0 0 1-45.76-1.15c-9.61-1.58-17-8.26-18-19.29-1.76-17.6-4.85-35.08-4.91-52.84 0-3.6-2.52-2.39-4.18-2.35-20.67.51-41.33.36-62-.19-11.79-.31-23.66-.19-35.32-1.66-11-1.37-22-1.7-32.88-3.11s-21.92-3.6-33-5a84.48 84.48 0 0 1-11.9-2.4c-7.51-2.09-9.08-.72-10.2 6.93-2.11 14.46-4.31 28.92-8.23 43-1.81 6.54-4.3 12.9-5.84 19.49-3.25 14-16.63 19-28 17.85a423.42 423.42 0 0 1-62.1-11.78c-22.15-5.77-44.16-12-65.84-19.47-11-3.78-12.67-12.15-10.4-20.48 7.26-26.67 12.5-53.89 21.45-80.11 1-3-1.14-3.77-3.11-4.55-16.41-6.47-32.45-13.75-48.48-21.1-12.11-5.55-24-11.59-35.74-17.73-11-5.75-22-11.61-32.47-18.5-3.87-2.56-7.93-5.08-12-7.47-2.46-1.45-3.2-1.17-4.47 1.07-6.32 11.16-12.62 22.32-19.2 33.32a380.64 380.64 0 0 1-26.14 38.32c-6 7.76-21.05 8.53-31.16 1.39-9.35-6.6-19.29-12.2-29-18.23-28.41-17.67-55.87-36.73-82.66-56.78-3.39-2.53-4.09-5.4-3.38-9.8 1.76-10.93 9-18.67 14.66-27.28a744.12 744.12 0 0 1 45.47-61.28c1.47-1.79 1.53-2.28-.31-4-8.36-7.64-16.63-15.4-24.55-23.49-8.45-8.64-16.58-17.6-24.67-26.59-10.29-11.43-20.83-22.67-30.41-34.68-5.64-7.08-11.76-13.88-16.58-21.56-2.18-3.46-3.62-3.79-6.72-1.24-14.05 11.57-30.14 20.28-44.5 31.42a207.52 207.52 0 0 1-22.85 15.61c-2.12 1.23-4.06.39-6.16.32-13.12-.44-18.24-11.24-24.3-19.69-15.74-22-33.19-42.54-49.49-64-11.75-15.5-23-31.34-32.08-48.58-2.53-4.79-4.3-10-6.5-14.95-1.14-2.58.67-4 2.07-5.45 6.63-6.89 14.88-11.63 23-16.35q30.62-17.77 59.51-38.19c7.93-5.61 7-5.24 3.63-14.35-2.85-7.7-6.49-15.06-9.12-22.84-2.88-8.53-7-16.62-10.08-25.09-1.85-5.14-3.66-10.3-5.49-15.45-2.67-7.52-5.62-15.05-7.52-22.74-2.07-8.36-6-16.17-6.84-24.87-.68-7.1-4-13.46-6.33-20.09-.77-2.15-1.48-2.58-3.76-2-20.82 5.65-41.77 10.84-62.48 16.85-5.57 1.62-11.16 2.78-16.78 4-7.43 1.66-13.07-1.5-14.33-8.75-3.86-22.23-7.48-44.51-11.12-66.78-2.65-16.24-5.34-32.49-7.71-48.78a234.52 234.52 0 0 1-2.3-23.53c-.36-8.39 2.55-12.43 10.36-15.49 25.1-9.84 51.08-16.86 77.07-23.8 4-1.07 5.37-2.46 5.23-6.77-.88-26.49-.84-53-.08-79.48.57-19.87 2.86-39.58 5.71-59.24a102.1 102.1 0 0 0 .55-10.94c.1-2.77-.48-5.64 2.1-8.07-18.3-3-35.93-5.94-53.55-8.91-11.93-2-23.84-4.17-35.77-6.17-5.1-.86-8.29-5.12-7.62-10.54 2-16 3.88-32 5.9-48.08 2.29-18.19 5-36.31 8.48-54.32 2.77-14.6 5.31-29.19 8.68-43.6C30 660.43 34 648.1 37.47 635.67a18.31 18.31 0 0 0 .79-2.85c.9-8.31 2.44-9.71 11.09-9 10.17.86 19.86 4.18 29.8 6.21 22.66 4.62 44.51 12.14 66.53 19 3.67 1.14 4.83 1.19 6.57-3.17 5.94-15 12.29-29.78 19.17-44.38 6.12-13 12.29-25.93 19.37-38.42.81-1.43 1.93-2.67 2.88-4 6.4-9.2 15.56-16.9 15.8-29.46.06-3 4.35-5.1 3.18-7.84-1.11-2.58-5.26-.92-7.55-2.36a204 204 0 0 1-17.55-11.75c-12.43-9.73-25.81-18.08-38.62-27.24-7.75-5.54-15.86-10.59-23.6-16.16-9.23-6.66-9-13.54-4.94-23.39 7.06-17.29 18.61-31.76 29.61-46.58 13.37-18 26.46-36.29 39.84-54.33 3.14-4.23 6.46-8.29 8.62-13.16 3.12-7 9.34-10.36 16-12.84 4.41-1.64 8.49.27 12.33 2.45q30 17.07 58.77 36.28 17.28 11.61 34.4 23.47c2.68 1.86 4.07-.06 5.32-1.46 7.52-8.45 15.54-16.39 23.68-24.22 7.89-7.57 16.24-14.69 23.77-22.59 4.67-4.89 10.06-8.12 16-10.94a12.72 12.72 0 0 0 4.41-4c7.53-10.05 17.36-17.57 27.23-25.06 2.3-1.74 2.58-3.13.69-5.92-13.3-19.71-26.29-39.62-39.38-59.47-2.79-4.22-7.14-7.11-8.85-12.37-2.35-7.2-1.21-12.35 4.27-17.51 31.11-29.35 67.47-51.38 103.08-74.47 6.8-4.42 13.81-8.49 20.7-12.78 5.67-3.52 12.07-4.63 18.48-5.13 7-.55 10.07 4.9 13 9.91 14.67 24.81 28.82 49.92 41.71 75.7 2.09 4.17 3.72 4.46 7.78 2.29 9.39-5 19.25-9.06 29-13.28 8.94-3.85 18-7.41 27.06-10.93s18.47-6.7 27.55-10.43c15.22-6.25 31.84-8.1 46.83-15.14 2.9-1.36 7.86.06 9.15-3 1.06-2.5-.87-6.31-1.57-9.51-4.06-18.51-8.46-36.95-12.09-55.54-1.79-9.17-2.16-18.63-3.18-28-.34-3.15 2-4 4.2-5.35 35.81-21.84 76.9-24.35 116.58-32 20.5-3.95 41.38-3.08 62-5 4.87-.45 9.55 3.64 10.88 9.13 4.76 19.58 7.11 39.56 10 59.45 1.81 12.49 4.17 24.94 4.49 38 49.41-.44 98.9-.39 148.69 3.63 2.9-12.91 6-27.24 9.36-41.49 2.35-9.95 4.76-19.91 7.74-29.68 3.25-10.7 7.27-13.12 18.42-11.84 5.45.62 10.84 1.79 16.22 2.87 43.25 8.67 85.56 20.9 127.65 34 4.44 1.39 7.69 4.47 11.33 6.86 2.36 1.54 1.34 5.56 1.48 8.52.6 12.58-1.84 24.84-4 37.13s-4.45 24.84-6.81 37.24c-.38 2-.55 2.9 2 3.77 8.4 2.9 16.68 6.2 24.88 9.62 10.72 4.48 21.38 9.08 32 13.89 13 5.91 25.89 11.91 38.67 18.22a274.91 274.91 0 0 1 25.2 13.85c4.06 2.56 5.86 1.93 7.93-1.86 9-16.43 18.09-32.76 27-49.21 3.42-6.32 13-9.93 21-7.32 10.85 3.52 20.15 10.09 29.75 15.94q43.23 26.31 86.17 53.12c9.39 5.86 18.5 12.2 27.49 18.68 3.07 2.21 4.49 5 2.5 9.69-11 26.09-23.52 51.41-36.15 76.7-1.19 2.38-.79 4.08 1 5.59 4.41 3.68 8 8.13 12.42 11.88 11.89 10.17 22.14 22 33 33.28 13.13 13.62 24.78 28.49 37.6 42.36 7 7.6 12.69 16.48 18.7 25 2.78 3.92 4.6 5.31 9.48 1.85 12.43-8.83 26.14-15.67 39.36-23.27a78.79 78.79 0 0 1 19-8.2c7.59-2.05 13.66.92 19 5.87a444.07 444.07 0 0 1 54.17 59.23c12.38 16.44 24.66 32.94 35.18 50.7 2.75 4.63 3.76 9.57 4.46 14.42.64 4.48-.83 9.74-5.92 11.65-14.11 5.3-25.64 15-38.76 22-12.85 6.83-25.36 14.27-38 21.42-2 1.12-3.89 2.13-2.38 4.92 6.52 12.11 9.63 25.67 15.87 37.86 6.6 12.88 10.76 26.64 15.51 40.18 6.26 17.86 11.62 36 16.47 54.33a41.44 41.44 0 0 1 1.71 8.08c18.58-4.24 36.7-8.35 54.81-12.51 4.34-1 8.78-1.22 13.15-2.18 5.69-1.25 10.86 2.69 12.31 8.27a638.72 638.72 0 0 1 17.09 98.62c1.57 15.87 3.3 31.73 4.65 47.62.55 6.54.89 13.34-6.1 17.45a4.67 4.67 0 0 1-2.71 1c-18.8-.83-37 4.23-55.46 6.07-1.66.17-3.35.76-4.95.57-6.25-.77-7.93 2.34-6.53 7.7 1.85 7.13.28 14.23.38 21.34.34 22 0 44-.57 66-.38 14.11-.8 28.28-2.46 42.27-1.08 9.13-1.74 18.31-3.09 27.35-1.16 7.84-2.53 15.76-4.28 23.55-.72 3.17-.06 4.63 3.32 5.68a273.88 273.88 0 0 1 69.15 32.6c4.66 3.07 8.43 7.49 12.71 11.18 2.42 2.08 2.89 4.64 2.58 7.59a303.12 303.12 0 0 1-16.52 70.27c-8.81 24.63-18.48 48.95-26.94 73.69-2.8 8.19-8.28 10.88-15.47 12.47-9 2-17-1.67-25-4.86a472.37 472.37 0 0 1-51-23.4c-3.47-1.89-4.06-1.19-5.52 2.51-4.92 12.46-10.57 24.63-16.17 36.8-7.78 16.9-16.16 33.48-25.28 49.71-6.24 10.93-12.47 21.88-19.87 33.79ZM1549.47 249.8c-18-11.26-35.88-22.36-53.67-33.67-22.4-14.24-44.71-28.66-67-43-10.68-6.85-10.4-6.7-16.7 4.37-12.31 21.62-22.9 44.22-36.82 64.94-1.76 2.62-3.25 3.36-6 1.91-2.56-1.34-5.53-2.37-7.7-3.92-9.62-6.86-20.55-11.22-30.73-17-8.14-4.62-17-8-25.4-12.2q-16-8-32.4-14.85c-14.52-6.11-29.31-11.59-44-17.3-2.41-.93-4-2.45-4-5.1.47-13.77-.7-27.61 1.58-41.31 2.36-14.23 4.88-28.42 7.12-42.66 2-12.87 1.91-12.89-10.47-16.37-.48-.14-1-.2-1.46-.33q-57.23-15.06-114.43-30.15c-10.34-2.74-10.25-2.85-12.25 7.52-5.56 28.79-14.36 56.69-23.32 84.55-1 3.12-3.1 4.95-6.4 3.85-5.19-1.72-10.65-1.28-16-2.29-16.65-3.18-33.75-3-50.61-5.09-9.51-1.17-19.23-.91-28.85-1.29a596.57 596.57 0 0 0-62.86 1.08c-4.54.3-6.51-1.29-7.53-5.65-1.84-7.93-3.95-15.78-5.24-23.85-2.49-15.68-7.14-30.93-8.72-46.85-1.16-11.66-3.85-23.18-5.81-34.77-.49-2.91-1.57-4.27-5-3.64-4.56.86-9.26 1-13.9 1.43-45.79 3.93-90.47 13.76-134.83 25.31-3.49.91-4 2.42-3.26 5.61 1.32 5.67 2.28 11.43 3.35 17.15 5.27 28.24 12.61 56 19.09 84 1 4.4.76 7.24-4.68 7.14a11.91 11.91 0 0 0-3.39.7c-11.4 3.38-22.81 6.73-34.18 10.2-8.67 2.65-17.36 5.25-25.9 8.27-8.38 3-16.44 6.85-24.88 9.56-13.23 4.26-25.81 10-38.5 15.55-9.48 4.13-18.6 9.1-28 13.36a8.12 8.12 0 0 1-8.66-.83c-11.55-7.89-18.23-19.87-25.18-31-13.2-21.24-24.52-43.65-36.56-65.48a3.65 3.65 0 0 0-.81.15c-42.16 25.44-84.6 50.47-121.41 83.67-1.81 1.63-1.17 2.79-.2 4.22q10.9 16.08 21.82 32.17c11 16.22 22.56 32.12 27.88 51.44.65 2.36 1.27 4.36-.53 6.51A221 221 0 0 1 415.69 323c-13.25 11.24-28.64 20-39.43 34.14-1.57 2.05-3.95 3.52-6 5.16-10.82 8.5-21.7 16.93-32.49 25.48-5.15 4.08-10.37 6.34-16.86 2.88-2.74-1.46-5-4-7.51-5.05a138.19 138.19 0 0 1-29.1-16.38c-19.9-14.49-41.38-26.58-61.48-40.75-2.79-2-4-1.18-5.73 1.36q-7.11 10.44-13.94 21.05c-13.75 21.4-29.46 41.43-44.58 61.88-8.17 11.06-15.85 22.4-21 35.24-1.31 3.25-1.17 5.52 2.12 7.51 26.46 16 50.63 35.26 76.1 52.67 6.08 4.15 12.7 7.63 17.63 13.33 3 3.47 5.29 7.74 3.21 11.87-5.14 10.19-11 20-16.75 29.9-6.93 11.85-13 24.16-18.84 36.54-5.3 11.17-11 22.2-15.65 33.64-3.23 8-7.64 15.47-9.42 24.06-1.08 5.21-8.74 11.13-14.16 10.72-10.71-.8-21.54-1.15-31.89-4.52-23.58-7.65-47.16-15.31-70.67-23.15-3.13-1-4.33-.65-5.25 2.62-3.62 13-6.92 26.05-9.47 39.29-8 41.37-14.81 82.9-19.15 124.83-1.06 10.15-1.32 10.12 8.52 10.89.83.06 1.65.24 2.47.35 22.25 2.87 44.56 5.35 66.58 9.77 6.65 1.33 13.67.49 20 3.64 2.72 1.36 4.4 2.54 3.71 6.37-.93 5.17-1.5 10.43-2.22 15.66-2 14.27-2.9 28.7-4.89 43-2.69 19.37-.1 39-3.21 58.35-2.28 14.24 2.92 28.49 1.91 42.91a107 107 0 0 0 .24 17c.29 3.27-1.4 4.57-3.7 4.74-9.25.7-17.31 5.39-26.27 7.38a570.12 570.12 0 0 0-66.24 18.87c-3.13 1.11-3.84 2.21-3.4 5.15 2 13.16 3.67 26.35 5.78 39.48 4.51 28.1 9.23 56.16 13.83 84.24.36 2.15.41 4 3.56 2.67 10.16-4.25 21-6.44 31.46-9.73a343.09 343.09 0 0 1 59.33-13.09c3-.39 6.39-1.79 7.66 3.5 2.82 11.74 6.6 23.24 9.57 34.95 4.11 16.18 9.84 31.83 15.33 47.54 3.21 9.18 6.78 18.3 10.33 27.38 4 10.21 8.39 20.21 12.73 30.26 2.83 6.55 7.08 13 7.79 19.78.41 3.9-7.2 5.46-10.85 8.54a358.06 358.06 0 0 1-45.41 32.23c-13.84 8.41-27.82 16.61-41.85 25a512.53 512.53 0 0 0 33.32 49.85c18.36 24.19 38.11 47.32 55.71 72.1 1.67 2.36 2.93 2.55 5.08.8a402.3 402.3 0 0 1 35.13-25.11c14-9.1 27.45-18.93 40.66-29.1 5.12-3.94 8.07-1.6 10.76 2.45 10.51 15.79 22.73 30.23 34.95 44.69 10 11.88 20.59 23.29 31.18 34.68a595.1 595.1 0 0 0 47.28 45.88c2.36 2 3.57 4 1.69 7.21-4.17 7.16-7.58 14.78-12 21.73-16 24.9-34.67 47.85-52.46 71.43-1.83 2.43-1.68 3.16.87 4.74 11.25 7 22.58 13.83 33.42 21.39 21.59 15.05 44.13 28.57 66.17 42.89 3.21 2.08 4.71 1.22 6.61-1.57 13.32-19.62 25.2-40.13 37.23-60.54 5.43-9.21 11.17-18 19.8-24.69 2-1.53 3.84-2.17 5.74-.77a161.2 161.2 0 0 0 15.2 9.6c6.17 3.57 12 7.7 18.27 11.15 10.6 5.86 21.68 10.91 32 17.19 7.15 4.34 14.67 7.8 22.1 11.43 13 6.33 26.25 12.12 39.51 17.87 9.39 4.07 18.85 8 28.51 11.37 3.5 1.21 4 2.79 3.29 5.67q-2.29 9.43-4.71 18.84-9.93 38.87-19.91 77.72c-.76 2.93-.09 4.32 2.93 4.92 3.58.72 7.1 1.73 10.62 2.71 33.28 9.32 66.58 18.51 100.72 24.25 4.29.72 6.5-.27 8-4.62 5.84-17.22 9.16-35 12.26-52.83 2.08-12 1.92-24.39 7.43-35.67 1.35-2.78 1.92-4.93 6.22-4.07 3.18.64 6.28 1.68 9.48 2.2 11.47 1.87 22.92 3.82 34.4 5.53 3.93.58 8.25-.34 11.86.93 10.11 3.54 20.78 2.16 31 4.34 5.88 1.25 12.3.74 18.25 1.64 20.18 3.07 40.62.26 60.77 3.54 6.69 1.09 13.6-.45 20.47-1.49 8.8-1.32 18-.29 26.94-.54 3.65-.1 5.15 1.5 5.55 4.83 1 8.41 2.19 16.79 3.13 25.21q2.82 25.3 5.4 50.65c.25 2.53 1.09 3.41 3.62 3.45a85.11 85.11 0 0 0 18.35-1.55 670.64 670.64 0 0 1 70.64-10.39c17.14-1.66 34.27-3.52 51.42-5.15 4.33-.41 6.63-1.84 6-6.73-.49-3.58-.65-7.25-.86-10.85-1.36-23.23-2.34-46.49-3.48-69.74-.12-2.59.41-4.22 3.4-5q16.05-4.44 31.92-9.5c6.76-2.16 13.53-4.71 20.26-6.51 10.11-2.71 19.45-7.28 29.41-10.24 8-2.39 15.58-6.32 23.5-9.14a310.94 310.94 0 0 0 34.84-15.26c7-3.52 6.62-3.85 11.86 2.47a116 116 0 0 1 12.68 19.63c2.65 4.94 6.44 9.25 9.66 13.88 8.42 12.1 16.7 24.31 25.33 36.27 1.21 1.68 1.76 5.24 5.82 3.87 13.5-4.58 25.3-12.15 36.84-20.23 12.56-8.8 25-17.84 37.65-26.43 9.57-6.49 19.51-12.44 29.27-18.64 2.68-1.69 3.49-3.32 1.18-6.36-5.7-7.47-11-15.23-16.39-23-10.84-15.63-17-33.61-25.33-50.53-1.39-2.83.19-4.36 2.45-6 9.9-7.28 19.85-14.47 29.56-22 21.87-17 43-34.75 63.12-53.84 13.56-12.89 26.56-26.34 39.35-40 2.59-2.77 4.28-3.11 7.33-.73 6.53 5.09 13.16 10.13 20.15 14.56 18.16 11.5 36.24 23.13 53.65 35.74 3.13 2.26 4.29 1.58 6.12-.89 18.84-25.44 39.41-49.66 54.64-77.64q10.88-20 21.79-40c-23.16-12.89-44.86-26.81-63.2-45.48-5.92-6-6.48-7.51-2.42-14.71 3-5.34 5.79-10.82 8.86-16.13a778.52 778.52 0 0 0 37.55-72.68c7.18-16.07 14.38-32.08 20.58-48.54 1.39-3.69 2.87-6.47 8.13-4 6.72 3.11 13.43 6 20 9.56 19.42 10.48 39.74 19.18 60.36 27.15 2.94 1.14 3.66.25 4.42-2.29 1.48-4.94 3.25-9.79 4.89-14.68 8.15-24.45 17.53-48.46 25.31-73 4.37-13.82 5.79-28.31 10.48-42 .82-2.39-.94-2.52-2.07-3.17-17.29-9.87-34.68-19.49-53.25-26.87-10.82-4.3-22.58-6.63-31.75-14.63-2.54-2.21-6.06-4.1-4.47-7.94 3-7.31 2.81-15.18 4.19-22.71 2.21-12.07 3.17-24.39 5.14-36.56s.92-24.34 2.92-36.49c1.45-8.76.92-17.89 1.29-26.84 1-24.12 0-48.25-1-72.37-.06-1.53-.83-2.8-1.2-4.14-.82-3-2.07-7.74 2.69-7.87 7.42-.2 14.37-2.63 21.65-3.18 17.93-1.35 35.81-3.15 53.57-6 1.78-.28 3.64-.06 3.3-3-.84-7.24-1.13-14.55-2.08-21.78-3.19-24.3-5.59-48.69-9.65-72.89-2.52-15-5.83-29.85-8.58-44.73-10.5 2.21-20.8 3.62-30.63 6.6-16.34 5-34.53 3.4-49.23 14.05-1.68 1.22-2.55.15-2.52-1.5.11-6-2.31-11.54-3.79-17.13-3.59-13.61-7.8-27.07-12-40.53q-7.79-25.2-17.22-49.76c-7.35-19.18-15.12-38.28-24.77-56.5-1.39-2.61-2-5 1.59-7.49 11.09-7.76 23.43-13.22 35.1-19.89 17.82-10.16 35.48-20.61 53.28-30.81 3-1.7 3.38-3 1.49-6.06-9.47-15.57-20.78-29.82-31.21-44.69-15.66-22.35-35.19-41.08-53.08-61.35-1.15-1.29-2.06-2.21-4.13-1-6.83 4.1-13.74 8.1-20.8 11.79-12.28 6.41-23.42 14.78-37.36 18.33-6.87 1.74-14.7 3.45-20.09 9.33-1.12 1.22-2.11 1.18-3.14-.42-5.33-8.33-11.93-15.72-17.76-23.67-12.57-17.16-26.65-33.08-41-48.65-17.78-19.29-36.11-38.14-56-55.27-3.71-3.19-4.07-6.19-1.59-9.91 4-6.08 7-12.81 10.2-19.28 10.9-22.32 21.46-44.67 33.75-66.52Z" class="cls-1"/><path d="M1549.47 249.8c-12.29 21.85-22.85 44.19-33.82 66.34-3.21 6.47-6.15 13.2-10.2 19.28-2.48 3.72-2.12 6.72 1.59 9.91 19.94 17.13 38.27 36 56 55.27 14.35 15.57 28.43 31.49 41 48.65 5.83 7.95 12.43 15.34 17.76 23.67 1 1.6 2 1.64 3.14.42 5.39-5.88 13.22-7.59 20.09-9.33 13.94-3.55 25.08-11.92 37.36-18.33 7.06-3.69 14-7.69 20.8-11.79 2.07-1.24 3-.32 4.13 1 17.89 20.27 37.42 39 53.08 61.35 10.43 14.87 21.74 29.12 31.21 44.69 1.89 3.11 1.47 4.36-1.49 6.06-17.8 10.2-35.46 20.65-53.28 30.81-11.67 6.67-24 12.13-35.1 19.89-3.56 2.49-3 4.88-1.59 7.49 9.65 18.22 17.42 37.32 24.77 56.5q9.4 24.54 17.22 49.76c4.17 13.46 8.38 26.92 12 40.53 1.48 5.59 3.9 11.12 3.79 17.13 0 1.65.84 2.72 2.52 1.5 14.7-10.65 32.89-9.09 49.23-14.05 9.83-3 20.13-4.39 30.63-6.6 2.75 14.88 6.06 29.71 8.58 44.73 4.06 24.2 6.46 48.59 9.65 72.89 1 7.23 1.24 14.54 2.08 21.78.34 3-1.52 2.74-3.3 3-17.76 2.88-35.64 4.68-53.57 6-7.28.55-14.23 3-21.65 3.18-4.76.13-3.51 4.83-2.69 7.87.37 1.34 1.14 2.61 1.2 4.14 1 24.12 2 48.25 1 72.37-.37 9 .16 18.08-1.29 26.84-2 12.15-1 24.44-2.92 36.49s-2.93 24.49-5.14 36.56c-1.38 7.53-1.17 15.4-4.19 22.71-1.59 3.84 1.93 5.73 4.47 7.94 9.17 8 20.93 10.33 31.75 14.63 18.57 7.38 36 17 53.25 26.87 1.13.65 2.89.78 2.07 3.17-4.69 13.68-6.11 28.17-10.48 42-7.78 24.58-17.16 48.59-25.31 73-1.64 4.89-3.41 9.74-4.89 14.68-.76 2.54-1.48 3.43-4.42 2.29-20.62-8-40.94-16.67-60.36-27.15-6.59-3.55-13.3-6.45-20-9.56-5.26-2.44-6.74.34-8.13 4-6.2 16.46-13.4 32.47-20.58 48.54a778.52 778.52 0 0 1-37.55 72.68c-3.07 5.31-5.84 10.79-8.86 16.13-4.06 7.2-3.5 8.69 2.42 14.71 18.34 18.67 40 32.59 63.2 45.48q-10.92 20.07-21.79 40c-15.23 28-35.8 52.2-54.64 77.64-1.83 2.47-3 3.15-6.12.89-17.41-12.61-35.49-24.24-53.65-35.74-7-4.43-13.62-9.47-20.15-14.56-3-2.38-4.74-2-7.33.73-12.79 13.64-25.79 27.09-39.35 40-20.08 19.09-41.25 36.83-63.12 53.84-9.71 7.55-19.66 14.74-29.56 22-2.26 1.65-3.84 3.18-2.45 6 8.3 16.92 14.49 34.9 25.33 50.53 5.35 7.73 10.69 15.49 16.39 23 2.31 3 1.5 4.67-1.18 6.36-9.76 6.2-19.7 12.15-29.27 18.64-12.69 8.59-25.09 17.63-37.65 26.43-11.54 8.08-23.34 15.65-36.84 20.23-4.06 1.37-4.61-2.19-5.82-3.87-8.63-12-16.91-24.17-25.33-36.27-3.22-4.63-7-8.94-9.66-13.88a116 116 0 0 0-12.68-19.63c-5.24-6.32-4.83-6-11.86-2.47a310.94 310.94 0 0 1-34.84 15.26c-7.92 2.82-15.47 6.75-23.5 9.14-10 3-19.3 7.53-29.41 10.24-6.73 1.8-13.5 4.35-20.26 6.51q-15.86 5.09-31.92 9.5c-3 .83-3.52 2.46-3.4 5 1.14 23.25 2.12 46.51 3.48 69.74.21 3.6.37 7.27.86 10.85.67 4.89-1.63 6.32-6 6.73-17.15 1.63-34.28 3.49-51.42 5.15a670.64 670.64 0 0 0-70.64 10.39 85.11 85.11 0 0 1-18.35 1.55c-2.53 0-3.37-.92-3.62-3.45q-2.55-25.33-5.4-50.65c-.94-8.42-2.11-16.8-3.13-25.21-.4-3.33-1.9-4.93-5.55-4.83-9 .25-18.14-.78-26.94.54-6.87 1-13.78 2.58-20.47 1.49-20.15-3.28-40.59-.47-60.77-3.54-6-.9-12.37-.39-18.25-1.64-10.26-2.18-20.93-.8-31-4.34-3.61-1.27-7.93-.35-11.86-.93-11.48-1.71-22.93-3.66-34.4-5.53-3.2-.52-6.3-1.56-9.48-2.2-4.3-.86-4.87 1.29-6.22 4.07-5.51 11.28-5.35 23.71-7.43 35.67-3.1 17.85-6.42 35.61-12.26 52.83-1.48 4.35-3.69 5.34-8 4.62-34.14-5.74-67.44-14.93-100.72-24.25-3.52-1-7-2-10.62-2.71-3-.6-3.69-2-2.93-4.92q10.05-38.83 19.91-77.72 2.4-9.42 4.71-18.84c.69-2.88.21-4.46-3.29-5.67-9.66-3.34-19.12-7.3-28.51-11.37-13.26-5.75-26.52-11.54-39.51-17.87-7.43-3.63-14.95-7.09-22.1-11.43-10.33-6.28-21.41-11.33-32-17.19-6.24-3.45-12.1-7.58-18.27-11.15a161.2 161.2 0 0 1-15.2-9.6c-1.9-1.4-3.77-.76-5.74.77-8.63 6.65-14.37 15.48-19.8 24.69-12 20.41-23.91 40.92-37.23 60.54-1.9 2.79-3.4 3.65-6.61 1.57-22-14.32-44.58-27.84-66.17-42.89-10.84-7.56-22.17-14.44-33.42-21.39-2.55-1.58-2.7-2.31-.87-4.74 17.79-23.58 36.47-46.53 52.46-71.43 4.47-7 7.88-14.57 12-21.73 1.88-3.24.67-5.18-1.69-7.21a595.1 595.1 0 0 1-47.28-45.88c-10.59-11.39-21.15-22.8-31.18-34.68-12.22-14.46-24.44-28.9-34.95-44.69-2.69-4-5.64-6.39-10.76-2.45-13.21 10.17-26.68 20-40.66 29.1a402.3 402.3 0 0 0-35.13 25.11c-2.15 1.75-3.41 1.56-5.08-.8-17.6-24.78-37.35-47.91-55.71-72.1a512.53 512.53 0 0 1-33.37-49.92c14-8.36 28-16.56 41.85-25a358.06 358.06 0 0 0 45.41-32.23c3.65-3.08 11.26-4.64 10.85-8.54-.71-6.79-5-13.23-7.79-19.78-4.34-10-8.73-20-12.73-30.26-3.55-9.08-7.12-18.2-10.33-27.38-5.49-15.71-11.22-31.36-15.33-47.54-3-11.71-6.75-23.21-9.57-34.95-1.27-5.29-4.62-3.89-7.66-3.5A343.09 343.09 0 0 0 73.46 1168c-10.47 3.29-21.3 5.48-31.46 9.73-3.15 1.32-3.2-.52-3.56-2.67-4.6-28.08-9.32-56.14-13.83-84.24-2.11-13.13-3.8-26.32-5.78-39.48-.44-2.94.27-4 3.4-5.15a570.12 570.12 0 0 1 66.24-18.87c9-2 17-6.68 26.27-7.38 2.3-.17 4-1.47 3.7-4.74a107 107 0 0 1-.24-17c1-14.42-4.19-28.67-1.91-42.91 3.11-19.39.52-39 3.21-58.35 2-14.27 2.92-28.7 4.89-43 .72-5.23 1.29-10.49 2.22-15.66.69-3.83-1-5-3.71-6.37-6.35-3.15-13.37-2.31-20-3.64-22-4.42-44.33-6.9-66.58-9.77-.82-.11-1.64-.29-2.47-.35-9.84-.77-9.58-.74-8.52-10.89 4.34-41.93 11.2-83.46 19.15-124.83 2.55-13.24 5.85-26.3 9.47-39.29.92-3.27 2.12-3.67 5.25-2.62 23.51 7.84 47.09 15.5 70.67 23.15 10.35 3.37 21.18 3.72 31.89 4.52 5.42.41 13.08-5.51 14.16-10.72 1.78-8.59 6.19-16.1 9.42-24.06C190 622 195.67 611 201 599.81c5.88-12.38 11.91-24.69 18.84-36.54 5.78-9.86 11.61-19.71 16.75-29.9 2.08-4.13-.2-8.4-3.21-11.87-4.93-5.7-11.55-9.18-17.63-13.33-25.47-17.41-49.64-36.71-76.1-52.67-3.29-2-3.43-4.26-2.12-7.51 5.19-12.84 12.87-24.18 21-35.24 15.12-20.45 30.83-40.48 44.58-61.88q6.84-10.64 13.94-21.05c1.73-2.54 2.94-3.33 5.73-1.36 20.1 14.17 41.58 26.26 61.48 40.75a138.19 138.19 0 0 0 29.1 16.38c2.54 1 4.77 3.59 7.51 5.05 6.49 3.46 11.71 1.2 16.86-2.88 10.79-8.55 21.67-17 32.49-25.48 2.08-1.64 4.46-3.11 6-5.16 10.79-14.13 26.18-22.9 39.43-34.14A221 221 0 0 0 442 295.81c1.8-2.15 1.18-4.15.53-6.51-5.32-19.32-16.88-35.22-27.88-51.44q-10.9-16.1-21.82-32.17c-1-1.43-1.61-2.59.2-4.22 36.81-33.2 79.25-58.23 121.41-83.67a3.65 3.65 0 0 1 .81-.15c12 21.83 23.36 44.24 36.56 65.48 6.95 11.16 13.63 23.14 25.18 31a8.12 8.12 0 0 0 8.66.83c9.44-4.26 18.56-9.23 28-13.36 12.69-5.52 25.27-11.29 38.5-15.55 8.44-2.71 16.5-6.6 24.88-9.56 8.54-3 17.23-5.62 25.9-8.27 11.37-3.47 22.78-6.82 34.18-10.2a11.91 11.91 0 0 1 3.39-.7c5.44.1 5.69-2.74 4.68-7.14-6.48-28-13.82-55.73-19.09-84-1.07-5.72-2-11.48-3.35-17.15-.75-3.19-.23-4.7 3.26-5.61 44.36-11.55 89-21.38 134.83-25.31 4.64-.4 9.34-.57 13.9-1.43 3.41-.63 4.49.73 5 3.64 2 11.59 4.65 23.11 5.81 34.77 1.58 15.92 6.23 31.17 8.72 46.85 1.29 8.07 3.4 15.92 5.24 23.85 1 4.36 3 6 7.53 5.65a596.57 596.57 0 0 1 62.86-1.08c9.62.38 19.34.12 28.85 1.29 16.86 2.06 34 1.91 50.61 5.09 5.32 1 10.78.57 16 2.29 3.3 1.1 5.39-.73 6.4-3.85 9-27.86 17.76-55.76 23.32-84.55 2-10.37 1.91-10.26 12.25-7.52q57.2 15.15 114.43 30.15c.48.13 1 .19 1.46.33 12.38 3.48 12.5 3.5 10.47 16.37-2.24 14.24-4.76 28.43-7.12 42.66-2.28 13.7-1.11 27.54-1.58 41.31-.08 2.65 1.56 4.17 4 5.1 14.69 5.71 29.48 11.19 44 17.3q16.42 6.88 32.4 14.85c8.38 4.17 17.26 7.58 25.4 12.2 10.18 5.77 21.11 10.13 30.73 17 2.17 1.55 5.14 2.58 7.7 3.92 2.78 1.45 4.27.71 6-1.91 13.92-20.72 24.51-43.32 36.82-64.94 6.3-11.07 6-11.22 16.7-4.37 22.34 14.34 44.65 28.76 67 43 17.86 11.36 35.78 22.46 53.74 33.72ZM678.2 417.47c5.76-3.13 11.2-6 16.54-9 3.19-1.82 3.94-4.27 2.36-7.95-6.2-14.53-12-29.24-18.19-43.76-1.51-3.52-.82-4.82 2.63-6.07 6.55-2.38 12.91-5.32 19.42-7.85 2.6-1 3.8-2.53 3.14-5.31a85.19 85.19 0 0 0-10.34-25.28c-1.67-2.73-3.69-3.32-6.72-2-6.54 2.89-13.23 5.43-19.8 8.26-2.31 1-3.7 1.18-4.76-1.74q-3.21-8.91-7.16-17.54c-1.24-2.72-.53-3.67 2-4.69 10.82-4.29 21.5-8.92 32.34-13.16 3.3-1.28 4.47-3.19 3.65-6.42A106.63 106.63 0 0 0 681.44 246c-1.7-2.84-3.64-3.6-7-2.19-22.85 9.59-45.79 18.94-68.69 28.39-7.84 3.24-8.15 4-4.94 11.84q21.06 51.19 42.12 102.41c.81 1.95 1.92 3.78 1.21 6.18-2.64 9-2.32 18.29-1.18 27.28 3.74 29.55 8.26 59 17.06 87.56 1.13 3.67.45 5.88-3 8.15a532.45 532.45 0 0 0-210.5 265.82C414 871.93 406 964.6 423.38 1059.2q28.41 154.2 135.32 269.15a522.65 522.65 0 0 0 180.14 126.15c82.74 35.13 168.94 49 258.47 40.87a530.1 530.1 0 0 0 213.47-66.26q105.15-58.92 174.67-157.49a529.65 529.65 0 0 0 81.55-177.17c.51-2 .43-4.44 2.57-5.76 6.38-3.92 12.06-9 18.91-12.1 21.55-9.91 41.81-22.08 61.24-35.55 19.28-13.36 38.07-27.41 57.17-41 18.83-13.43 34.16-29.41 40.78-52.43 5-17.31 6.41-34.45 1.29-52.05-1.77-6.07-5.83-10.64-8.15-16.35-4.25-10.49-12-18.4-23.22-21.82-5.52-1.68-8.23 1.16-6.68 6.54a179.05 179.05 0 0 1 4.47 20c.37 2.26.08 3.54-1.52 5.17a45 45 0 0 0-9.76 14.33c-4.1 10-8.38 19.94-15 28.64-3.7 4.84-8.52 7.46-15.31 9 4.65-9.34 9.6-17.45 12.74-26.37 3.64-10.31 9.33-20.23 8.64-31.53-.63-10.42-2.56-20.77-3.83-31.16-2-16.21-20-31.41-35.8-28.29-4.55.9-8.74.1-13.14-.72-10.17-1.89-21.23 4.32-23.86 12.93-1.15 3.75-.24 6 4 5.74 2.8-.15 5.58-.68 8.37-.95 3.19-.3 5.16.14 3.81 4.34a31 31 0 0 0-1.13 12.35c.73 7.78 1.33 15.57 2 23.36 1.32 16.56-3.89 30-18.62 39.4-1.23-2.58-2.31-5-3.49-7.32-8.25-16.43-18.14-31.48-35.12-40.26-2.63-1.36-3.27-3.34-3.73-5.89a529.77 529.77 0 0 0-41.09-129.12 523.85 523.85 0 0 0-30.91-57.28 113 113 0 0 0 21.54-20.3c10.73-13.09 19-27.5 19-44.88a345.13 345.13 0 0 0-2.39-38.82c-1-9.27-.51-19.08-6.24-27.36-1.38-2 .8-2.19 1.69-2.7 6.2-3.57 12.53-6.92 18.69-10.56 2.11-1.26 3.17-.59 4.57 1 6.57 7.32 13.17 14.6 19.9 21.78 1.76 1.88 2 3.21.46 5.46-4.3 6.13-8 12.72-12.49 18.68-3.91 5.16-3.31 9.65 0 14.56 6.47 9.44 14.86 17 23.33 24.57 3.09 2.76 4.85 2.61 7.27-1.1q41.24-63.15 82.85-126.05c1.83-2.78 2.16-4.76 0-7.47a511.83 511.83 0 0 0-36-39.51c-2.24-2.22-4.18-2.38-7-.88q-67.08 35.41-134.32 70.55c-3.26 1.7-3.43 3.21-1.82 6.12 3 5.53 7.56 10 11.45 15.11-15.57-1.57-30.82-2.24-46.09-2.75-19.58-.66-36.62 4.81-49.71 20.15-2.37 2.79-5 5.35-7.32 8.17-1.71 2.09-2.92 2.44-5.09.36-4-3.79-8.27-7.23-12.47-10.76a528.41 528.41 0 0 0-162-93.09 516.8 516.8 0 0 0-104.72-26.1c-3.89-.53-5.69-1.76-5.91-6-.36-7.12-1.45-14.2-2.26-21.3-.51-4.49-1.69-8.92-6.63-10.14-5.12-1.27-9.68.07-13.37 4.48-5.78 6.89-8.59 15.36-12.9 23-2.25 4-4.72 5.34-9.33 5.1-69.31-3.7-136.73 6.22-202.21 29.09-18.4 6.43-37 12.49-53.65 23.12-3.68 2.35-4.73-.54-6.08-2.59-13.09-19.79-24.46-40.47-35.18-61.77Zm238.62 1224.47c.2 3.55.32 7.89.71 12.2 1.24 13.52 4.07 26.65 10.34 38.82 13.73 26.62 42.62 40.71 74.42 36.37 32.83-4.48 54.41-22.92 61.72-52.75 3-12.44 3.2-25.11 2.26-37.76-1.36-18.11-5-35.66-16-50.78-24-33.33-80.82-36.83-111.58-7-17.02 16.49-21.69 37.48-21.87 60.9Zm-244-123.28c.17-21-8-38.6-23.9-53.05-30.47-27.7-68.64-29.36-98.61-3.81a125.09 125.09 0 0 0-35.31 49.52c-4 10-6.15 20.45-4.94 31.26 3.49 31.21 25.68 57 56.77 65.91 20.4 5.85 39.79 3.25 57-9.29 21.72-15.8 36.88-36.74 45.75-62.14a57.34 57.34 0 0 0 3.28-18.4Zm688.49-1129-1-.29v-2.81c1.56-22.92 3-45.85 4.77-68.76.31-4.1-.14-7.59-3.21-10.48a104.94 104.94 0 0 0-29.31-19.62c-3.13-1.4-5-.76-6.89 2.32q-37.82 62.31-75.92 124.43c-2.08 3.39-1.84 5.76 1.1 8.15a117.5 117.5 0 0 0 26.74 16.4c3.81 1.69 6.26 1 8.54-2.86 10.29-17.31 20.87-34.44 31.36-51.62.71-1.18 1.53-2.3 3.16-4.74-.25 5.73-.39 9.83-.63 13.93q-1.77 31.17-3.6 62.34c-.17 2.79.08 5.29 2.39 7.22a118.68 118.68 0 0 0 29.63 18.25c3.82 1.63 6.26.63 8.54-3.14q37-61.06 74.39-121.85c2.41-3.92 1.73-6.29-1.4-8.88a119.49 119.49 0 0 0-25.37-15.75c-4.41-2.09-7.33-1.54-10.13 3.22-10.77 18.34-22.04 36.39-33.12 54.55Zm51.41 1133.7c-.11-1.9-.19-4.23-.38-6.55a20.88 20.88 0 0 0-.54-3.44c-8.23-33.17-27.68-58.26-56.16-76.37-10.82-6.89-23.18-8.7-36-6.58-14.9 2.46-27.58 9.5-39.19 18.67-10.06 7.94-19.84 16.24-29.77 24.35-9.18 7.51-9.72 12-2.19 21.22q43.59 53.07 87.26 106.08c5.5 6.69 10.28 7.25 17.08 1.73 11.51-9.33 23.11-18.58 34.25-28.33 15.18-13.28 25.74-29.14 25.68-50.77ZM816.6 1630.12c2.58-1 4.78-1.67 6.88-2.61 17.2-7.65 24.34-22 25.44-39.75 1-15.43-7.14-26.14-19.77-33.91a78.28 78.28 0 0 0-18.61-8.33c-18-5.37-36.06-10.48-54-16.1-5.09-1.59-6.74.12-8 4.65-6.83 23.79-13.89 47.52-20.84 71.28q-10.28 35.16-20.48 70.34c-1.78 6.14-.1 10.7 5.21 12.21 23.15 6.6 45.77 15.33 69.61 19.22 32.57 5.33 56.74-21 49.63-53.34-2.13-9.63-7.61-17.17-15.07-23.66Zm-449-1162.83c-2.5.14-5 .27-7.48.45a29.3 29.3 0 0 0-3 .43c-24.68 4.68-41.42 19.92-52.75 41.26-12.12 22.85-11.24 45.9 2.89 67.74 11.94 18.46 28.41 32.16 48.13 41.66 29 14 59.13 7.9 80.94-15.76 26.77-29 28.6-64.55 4.52-94a130.41 130.41 0 0 0-42.16-33.86c-9.69-4.92-19.98-7.99-31.06-7.92Zm139.14 925.56a66.72 66.72 0 0 0 19.7-3c11.21-3.64 14.21-8.87 11.5-20.46a82.49 82.49 0 0 0-21.49-39.39c-15.85-16.27-35.62-22.67-57.81-19.55-30.91 4.36-55.07 20.81-73.84 45.18a61.72 61.72 0 0 0-12.8 44.57c2.53 26 17 44.9 37.49 59.79a24.57 24.57 0 0 0 5.8 2.83c5.49 2.06 10.47 1.33 14.62-3.08a66.13 66.13 0 0 0 14.68-23.54c1.28-3.65.81-5.41-3.11-7.72-19.16-11.25-28.14-33.63-9.08-52.3a72.6 72.6 0 0 1 19.16-13.4c22.75-11.07 42.95 0 45.89 25.28.32 2.72 1.71 3.92 4 4.34a40 40 0 0 0 5.32.45ZM942.83 283.72c.15 3 .32 6 .46 9 1.86 40.24 29.68 75 84.48 67.41a54.06 54.06 0 0 0 18.1-5.28c5.78-3 8.68-7.66 7.56-14.3a63.24 63.24 0 0 0-9.49-25c-2.11-3.18-4.17-4.32-7.69-1.77-2.73 2-6.27 2.12-9.54 2.62-19.06 2.92-32.31-6.48-35.59-25.36a62.29 62.29 0 0 1 1.14-25.28c5.41-22.79 25.55-31.3 45.65-19.12 3.62 2.19 5.7.41 7.68-1.88a58.45 58.45 0 0 0 11.8-21.23c2.67-8.68.89-13.69-7.41-17.68-31.84-15.29-74.7-12.34-96.47 29-8.01 15.28-10.25 31.9-10.68 48.87Zm470 1085c19.89 13.09 39.49 26 59.08 38.87 10.61 7 10.77 7.1 3.54 17.67-2.69 3.94-2.32 6.86.78 10.12a60.73 60.73 0 0 0 24 15.67c3.74 1.32 6.5.75 8.88-2.93q20.1-31 40.6-61.77c2.15-3.24 1.94-5.78-.4-8.52a55 55 0 0 0-25.5-16.83c-3.43-1.1-6.06-.35-8 3-2.33 4-5 7.73-7.64 11.68-19.88-13.08-39.35-25.89-58.81-38.71-10.79-7.1-10.9-7.18-3.71-18.06 2.1-3.18 2.19-5.76-.28-8.51a58 58 0 0 0-26-17c-3.4-1.07-5.56 0-7.51 3q-20.17 31-40.64 61.74c-2.31 3.46-2 6.14.56 8.92a59.56 59.56 0 0 0 24.72 16.37c3.9 1.39 7 .43 9.12-3.6 1.99-3.83 4.65-7.23 7.2-11.08Zm-641.55-1141a56.09 56.09 0 0 0 1.88 12.67c3.41 13.35 4.29 13.94 17.5 11.55a6.27 6.27 0 0 0 1-.17c4.62-1.67 6.08.29 6.79 4.84 3.24 20.7 6.8 41.35 10.34 62 2.09 12.22 2.2 12.41-9.75 13.92-4.73.6-6.75 2.73-7 7.26a59.63 59.63 0 0 0 4.91 27.74c1.58 3.66 4.15 4.66 8 4q35.15-6.12 70.33-12c3.54-.59 5.2-2.42 5.68-5.84 1.18-8.45-.12-16.59-2.93-24.53-3.1-8.77-4-9.23-13-7.7-2 .33-4 .55-5.9 1-2.94.74-4.09-.32-4.59-3.31-3.57-21.66-7.36-43.29-11-64.95-1.81-10.89-1.72-11.19 9.19-12.62 5.49-.73 7.39-3.56 7.52-8.53a60.14 60.14 0 0 0-3.48-22.55c-3.12-8.53-4-9-12.64-7.48q-31.2 5.43-62.46 10.64c-9.81 1.75-10.83 2.87-10.4 14.13Zm338.92 139.64c-.67 4 1.13 6.26 5.75 7.63q33.43 9.94 66.68 20.61c4.58 1.47 7.29.22 9.51-3.56a56.61 56.61 0 0 0 7.69-23c.88-8.11.34-9.18-7.19-11.48-2.23-.68-4.41-1.55-6.68-2-3.27-.66-3.58-2.11-2.61-5.19 6.51-20.61 12.79-41.27 19.12-61.93 3.45-11.29 3.48-11.49 14.74-7.77 4.52 1.5 7.22.35 9.44-3.59a60.4 60.4 0 0 0 7.9-25.5c.36-4.68-1.09-7.27-5.91-8.69q-33.23-9.82-66.25-20.33c-4.86-1.55-7.6-.17-9.85 3.82a66.92 66.92 0 0 0-7.63 23.58c-.81 5.58.57 9.5 6.8 10.48 1.79.28 3.48 1.19 5.28 1.47 4.79.75 6 2.66 4.31 7.66-6.52 19.9-12.51 40-18.69 60-3.53 11.46-3.6 11.7-14.95 7.9-4.82-1.61-7.58-.3-9.84 3.78-4.41 7.95-7.3 16.36-7.62 26.11Zm-577.57-13.28a6.65 6.65 0 0 0-.48-1.78 99.2 99.2 0 0 0-19.07-26.69c-2.34-2.32-4.26-1.38-6.53.24q-30.48 21.79-61.06 43.45c-6.17 4.39-6.35 5.44-2 11.57q41.79 58.86 83.51 117.77c2.71 3.84 5.3 4.4 9.18 2.54a97.76 97.76 0 0 0 27.35-19.84c2.72-2.75 2.47-5.22.2-8.33-9.21-12.66-18.09-25.56-27.3-38.21-2.11-2.89-2.37-4.4 1-6.52 5.9-3.74 11.38-8.13 17.19-12 2.63-1.76 3.08-3.7 1.79-6.32a85.51 85.51 0 0 0-15.53-21.9c-2.36-2.43-4.54-2.46-7.34-.3-5.67 4.37-11.68 8.29-17.42 12.56-2.11 1.57-3.21 1.4-4.68-.81q-5.26-7.9-11-15.47c-1.71-2.24-1.54-3.35.81-5 9.59-6.62 19.05-13.43 28.54-20.2 1.39-1.01 3.31-1.76 2.84-4.76Zm719.43 1301.1a69.44 69.44 0 0 0-13.33-31.69c-2.11-2.72-4.66-3.14-7.93-1.74-8.71 3.74-17.61 7-26.26 10.87-3.92 1.74-5.47 1.15-7.12-3-13-32.59-26.33-65-39.22-97.63-2.08-5.28-5-6.45-9.86-5.15a138 138 0 0 0-31.34 12.71c-4.66 2.6-5.38 5.63-3.3 10.62 9.23 22.09 18.06 44.33 27 66.52 8.61 21.26 17.18 42.53 25.87 63.76 3.58 8.75 9.72 12 17.12 9 21.28-8.56 42.5-17.28 63.81-25.78 3.36-1.35 4.74-3.44 4.56-8.49ZM1472 737.3c-.3 6.75.35 13.3 3.63 19.34 4.06 7.46 11.53 10.55 18.41 14.59 20.89 12.28 42.52 22.55 66.81 25.84 5.9.8 11.7 2.07 18 .25a352 352 0 0 0 35.2-11.94c11-4.47 21.37-9.94 23.17-23.3 1.21-9 1.49-18.19 2-27.3.78-13.15-.22-26.25 4-39.35s.59-25.12-11.27-34c-13.18-9.86-28.15-16.06-43-22.79-9.51-4.33-19-6.71-29.33-4.6-18.14 3.7-36.26 7.77-53.08 15.73-12.26 5.81-22.55 13.75-25.25 28.54-3.54 19.6-7.29 39.16-9.29 58.99Z" class="cls-2"/><path d="M678.2 417.47c10.72 21.3 22.09 42 35.09 61.73 1.35 2.05 2.4 4.94 6.08 2.59C736 471.16 754.62 465.1 773 458.67c65.48-22.87 132.9-32.79 202.21-29.09 4.61.24 7.08-1.1 9.33-5.1 4.31-7.66 7.12-16.13 12.9-23 3.69-4.41 8.25-5.75 13.37-4.48 4.94 1.22 6.12 5.65 6.63 10.14.81 7.1 1.9 14.18 2.26 21.3.22 4.24 2 5.47 5.91 6a516.8 516.8 0 0 1 104.72 26.1 528.41 528.41 0 0 1 162 93.09c4.2 3.53 8.51 7 12.47 10.76 2.17 2.08 3.38 1.73 5.09-.36 2.31-2.82 4.95-5.38 7.32-8.17 13.09-15.34 30.13-20.81 49.71-20.15 15.27.51 30.52 1.18 46.09 2.75-3.89-5.14-8.4-9.58-11.45-15.11-1.61-2.91-1.44-4.42 1.82-6.12q67.24-35.12 134.32-70.55c2.84-1.5 4.78-1.34 7 .88a511.83 511.83 0 0 1 36 39.51c2.21 2.71 1.88 4.69 0 7.47q-41.57 62.93-82.85 126.05c-2.42 3.71-4.18 3.86-7.27 1.1-8.47-7.54-16.86-15.13-23.33-24.57-3.36-4.91-4-9.4 0-14.56 4.51-6 8.19-12.55 12.49-18.68 1.59-2.25 1.3-3.58-.46-5.46-6.73-7.18-13.33-14.46-19.9-21.78-1.4-1.56-2.46-2.23-4.57-1-6.16 3.64-12.49 7-18.69 10.56-.89.51-3.07.71-1.69 2.7 5.73 8.28 5.21 18.09 6.24 27.36a345.13 345.13 0 0 1 2.39 38.82c0 17.38-8.28 31.79-19 44.88a113 113 0 0 1-21.54 20.3 523.85 523.85 0 0 1 30.91 57.28 529.77 529.77 0 0 1 41.09 129.12c.46 2.55 1.1 4.53 3.73 5.89 17 8.78 26.87 23.83 35.12 40.26 1.18 2.35 2.26 4.74 3.49 7.32 14.73-9.35 19.94-22.84 18.62-39.4-.62-7.79-1.22-15.58-2-23.36a31 31 0 0 1 1.13-12.35c1.35-4.2-.62-4.64-3.81-4.34-2.79.27-5.57.8-8.37.95-4.26.24-5.17-2-4-5.74 2.63-8.61 13.69-14.82 23.86-12.93 4.4.82 8.59 1.62 13.14.72 15.82-3.12 33.82 12.08 35.8 28.29 1.27 10.39 3.2 20.74 3.83 31.16.69 11.3-5 21.22-8.64 31.53-3.14 8.92-8.09 17-12.74 26.37 6.79-1.58 11.61-4.2 15.31-9 6.66-8.7 10.94-18.63 15-28.64a45 45 0 0 1 9.76-14.33c1.6-1.63 1.89-2.91 1.52-5.17a179.05 179.05 0 0 0-4.47-20c-1.55-5.38 1.16-8.22 6.68-6.54 11.23 3.42 19 11.33 23.22 21.82 2.32 5.71 6.38 10.28 8.15 16.35 5.12 17.6 3.69 34.74-1.29 52.05-6.62 23-22 39-40.78 52.43-19.1 13.61-37.89 27.66-57.17 41-19.43 13.47-39.69 25.64-61.24 35.55-6.85 3.15-12.53 8.18-18.91 12.1-2.14 1.32-2.06 3.74-2.57 5.76a529.65 529.65 0 0 1-81.52 177.17q-69.59 98.36-174.67 157.49a530.1 530.1 0 0 1-213.47 66.26c-89.53 8.09-175.73-5.74-258.47-40.87a522.65 522.65 0 0 1-180.06-126.11Q451.89 1213.6 423.38 1059.2C406 964.6 414 871.93 446.46 781.44A532.45 532.45 0 0 1 657 515.62c3.5-2.27 4.18-4.48 3-8.15-8.8-28.57-13.32-58-17.06-87.56-1.14-9-1.46-18.31 1.18-27.28.71-2.4-.4-4.23-1.21-6.18q-21-51.21-42.12-102.41c-3.21-7.8-2.9-8.6 4.94-11.84 22.9-9.45 45.84-18.8 68.69-28.39 3.37-1.41 5.31-.65 7 2.19a106.63 106.63 0 0 1 11.94 29c.82 3.23-.35 5.14-3.65 6.42-10.84 4.24-21.52 8.87-32.34 13.16-2.58 1-3.29 2-2 4.69q3.93 8.63 7.16 17.54c1.06 2.92 2.45 2.73 4.76 1.74 6.57-2.83 13.26-5.37 19.8-8.26 3-1.34 5.05-.75 6.72 2a85.19 85.19 0 0 1 10.29 25.21c.66 2.78-.54 4.29-3.14 5.31-6.51 2.53-12.87 5.47-19.42 7.85-3.45 1.25-4.14 2.55-2.63 6.07 6.22 14.52 12 29.23 18.19 43.76 1.58 3.68.83 6.13-2.36 7.95-5.34 3.04-10.74 5.9-16.54 9.03Zm783.25 522.17-.39-1.49c-.76-3.28-2.45-6.14-4-9.11-5.61-11-14.58-19.34-22.1-28.83-6.93-8.77-6.85-8.84-16.8-3.31-3.89 2.16-7.73.71-8.62-3.26a17.14 17.14 0 0 1 15.75-21c3-.22 6.15 1 8.83-.6a38.54 38.54 0 0 1 20.8-5.5c-.47-2.66-.83-5-1.26-7.22-5-26.65-13.19-52.37-22.76-77.71a553.71 553.71 0 0 0-47.82-96c-1.6-2.58-3.4-3.2-5.94-3.32-23.37-1.15-46.9-.73-69.54-8.41-4.5-1.52-7.38-3.59-8.15-8.17a56.72 56.72 0 0 1-1.11-9.86c.19-21 .23-42 1-62.89.21-5.39-.85-8.47-5-12.16-26.25-23.34-54-44.39-84.7-61.71-29.17-16.45-59-31.17-90.63-42.27s-63.87-19.66-97.49-23.57a29.34 29.34 0 0 0 0 3c2.43 24.29 4.64 48.61 8.93 72.65 4.57 25.63 9.08 51.29 16.06 76.42.48 1.73 1 3.37 2.84 4.44 24.92 14.33 45 34.16 62.67 56.43 19.23 24.17 33 51.38 43 80.53 1.68 4.91 3.52 8.8 8.59 11.32s9.83 6.23 14.38 9.85c24 19.08 32.19 44.1 26.27 73.7-3.61 18.12-12.42 34.3-21.33 50.27-5.71 10.25-12.38 19.72-12 32.56.25 8.83-2 17.79-3.74 26.57-.64 3.19-.06 4.47 2.45 6.34 18.23 13.56 34.36 29 42.78 50.8a3.65 3.65 0 0 0 3.31 2.46c10.31 1.82 20.4 4.47 29.78 9.19 15.38 7.74 29 17.68 34.43 34.9 10 31.65 1.32 59.62-18.58 84.89-11.94 15.15-28.74 24.51-43.68 36.08a42.66 42.66 0 0 1-11.62 6.74c-21.85 7.82-44.07 13.72-67.58 12.2-5.37-.34-11-2.51-14 4.38-.21.49-1.09.7-1.67 1-20 11.58-41.7 18.72-63.85 24.69a113.26 113.26 0 0 1-46.41 3c-14.31-2.11-27.57-7.32-40.12-14.27-4.31-2.38-7.32-2.22-10.19 1.71-.88 1.2-2 2.17-3 3.32-9.53 11.66-11 25.91-11.62 40-1 24 5.88 46.19 17.86 66.93 1.7 2.94 2.91 2.9 5.68 1.7 18.74-8.09 37.91-14.89 58-19 26.19-5.38 50.5-.51 73.19 13.23 27.75 16.79 52.16 37.42 71.28 63.79 3.18 4.39 5.35 3.94 9.36 1.72 28.41-15.71 45.59-41.51 60.3-68.87 18.9-35.14 28.48-73.77 37.6-112.27 7.16-30.23 12.27-60.93 21.55-90.68 8.36-26.77 21-50.75 44-67.8 13.76-10.18 28.21-19.44 42-29.6 11.17-8.23 23.41-15.42 30.15-28.55 1.9-3.7 1.09-5.41-1.84-7.72-6.8-5.34-15.33-7.29-22.42-11.7-9.12-5.67-21.16-9.51-21.1-23.69-2.53.6-4.93 1.24-7.36 1.73s-5 .59-7.32 1.27c-6.6 1.89-10-.89-9.2-7.7.32-2.78 1.81-5 3.42-7.1 8.12-10.62 19.31-13.85 31.92-12.19 4.74.62 8.17-.78 12-2.86 13.67-7.38 27.38-8.22 41.16.1 8.69 5.25 14.89 13.17 22.26 19.84l1 1.1c.23.68.46 1.36.8 2.41.64-1.51.7-2.35-.46-2.87Zm-655.26 1.24c5.06-2.52 9.67-1.57 13.88 1.9a44.48 44.48 0 0 1 15.27 23.47c3.28 12.7 6.29 25.48 8.92 38.33 5.6 27.42 20.53 48.06 44.77 61.72a209.33 209.33 0 0 0 42 18.3c20 6 40.63 9.88 60 18.07a328.2 328.2 0 0 1 79.92 47.56c13.93 11.32 27.08 23.55 46.85 26.06 35.19 4.45 68.1 1.15 98.5-18.67 24.2-15.78 42.66-35.5 48.61-64.8 3-14.57 2.3-29.13-6.4-41.29-13.94-19.48-33.75-28.61-57.87-28-4.66.11-9.43.52-14-.3a72 72 0 0 0-33.9 1.86c-8.52 2.52-16.91 6.31-26.18 5.61-2.43-.18-4.72-.25-5.56-3.14s.7-4.74 3-6.17c1-.61 2-1.16 3-1.69 10.77-5.56 22.48-7.93 34.25-10a150.24 150.24 0 0 1 27.64-2.17c-5.32-18.23-18-30-32.19-40.09-17.47-12.42-37.42-19.17-58.47-22.9-3.35-.59-8.75 0-7.87-5.93.76-5.17 5.69-4 9.19-4.8a4.76 4.76 0 0 1 1.49.1c15.74 1.68 31.15 4.77 45.74 11.14 2.86 1.24 3.88.35 4.18-2.47.72-6.61 1.76-13.19 2.29-19.82 2.69-33.59 2.94-67.17-1-100.69-2.65-22.65-5.75-45.31-13.12-67-13-38.28-33-72.3-61.76-101.29-18.92-19.1-40.91-32.78-65.46-42.84s-50.12-16.28-76.89-17.47c-25-1.1-49.84-1.29-74.46 3.48-9.32 1.8-18.88 3-27.68 7a17.84 17.84 0 0 0 6 7.52c14.92 11.39 15.19 27.92 4.5 41.75-11.61 15-24.92 28.48-41.83 38-15.78 8.86-32.19 13-50.21 9.62-6.53-1.22-11-5-14.69-10.27-7-9.92-14.18-19.7-21.28-29.54-.9-1.25-1.7-2.51-3.6-1.41-2.29 1.34-5 2.13-7 3.84-11 9.73-21.57 19.89-29.53 32.36-18 28.24-31.17 58.86-41.47 90.51a256.17 256.17 0 0 0-12.3 96.37 18.73 18.73 0 0 0-.1 3c2.4 19.92 4.73 39.85 8.29 59.61a851.25 851.25 0 0 0 23 94.22c6 20 15.09 38.55 25.46 56.62s16.48 37.61 22.62 57.29a254.6 254.6 0 0 1 11.51 84.51c-.16 5.2-3.2 6.56-7.42 6.6-4.45 0-7-1.69-6.8-6.89a220 220 0 0 0-3.79-51.65c-2.23-11.32-4.27-22.67-8.66-33.49.48 15-1 29.88-2.64 44.73-2.77 25.73-9.08 50.71-16.79 75.31-4.77 15.2-9.71 30.47-19.75 43.38a8.88 8.88 0 0 1-7.05 3.81c-18 1.25-35.36 6.09-54.58 8.34 81.54 78.53 176.49 127.13 287.61 144.84-.16-1.75-.16-2.59-.32-3.39a337.89 337.89 0 0 1-6.27-44.43c-.47-6.48 0-12.6 5.08-18 11.82-12.66 24.58-24.35 36.82-36.57 13.28-13.25 28.46-24 45.1-33.29-9.58-13.63-14.18-29.2-19.66-44.29-7.59-20.88-6.54-42.21-.4-63.31 3.28-11.27 9.78-20.21 20.83-25.68-.77-.52-1.4-1-2.1-1.4-24.71-13.33-49.37-26.73-74.16-39.92-18.49-9.84-33.7-23.49-47.07-39.4a31.26 31.26 0 0 1-5-8.61c-5.11-12.58-7.57-25.8-10.05-39-1.61-8.63-2.45-17.49-6.3-25.57-7.36-15.43-20.24-24.44-35.73-30.23-2.13-.79-3.66-1.67-3.74-4-.09-2.64 2.32-3.44 4-3.7 12.27-1.8 24-.34 33.77 8 10.29 8.76 16.38 20.31 21.17 32.74 6.23 16.18 8.91 33.32 13.81 49.86 4 13.56 9.57 25.24 22.89 32.82 13 7.37 26 14.82 38.52 23.07 27.34 18.08 55.2 35.14 85.24 48.5 10.55 4.69 20.84 8.27 32.54 4.74 4.41-1.33 9.15-1.66 13.76-2.23 17.66-2.16 35.41-4 52-11.12 7.61-3.24 15.82-4.74 24.13-8.44-8.51-2.41-16-5.28-21.71-10.6-5-4.72-10.85-7.5-16.68-10.59-2.19-1.17-4.62-2.16-6.38-3.83-19.75-18.75-44.49-30-67.23-44.17-15.55-9.68-33.56-15.08-51.35-19.92a320.56 320.56 0 0 1-74.17-30.97c-14.89-8.45-25.75-21.17-33.77-35.77-7.89-14.37-10.57-30.79-14-46.75-2.6-12-4.92-24.1-12.14-34.55-2.71-3.93-6.81-6.93-7.62-12.05Zm-140.46-408c-.92.5-1.49.76-2 1.1a491 491 0 0 0-65.49 51.83 507.53 507.53 0 0 0-87.15 106.34 547.42 547.42 0 0 0-51.57 110.15c-9.62 28.21-15.76 57.17-20.17 86.63a519.5 519.5 0 0 0-5.45 76c0 11.46.45 23.11 1.36 34.68 1.09 14 2.47 27.95 4.53 41.78a481.24 481.24 0 0 0 20.74 85.42 540.24 540.24 0 0 0 45 98.09c1.3 2.24 2.29 2.67 5 2.16 13.68-2.58 27.53-4.15 41.39-5.53 13.58-1.36 27.28-1.07 40.81-2.47 13.77-1.43 26.34 1.14 38.7 6.79a143 143 0 0 1 27.85 16.74c5.53-29.74 10.21-58.94 10.45-88.66.14-16.43 1.26-32.94-5.47-48.66-1.2-2.8-2.33-3.88-5.29-3.67-12.83.93-24.84-1.94-37-6.3-23.07-8.29-41.92-22.1-57.61-40.53-2.14-2.51-6.51-5.52-4.17-9.14 2-3.1 6.44-.88 9.81-.5 22 2.5 43.81 3.56 64.56-6.38 1.42-.69 3.32-.53 2.49-3.22-2.06-6.67-3.83-13.43-5.72-20.15-.42-1.46-.78-2.71-2.85-2.78-7.09-.25-13.48-3.15-20-5.6-18.93-7.14-33.44-20.29-46.7-34.9-10.67-11.75-19.71-24.69-24.61-40.09-1.4-4.43.16-6.28 4.58-6.45a14.77 14.77 0 0 1 5.76 1.38c19.76 7.35 39.83 12.53 61.26 10 3.67-.42 3.86-1.68 3.46-4.58-1.38-9.88-2.7-19.76-3.81-29.67-.5-4.47 0-9.24-6.91-8.4-1 .12-2.12-.86-3.19-1.33-13.75-6-24-16.51-34.28-27-15.73-16-25.94-35.23-32.49-56.54-1-3.38.19-5.2 3.6-6.3 6.12-2 10.51 1.57 15.22 4.24 17 9.67 35.79 13.52 54.86 16.36 3.48.51 5.45-.44 6-4.36a194.47 194.47 0 0 1 7.26-31.57c2.27-7.41 1-11.4-5.28-17.17-21-19.26-37.2-42.08-43-70.87-.56-2.74-2.16-5.65 1.4-7.42 3.25-1.62 5.88-.46 8.49 2 17.05 16.15 37.84 22.67 60.9 23.38a5.17 5.17 0 0 0 5.45-3.18c3.71-7 7.09-14.41 11.79-20.78s4.88-10.77.32-18.11c-13.87-22.34-21.08-47.21-23-73.53-.16-2.24-1-5 2-6s5.77-.72 8 2.19c6.58 8.61 14.25 16.27 21.67 24.14 10.47 11.11 22.92 18 38.76 18.12a723.88 723.88 0 0 1-40.26-107.71ZM1185.58 1400c1.56 2.09 2.8 3.86 4.14 5.55 7 8.86 7.17 9.1 16.7 3.59 33.16-19.16 64.16-41.31 92.27-67.39a546.09 546.09 0 0 0 56.53-61.73c5.59-7 12.26-13.1 11.59-24.47-1.68-28.39 4.39-56.24 9.22-84.09 3.11-17.91 8.49-34.86 20-49.41 3.77-4.74 8.88-8.16 12.35-13 11.14-15.59 26.62-25.66 43.62-33.13a515 515 0 0 0 72.12-38.38c24.9-16.07 48.29-34.28 72.63-51.16 16.79-11.64 30.2-25.78 36.06-46.2 4-13.88 4.46-27.47.51-41.28-.6-2.08-1-4.5-3.6-4.94-2.79-.48-4 1.94-5.36 3.76-6.11 7.92-8.79 17.51-12.59 26.51-5.56 13.14-14 22.63-28.2 26.69-10.65 3-19 9.52-26.32 18.05-4.31 5-10 9.57-18.12 8-4.41-.86-4.52-3.27-3.46-6.46a13.93 13.93 0 0 1 2.49-3.72c17.24-22.47 26.51-48.74 34.54-75.32 4.9-16.21 4.28-33-3-48.84-2-4.45-5.21-7.72-10.86-7-5.25.68-6.44 4.72-7.35 8.83-3.21 14.56-1.22 29.09.34 43.63 1.07 9.87 1.75 19.67-5.31 28-3.87 4.59-7.31 9.79-12.37 13-8 5-11.83 10.41-7 20.08 2.26 4.54-1.69 8.92-6.62 8.41-4.55-.47-8.72-1.61-9.82-7.33a44.5 44.5 0 0 0-3.72-10.31c-11.47-24.48-20.17-51.08-49.25-61.72-4.54-1.66-7.77-1.12-11 1.43-3.4 2.7-3.13 6.37-1.37 10 2.59 5.33 6.62 9.53 10.7 13.73a84.26 84.26 0 0 1 16.79 23.76c6.76 14.73 8.67 29.47 4.28 45-.44 1.54-9 8.53-10.43 8.44-3.36-.23-9.74-6.62-10.25-10.35-.73-5.44-1.29-10.93-4.28-15.75-8.15-13.12-18.73-22.54-34.74-25.11-7.44-1.19-13.44.44-18.94 5.06a13.58 13.58 0 0 0-3.41 16.69 23.62 23.62 0 0 0 12.62 11.5c13.09 5.41 24.46 12.24 25.75 28.63.28 3.57.43 6.21-2 9-8.79 10.26-19.54 18.46-29.18 27.82-13.63 13.21-31.65 20.72-45.93 33.37-11.93 10.58-23.27 21.68-30.21 36.12-8.24 17.17-13.18 35.47-15.88 54.37-3.11 21.73-5.47 43.68-12.52 64.57-6.65 19.7-13.58 39.29-19 59.38-4.15 15.38-11.54 29.37-18.38 43.62-16.43 34.43-36.7 65.33-74.78 80.5Zm-235.91 78.8c3.88.34 7.6-1.14 11.37-1.13 12.45.06 24.82-.87 37.22-1.93a483.89 483.89 0 0 0 48.65-6.59c45.07-8.53 87.95-23.71 129.32-43.39 4.53-2.15 3.76-4 1.21-6.86q-6.6-7.47-13-15.1c-8-9.55-15.27-19.82-24-28.6-15.45-15.48-33.56-27.74-52.09-39.24-13.6-8.44-28.19-14.3-44.72-13.32a133.71 133.71 0 0 0-36.08 6.79c-21.33 7.36-41.82 16.36-60.21 29.58-23 16.57-42.83 36.84-63.33 56.31a4.77 4.77 0 0 0-1.66 4.38c1.84 17.36 4 34.67 7.55 51.79.57 2.73 2.09 3.92 4.78 4.07q27.48 1.59 54.99 3.24ZM840.1 589c-1.1-1.18-1.94-2.18-2.88-3.06-1.1-1-2.41-1.84-3.4-2.94-14.24-15.79-21.76-34.78-26.07-55.25-.76-3.59 1.79-4.72 4.79-4.77 2.41 0 4.38 1.35 6.38 2.56a215.14 215.14 0 0 1 28.39 20.26c15.18 12.86 33.47 19.37 51.79 25.87 7.43 2.63 15.38 3.36 22.66 6.44 3.09-23.7 9-45.92 18.74-67.07 9.65-20.94 20.13-41.47 31.31-62.87-86.12-2.83-167.39 12.9-244.47 50.17.42.63.85 1.33 1.34 2 14.36 19.31 31 36.47 49 52.44 14.32 12.74 26.89 27.22 40.2 40.94 2 2.09 3.46 2.57 6.34 1.19 4.9-2.35 10.21-3.84 15.88-5.91ZM659.84 410.45c-.89 6.87-1.8 13.38-.81 19.95 2.94 19.37 5.87 38.73 10.68 57.76 4.63 18.34 8.37 37 14 55 12.48 39.83 27.73 78.61 47.75 115.37 6.78 12.46 13.33 25 27 31.68 3.75 1.82 7 3.1 11 .22 3.33-2.4 7.25-4 11-5.82 14-6.72 27.4-14 37.82-26.05 9-10.36 17.51-20.76 20-34.92-3.07-.35-6.29-.06-8.93-2.28-17.63-14.79-35.35-29.36-52.81-44.29-22.67-19.35-40.09-43.36-58.4-66.56C700.21 487.79 687.76 461.7 673 437c-5-8.46-8.8-17.67-13.16-26.55Zm341.26 12.41c-6.53 9.26-9.27 19.73-14.33 29.09-8.5 15.75-14.56 32.78-22.54 48.83-7.47 15-16.37 29.35-22.4 45.06-3.65 9.52-8.24 18.93-6.45 29.73.44 2.64 1 4.32 4.21 4.16 2.28-.11 4.58.71 6.89.85a249 249 0 0 1 74.1 15.86c2.79 1.07 5.64 2 8.41 3-12.94-58.44-19.81-117.28-27.89-176.58Zm-485.92 817.86c16.85 27.66 37.12 51.51 58 74.92 1.35 1.52 2.71 1.71 4.81 1.41 18.68-2.68 37.06-7.74 56.12-7.52 2.41 0 3.41-1.22 4.42-3.19 5.65-11 9.2-22.8 13.08-34.48 1.52-4.59 2.5-8.06-3.83-9.25-1.41-.26-2.62-1.92-3.8-3.06-5.16-5-10.08-10.17-15.45-14.89-15.78-13.89-35.1-13-54-11.65-19.72 1.37-38.92 6.57-59.35 7.71ZM1431 616.61c-1.38-19.92-2.33-36.51-3.75-53.06-.83-9.62-2.58-11.09-12-12.88-2.28-.43-4.55-.92-6.84-1.22-18.31-2.44-36.77-2.58-55.16-3.76-8.16-.52-8.08-.28-8.92 7.75-2 19.12-.26 38.22.16 57.32.14 6.59 1.58 13.15 2.47 19.73.31 2.31 1.2 4 3.92 4.38 22.87 3.22 45.83 5.6 68.9 6.88a4.25 4.25 0 0 0 4.68-2.7c3.95-8.14 7.54-16.36 6.54-22.44Zm13.79 486.69c-8.65 4.12-17.49 6.11-22.13 14.67-2.93 5.4-6.42 10.46-9.4 15.87-12.66 23-22.34 47.1-26.37 73.23-1.63 10.55-3.44 21.08-3.55 33.43 26.66-43.86 47.52-88.5 61.43-137.2ZM551.65 940c6.49 23.7 56.27 65.66 76.8 65.14-4.71-15.64-8.41-31.44-11.59-47.34-.76-3.77-2.3-4.33-5.62-4.12a102.7 102.7 0 0 1-27.66-1.64c-10.97-2.29-20.97-7.22-31.93-12.04Zm864-288.13c-10.62-.91-20.71 0-30.89-1.74-13.33-2.3-26.8-3.82-39.78-7.77-2.29-.7-3.25.19-4.71 1.31-9.13 7-12.11 18.31-19.94 27 2.9.54 5 1 7.09 1.29 15 1.9 30.15 1.8 45.19 3.09 18.66 1.66 33.55-5.93 43.03-23.16Zm-254.5 114.22a434.4 434.4 0 0 1 9.85 60.11c1.7 19.91 3 39.89 2.72 60 6.69-10.37 11.49-21.46 16-32.67 13.46-33.53 2.8-67.53-28.58-87.42Zm148.64-101.52c1.69-1.81 2.44-2.67 3.26-3.47 6.8-6.68 10.85-15.62 17.74-22.12 3.66-3.45 4.94-6.21 4-11.55-3.28-18.89-3.28-38-3.19-57.18 0-5.13 1.59-10.27.45-16-6.71 6.39-12.79 12.41-17.75 19.51a22.83 22.83 0 0 0-3.76 10.06c-1.59 10.26-1 20.6-.93 30.88.06 16.2-1.83 32.42.17 49.89Zm-701.3 174c-24.42.9-44.66-9.06-63.64-23.76 2.3 20.81 43.2 68.58 61.78 72.69a217.29 217.29 0 0 1 1.85-48.86Zm50.57 254.78c-4.47-12-8.59-22.86-12.51-33.78-1.11-3.07-2.7-2.93-5.34-2.08a83.56 83.56 0 0 1-44.19 2.1c-5.92-1.3-11.8-2.71-17.7-4.07 22.03 21.96 47.39 36.39 79.73 37.9ZM583.71 715.2c10.94 20.75 22.2 39.25 39.63 54.28 4.3-13 8.74-24.73 13.86-36.33-28.93-3.82-31.53-4.68-53.49-17.95Zm236-177.13c5.81 17.2 12.33 33.68 26.25 45.86 1.29 1.13 2.22 2.77 4.61 2.14a207.39 207.39 0 0 1 31.84-5.86c-24.41-10.16-43.96-25.5-62.68-42.14Zm-127 115.42c-19.92-5.06-33.84-17.52-45.14-35.59 3.45 22.3 12 40.71 21.6 58.23 7.83-7.53 15.42-14.83 23.53-22.64ZM1482.56 519c4.83 5.31 9.29 10 13.49 14.91 2.06 2.42 3.08 1.92 4.72-.43 7.4-10.63 15-21.12 22.43-31.71 1-1.39 2.62-2.53 2.32-5.33Z" style="fill:#030202"/><path d="M916.82 1641.94c.2-23.42 4.85-44.41 21.92-60.94 30.76-29.79 87.53-26.29 111.58 7 10.91 15.12 14.59 32.67 16 50.78.94 12.65.79 25.32-2.26 37.76-7.31 29.83-28.89 48.27-61.72 52.75-31.8 4.34-60.69-9.75-74.42-36.37-6.27-12.17-9.1-25.3-10.34-38.82-.44-4.27-.58-8.61-.76-12.16Zm101.64 5.3c-.33-9.14-1.41-19.2-6.85-28.21-10.28-17-30.94-17.28-41-.53-8.29 13.79-6.8 42.49 2.86 55.44 10.95 14.68 31.35 13.21 40.14-2.91 3.86-7.03 4.83-14.79 4.85-23.79ZM672.86 1518.66a57.34 57.34 0 0 1-3.25 18.4c-8.87 25.4-24 46.34-45.75 62.14-17.25 12.54-36.64 15.14-57 9.29-31.09-8.92-53.28-34.7-56.77-65.91-1.21-10.81 1-21.26 4.94-31.26a125.09 125.09 0 0 1 35.36-49.52c30-25.55 68.14-23.89 98.61 3.81 15.85 14.45 24 32.02 23.86 53.05Zm-49.31-3.2c.05-17.47-14.29-27.93-30.86-22.51-15.63 5.11-33.38 28.47-34.11 44.87-.75 17.08 14.4 28.81 30.73 23.8s34.2-29.16 34.24-46.16ZM1361.35 389.67c11.08-18.16 22.35-36.21 33.12-54.56 2.8-4.76 5.72-5.31 10.13-3.22a119.49 119.49 0 0 1 25.4 15.75c3.13 2.59 3.81 5 1.4 8.88q-37.45 60.78-74.4 121.85c-2.28 3.77-4.72 4.77-8.54 3.14a118.68 118.68 0 0 1-29.63-18.25c-2.31-1.93-2.56-4.43-2.39-7.22q1.86-31.17 3.6-62.34c.24-4.1.38-8.2.63-13.93-1.63 2.44-2.45 3.56-3.16 4.74-10.49 17.18-21.07 34.31-31.36 51.62-2.28 3.84-4.73 4.55-8.54 2.86a117.5 117.5 0 0 1-26.73-16.38c-2.94-2.39-3.18-4.76-1.1-8.15q38.12-62.13 75.92-124.43c1.87-3.08 3.76-3.72 6.89-2.32a104.94 104.94 0 0 1 29.31 19.62c3.07 2.89 3.52 6.38 3.21 10.48-1.72 22.91-3.21 45.84-4.77 68.76-.06.93 0 1.87 0 2.81ZM1412.76 1523.37c.06 21.62-10.5 37.49-25.68 50.78-11.14 9.75-22.74 19-34.25 28.33-6.8 5.52-11.58 5-17.08-1.73q-43.66-53-87.26-106.08c-7.53-9.18-7-13.71 2.19-21.22 9.93-8.11 19.71-16.41 29.77-24.35 11.61-9.17 24.29-16.21 39.19-18.67 12.86-2.12 25.22-.31 36 6.58 28.48 18.11 47.93 43.2 56.16 76.37a20.88 20.88 0 0 1 .54 3.44c.23 2.32.31 4.65.42 6.55Zm-48.3 4.47a27.54 27.54 0 0 0-3.54-13.35 95.79 95.79 0 0 0-23.35-29.53c-9.34-7.92-16.83-8.27-27.34-1.91-8.52 5.16-8.52 5.16-2.17 12.86l1.26 1.54c12.67 15.41 25.46 30.73 37.94 46.29 3.53 4.39 6.31 4.33 10 .5 4.46-4.63 7.3-9.84 7.2-16.4ZM816.6 1630.12c7.46 6.49 12.94 14 15.06 23.66 7.11 32.36-17.06 58.67-49.63 53.34-23.84-3.89-46.46-12.62-69.61-19.22-5.31-1.51-7-6.07-5.21-12.21q10.15-35.19 20.48-70.34c6.95-23.76 14-47.49 20.84-71.28 1.3-4.53 3-6.24 8-4.65 17.91 5.62 36 10.73 54 16.1a78.28 78.28 0 0 1 18.61 8.33c12.63 7.77 20.72 18.48 19.77 33.91-1.1 17.76-8.24 32.1-25.44 39.75-2.09.94-4.29 1.64-6.87 2.61Zm-45.09 35.15c7.31 0 12-4.23 14-12.42 1.83-7.69-.1-12-7.11-15.51-2.07-1-4.34-1.67-6.45-2.63-3.78-1.74-5.92-1.18-6.78 3.45s-2.61 9.26-4 13.88c-3.27 11.26-1.68 13.3 10.34 13.23Zm14.88-56.61c7.88.15 12.61-2.78 14.82-9.14 3.83-11-4.56-22.15-16.5-22-2.31 0-2.13 1.66-2.52 3-1.72 5.7-3.36 11.43-5.05 17.14-3 10-2.51 10.62 8.25 11ZM367.63 467.29c11.08-.07 21.38 3 31.13 8a130.41 130.41 0 0 1 42.16 33.86c24.08 29.41 22.25 64.94-4.52 94-21.81 23.66-52 29.73-80.94 15.76-19.72-9.5-36.19-23.2-48.13-41.66-14.13-21.84-15-44.89-2.89-67.74 11.33-21.34 28.07-36.58 52.75-41.26a29.3 29.3 0 0 1 3-.43c2.45-.26 4.94-.39 7.44-.53Zm20 111.69c17.05.23 28.17-15.9 20.92-31.91-7.75-17.14-21.41-28.33-40.12-31.87-14.54-2.74-27.32 9.56-25.64 23.63C345 557.23 369 578.72 387.61 579ZM506.77 1392.85a40 40 0 0 1-5.42-.45c-2.24-.42-3.63-1.62-4-4.34-2.94-25.23-23.14-36.35-45.89-25.28a72.6 72.6 0 0 0-19.16 13.4c-19.06 18.67-10.08 41 9.08 52.3 3.92 2.31 4.39 4.07 3.11 7.72a66.13 66.13 0 0 1-14.68 23.54c-4.15 4.41-9.13 5.14-14.62 3.08a24.57 24.57 0 0 1-5.8-2.83c-20.52-14.89-35-33.83-37.49-59.79a61.72 61.72 0 0 1 12.85-44.58c18.77-24.37 42.93-40.82 73.84-45.18 22.19-3.12 42 3.28 57.81 19.55a82.49 82.49 0 0 1 21.6 39.38c2.71 11.59-.29 16.82-11.5 20.46a66.72 66.72 0 0 1-19.73 3.02ZM942.83 283.72c.43-17 2.67-33.59 10.68-48.83 21.77-41.38 64.63-44.33 96.47-29 8.3 4 10.08 9 7.41 17.68a58.45 58.45 0 0 1-11.8 21.23c-2 2.29-4.06 4.07-7.68 1.88-20.1-12.18-40.24-3.67-45.65 19.12a62.29 62.29 0 0 0-1.14 25.2c3.28 18.88 16.53 28.28 35.59 25.36 3.27-.5 6.81-.64 9.54-2.62 3.52-2.55 5.58-1.41 7.69 1.77a63.24 63.24 0 0 1 9.49 25c1.12 6.64-1.78 11.26-7.56 14.3a54.06 54.06 0 0 1-18.1 5.28c-54.8 7.55-82.62-27.17-84.48-67.41-.14-2.97-.29-5.96-.46-8.96ZM1412.82 1368.75c-2.55 3.85-5.21 7.29-7.23 11.08-2.15 4-5.22 5-9.12 3.6a59.56 59.56 0 0 1-24.72-16.37c-2.51-2.78-2.87-5.46-.56-8.92q20.54-30.73 40.64-61.74c2-3 4.11-4 7.51-3a58 58 0 0 1 26 17c2.47 2.75 2.38 5.33.28 8.51-7.19 10.88-7.08 11 3.71 18.06 19.46 12.82 38.93 25.63 58.81 38.71 2.61-4 5.31-7.71 7.64-11.68 2-3.34 4.59-4.09 8-3a55 55 0 0 1 25.5 16.83c2.34 2.74 2.55 5.28.4 8.52q-20.49 30.75-40.6 61.77c-2.38 3.68-5.14 4.25-8.88 2.93a60.73 60.73 0 0 1-24-15.67c-3.1-3.26-3.47-6.18-.78-10.12 7.23-10.57 7.07-10.69-3.54-17.67-19.57-12.87-39.17-25.75-59.06-38.84ZM771.27 227.79c-.43-11.26.59-12.38 10.42-14q31.24-5.21 62.46-10.64c8.68-1.51 9.52-1 12.64 7.48a60.14 60.14 0 0 1 3.48 22.55c-.13 5-2 7.8-7.52 8.53-10.91 1.43-11 1.73-9.19 12.62 3.59 21.66 7.38 43.29 11 64.95.5 3 1.65 4.05 4.59 3.31 1.94-.48 3.93-.7 5.9-1 9-1.53 9.87-1.07 13 7.7 2.81 7.94 4.11 16.08 2.93 24.53-.48 3.42-2.14 5.25-5.68 5.84q-35.18 5.86-70.33 12c-3.86.68-6.43-.32-8-4a59.63 59.63 0 0 1-4.97-27.79c.29-4.53 2.31-6.66 7-7.26 12-1.51 11.84-1.7 9.75-13.92-3.54-20.66-7.1-41.31-10.34-62-.71-4.55-2.17-6.51-6.79-4.84a6.27 6.27 0 0 1-1 .17c-13.21 2.39-14.09 1.8-17.5-11.55a56.09 56.09 0 0 1-1.85-12.68ZM1110.2 367.36c.32-9.75 3.21-18.16 7.62-26.14 2.26-4.08 5-5.39 9.84-3.78 11.35 3.8 11.42 3.56 14.95-7.9 6.18-20 12.17-40.07 18.69-60 1.64-5 .48-6.91-4.31-7.66-1.8-.28-3.49-1.19-5.28-1.47-6.23-1-7.61-4.9-6.8-10.48a66.92 66.92 0 0 1 7.63-23.58c2.25-4 5-5.37 9.85-3.82q33 10.55 66.25 20.33c4.82 1.42 6.27 4 5.91 8.69a60.4 60.4 0 0 1-7.9 25.5c-2.22 3.94-4.92 5.09-9.44 3.59-11.26-3.72-11.29-3.52-14.74 7.77-6.33 20.66-12.61 41.32-19.12 61.93-1 3.08-.66 4.53 2.61 5.19 2.27.46 4.45 1.33 6.68 2 7.53 2.3 8.07 3.37 7.19 11.48a56.61 56.61 0 0 1-7.69 23c-2.22 3.78-4.93 5-9.51 3.56Q1149.39 385 1116 375c-4.67-1.38-6.47-3.65-5.8-7.64ZM532.63 354.08c.47 3-1.45 3.75-2.89 4.78-9.49 6.77-18.95 13.58-28.54 20.2-2.35 1.62-2.52 2.73-.81 5q5.76 7.55 11 15.47c1.47 2.21 2.57 2.38 4.68.81 5.74-4.27 11.75-8.19 17.42-12.56 2.8-2.16 5-2.13 7.34.3A85.51 85.51 0 0 1 556.37 410c1.29 2.62.84 4.56-1.79 6.32-5.81 3.88-11.29 8.27-17.19 12-3.33 2.12-3.07 3.63-1 6.52 9.21 12.65 18.09 25.55 27.3 38.21 2.27 3.11 2.52 5.58-.2 8.33a97.76 97.76 0 0 1-27.35 19.84c-3.88 1.86-6.47 1.3-9.18-2.54q-41.58-59-83.51-117.77c-4.35-6.13-4.17-7.18 2-11.57q30.52-21.74 61.06-43.45c2.27-1.62 4.19-2.56 6.53-.24a99.2 99.2 0 0 1 19.07 26.69 6.65 6.65 0 0 1 .52 1.74ZM1252.06 1655.18c.18 5-1.2 7.14-4.52 8.47-21.31 8.5-42.53 17.22-63.81 25.78-7.4 3-13.54-.22-17.12-9-8.69-21.23-17.26-42.5-25.87-63.76-9-22.19-17.81-44.43-27-66.52-2.08-5-1.36-8 3.3-10.62a138 138 0 0 1 31.34-12.71c4.82-1.3 7.78-.13 9.86 5.15 12.89 32.62 26.26 65 39.22 97.63 1.65 4.14 3.2 4.73 7.12 3 8.65-3.86 17.55-7.13 26.26-10.87 3.27-1.4 5.82-1 7.93 1.74a69.44 69.44 0 0 1 13.29 31.71Z" class="cls-4"/><path d="M1472 737.3c2.06-19.83 5.77-39.39 9.36-59 2.7-14.79 13-22.73 25.25-28.54 16.82-8 34.94-12 53.08-15.73 10.3-2.11 19.82.27 29.33 4.6 14.8 6.73 29.77 12.93 43 22.79 11.86 8.86 15.45 20.88 11.27 34s-3.18 26.2-4 39.35c-.54 9.11-.82 18.28-2 27.3-1.8 13.36-12.18 18.83-23.17 23.3a352 352 0 0 1-35.2 11.94c-6.33 1.82-12.13.55-18-.25-24.29-3.29-45.92-13.56-66.81-25.84-6.88-4-14.35-7.13-18.41-14.59-3.37-6.03-4.02-12.58-3.7-19.33Zm115.65 48.61c10.57-2.26 20.16-7.09 29.88-11.54 5.17-2.37 9-6.24 10.46-11.82 2.87-10.61 2.42-21.56 3.43-33.22-14.44 19.72-28.5 38.55-44.63 55.71-.41.38-1.4.63-.76 1.34.4.47 1.21.27 1.6-.47Zm-106.24-46.26c1.43.4 2.08-.8 2.91-1.51 7.15-6.2 14.22-12.49 21.43-18.63 8.23-7 16.52-14 27.51-17.14-9.19-10-20.71-16.93-30-26.43-2.46-2.53-5.5-7-8.45-5.86-3.35 1.28-4.1 6.41-4.81 10.35-2.47 13.71-5.12 27.38-7.26 41.14-.93 6-2.6 12-1.26 18.19l-.62.12.15.39ZM1626 719.17c-7.7-1.64-15-3.71-22.58-4.53-14-1.52-28-3.12-41.87-5.11-9.79-1.4-13 1.22-12.28 11.2a30 30 0 0 0 .2 4.47q6.65 30 13.43 60c1.18 5.15 4.7 6.44 8.74 3a112.89 112.89 0 0 0 13.39-13c10.78-13 21.41-26 31.56-39.47 3.78-5.06 8.71-9.73 9.41-16.56Zm-86.75-8.33c-20.61 10.49-35.76 26-51.66 40.61 18.64 20.55 37 24.71 62.93 34-2.59-24.73-11.75-48.35-11.25-74.61Zm46.19-63.32c-13.55 14.5-22.5 31.31-31.32 48.19-2.92 5.61-2.66 5.84 3.57 7 15.36 2.89 31 2.3 46.46 3.94 7.34.77 14.64 1.9 23.35 3.05a556.75 556.75 0 0 0-42.04-62.18Zm-81.82 13.61c.93 1.35 1.33 2.07 1.85 2.68a188.72 188.72 0 0 0 31.12 29.12c3.57 2.71 5.47 2.5 7.77-1.51 4.34-7.61 9.29-14.86 13.85-22.35 5.63-9.28 11.13-18.64 17.53-29.39-26.12 4.01-50.17 9.32-72.1 21.45Zm93.44-11.42c12.21 17.66 23.51 35.62 35.1 54.17 1.06-4.27 2.25-7.76 2.77-11.34 1.26-8.76 1.14-17.45-5.73-24.18-9.09-8.91-20.9-13.36-32.12-18.65Z" class="cls-1"/><path d="M621.63 882.67a256.17 256.17 0 0 1 12.3-96.37c10.3-31.65 23.45-62.27 41.47-90.51 8-12.47 18.54-22.63 29.53-32.36 1.93-1.71 4.66-2.5 7-3.84 1.9-1.1 2.7.16 3.6 1.41 7.1 9.84 14.28 19.62 21.28 29.54 3.7 5.24 8.16 9.05 14.69 10.27 18 3.34 34.43-.76 50.21-9.62 16.91-9.49 30.22-22.94 41.83-38 10.69-13.83 10.42-30.36-4.5-41.75a17.84 17.84 0 0 1-6-7.52c8.8-4 18.36-5.22 27.68-7 24.62-4.77 49.49-4.58 74.46-3.48 26.77 1.19 52.25 7.38 76.89 17.47s46.54 23.74 65.46 42.84c28.72 29 48.72 63 61.76 101.29 7.37 21.66 10.47 44.32 13.12 67 3.92 33.52 3.67 67.1 1 100.69-.53 6.63-1.57 13.21-2.29 19.82-.3 2.82-1.32 3.71-4.18 2.47-14.59-6.37-30-9.46-45.74-11.14a4.76 4.76 0 0 0-1.49-.1c-3.5.81-8.43-.37-9.19 4.8-.88 6 4.52 5.34 7.87 5.93 21 3.73 41 10.48 58.47 22.9 14.2 10.08 26.87 21.86 32.19 40.09a150.24 150.24 0 0 0-27.64 2.17c-11.77 2.11-23.48 4.48-34.25 10-1 .53-2.06 1.08-3 1.69-2.27 1.43-3.84 3.2-3 6.17s3.13 3 5.56 3.14c9.27.7 17.66-3.09 26.18-5.61a72 72 0 0 1 33.9-1.86c4.53.82 9.3.41 14 .3 24.12-.6 43.93 8.53 57.87 28 8.7 12.16 9.36 26.72 6.4 41.29-6 29.3-24.41 49-48.61 64.8-30.4 19.82-63.31 23.12-98.5 18.67-19.77-2.51-32.92-14.74-46.85-26.06a328.2 328.2 0 0 0-79.92-47.56c-19.38-8.19-40-12-60-18.07a209.33 209.33 0 0 1-42-18.3c-24.24-13.66-39.17-34.3-44.77-61.72-2.63-12.85-5.64-25.63-8.92-38.33a44.48 44.48 0 0 0-15.27-23.47c-4.21-3.47-8.82-4.42-13.88-1.9-10.39-8.34-22.11-14.69-33.5-21.39-14.78-8.71-31.38-13.44-47.51-19.19-24.77-8.85-50.24-13.15-76.39-14.85-9.2-.56-18.48.14-27.32-2.75Zm338.13-11.27c2.13 0 3.25 1.39 4.47 2.45 10 8.74 21.13 16 31.51 24.25 11.43 9.1 25.57 11.28 40.65 8.93 14.78-2.3 22.15-10.43 20.42-25.42-3.12-27.05-17.28-48.71-34.45-68.44-22.33-25.65-52.31-39-84.07-48.55-28.74-8.63-58-7.23-86.94-1.32-23.54 4.81-47.31 9.52-67.82 23.41-5.22 3.54-10.61 6.83-15.85 10.36-1.4.94-2.38 2.37-1.68 4.3.42 1.15 1.06 2.4 2.38 2.19 6.47-1.06 12.42 1.91 18.76 2.41 23.3 1.81 45.79 8 67.92 15.46 3.36 1.14 1.85 2.87 1 4.53a67.8 67.8 0 0 0-7.54 24.14 224.79 224.79 0 0 0 3.91 68 159.8 159.8 0 0 0 18.69 49.21c11.77 20 36.53 30.11 61 25 8-1.67 16-2.9 21.6-10 10.55-13.37 12.13-29.18 10.9-45-1.69-21.87-3.33-43.73-4.86-65.91Z" class="cls-5"/><path d="M1460.14 938.94c-7.37-6.67-13.57-14.59-22.26-19.84-13.78-8.32-27.49-7.48-41.16-.1-3.85 2.08-7.28 3.48-12 2.86-12.61-1.66-23.8 1.57-31.92 12.19-1.61 2.11-3.1 4.32-3.42 7.1-.79 6.81 2.6 9.59 9.2 7.7 2.37-.68 4.89-.78 7.32-1.27s4.83-1.13 7.36-1.73c-.06 14.18 12 18 21.1 23.69 7.09 4.41 15.62 6.36 22.42 11.7 2.93 2.31 3.74 4 1.84 7.72-6.74 13.13-19 20.32-30.15 28.55-13.78 10.16-28.23 19.42-42 29.6-23.06 17.05-35.66 41-44 67.8-9.28 29.75-14.39 60.45-21.55 90.68-9.12 38.5-18.7 77.13-37.6 112.27-14.71 27.36-31.89 53.16-60.3 68.87-4 2.22-6.18 2.67-9.36-1.72-19.12-26.37-43.53-47-71.28-63.79-22.69-13.74-47-18.61-73.19-13.23-20.06 4.12-39.23 10.92-58 19-2.77 1.2-4 1.24-5.68-1.7-12-20.74-18.91-42.91-17.86-66.93.62-14 2.09-28.3 11.62-40 .94-1.15 2.11-2.12 3-3.32 2.87-3.93 5.88-4.09 10.19-1.71 12.55 6.95 25.81 12.16 40.12 14.27a113.26 113.26 0 0 0 46.41-3c22.15-6 43.86-13.11 63.85-24.69.58-.33 1.46-.54 1.67-1 3-6.89 8.65-4.72 14-4.38 23.51 1.52 45.73-4.38 67.58-12.2a42.66 42.66 0 0 0 11.62-6.74c14.94-11.57 31.74-20.93 43.68-36.08 19.9-25.27 28.54-53.24 18.58-84.89-5.42-17.22-19-27.16-34.43-34.9-9.38-4.72-19.47-7.37-29.78-9.19a3.65 3.65 0 0 1-3.31-2.46c-8.42-21.83-24.55-37.24-42.78-50.8-2.51-1.87-3.09-3.15-2.45-6.34 1.75-8.78 4-17.74 3.74-26.57-.35-12.84 6.32-22.31 12-32.56 8.91-16 17.72-32.15 21.33-50.27 5.92-29.6-2.25-54.62-26.27-73.7-4.55-3.62-9.22-7.29-14.38-9.85s-6.91-6.41-8.59-11.32c-10-29.15-23.75-56.36-43-80.53-17.72-22.27-37.75-42.1-62.67-56.43-1.86-1.07-2.36-2.71-2.84-4.44-7-25.13-11.49-50.79-16.06-76.42-4.29-24-6.5-48.36-8.93-72.65a29.34 29.34 0 0 1 0-3c33.62 3.91 65.89 12.46 97.49 23.57s61.46 25.82 90.63 42.27c30.69 17.32 58.45 38.37 84.7 61.71 4.15 3.69 5.21 6.77 5 12.16-.81 20.94-.85 41.92-1 62.89a56.72 56.72 0 0 0 1.11 9.86c.77 4.58 3.65 6.65 8.15 8.17 22.64 7.68 46.17 7.26 69.54 8.41 2.54.12 4.34.74 5.94 3.32a553.71 553.71 0 0 1 47.82 96c9.57 25.34 17.72 51.06 22.76 77.71.43 2.27.79 4.56 1.26 7.22a38.54 38.54 0 0 0-20.8 5.5c-2.68 1.6-5.88.38-8.83.6a17.14 17.14 0 0 0-15.75 21c.89 4 4.73 5.42 8.62 3.26 10-5.53 9.87-5.46 16.8 3.31 7.52 9.49 16.49 17.85 22.1 28.83 1.51 3 3.2 5.83 4 9.11Zm-148.83-86.41A21.78 21.78 0 0 0 1321 851c10.78-4.22 18.74-12.53 28-18.88 13.59-9.28 24.31-22.12 38.21-31.06 2.31-1.48 3-4.22 3.19-7a27 27 0 0 0-2.56-13.1c-4.88-10.55-9.56-21.22-15-31.48-9.13-17.29-15.93-35.95-29.32-50.77-.42-.46-.95-1.25-.82-1.7 1-3.39-1.77-4.2-3.74-4.83-4.42-1.41-8.86-2.3-13.62-.58a212.29 212.29 0 0 0-40.14 20c-13.85 8.62-27.71 17.26-38.71 29.64a19.47 19.47 0 0 0-4.87 17.11c4.32 24.87 12.34 48.09 27.61 68.74 11.17 14.91 25.22 23.56 42.08 25.44Z" class="cls-6"/><path d="M621.63 882.67c8.84 2.89 18.12 2.19 27.16 2.78 26.15 1.7 51.62 6 76.39 14.85 16.13 5.75 32.73 10.48 47.51 19.19 11.39 6.7 23.11 13 33.5 21.39.78 5.12 4.91 8.16 7.61 12.06 7.22 10.45 9.54 22.51 12.14 34.55 3.44 16 6.12 32.38 14 46.75 8 14.6 18.88 27.32 33.77 35.77a320.56 320.56 0 0 0 74.37 30.91c17.79 4.84 35.8 10.24 51.35 19.92 22.74 14.14 47.48 25.42 67.23 44.17 1.76 1.67 4.19 2.66 6.38 3.83 5.83 3.09 11.65 5.87 16.68 10.59 5.66 5.32 13.2 8.19 21.71 10.6-8.31 3.7-16.52 5.2-24.13 8.44-16.54 7.07-34.29 9-52 11.12-4.61.57-9.35.9-13.76 2.23-11.7 3.53-22 0-32.54-4.74-30-13.36-57.9-30.42-85.24-48.5-12.48-8.25-25.53-15.7-38.52-23.07-13.32-7.58-18.88-19.26-22.89-32.82-4.9-16.54-7.58-33.68-13.81-49.86-4.79-12.43-10.88-24-21.17-32.74-9.81-8.35-21.5-9.81-33.77-8-1.72.26-4.13 1.06-4 3.7.08 2.3 1.61 3.18 3.74 4 15.49 5.79 28.37 14.8 35.73 30.23 3.85 8.08 4.69 16.94 6.3 25.57 2.48 13.25 4.94 26.47 10.05 39a31.26 31.26 0 0 0 5 8.61c13.37 15.91 28.58 29.56 47.07 39.4 24.79 13.19 49.45 26.59 74.16 39.92.7.38 1.33.88 2.1 1.4-11.05 5.47-17.55 14.41-20.83 25.68-6.14 21.1-7.19 42.43.4 63.31 5.48 15.09 10.08 30.66 19.66 44.29-16.64 9.34-31.82 20-45.1 33.29-12.24 12.22-25 23.91-36.82 36.57-5 5.4-5.55 11.52-5.08 18a337.89 337.89 0 0 0 6.27 44.43c.16.8.16 1.64.32 3.39-111.12-17.71-206.07-66.31-287.61-144.84 19.22-2.25 36.62-7.09 54.58-8.34a8.88 8.88 0 0 0 7.05-3.81c10-12.91 15-28.18 19.75-43.38 7.71-24.6 14-49.58 16.79-75.31 1.59-14.85 3.12-29.7 2.64-44.73 4.39 10.82 6.43 22.17 8.66 33.49a220 220 0 0 1 3.79 51.65c-.22 5.2 2.35 6.93 6.8 6.89 4.22 0 7.26-1.4 7.42-6.6a254.6 254.6 0 0 0-11.51-84.51c-6.14-19.68-12.32-39.35-22.62-57.29s-19.45-36.64-25.46-56.62a851.25 851.25 0 0 1-23-94.22c-3.56-19.76-5.89-39.69-8.29-59.61a18.73 18.73 0 0 1 .07-2.98Z" class="cls-7"/><path d="M665.73 532.85A723.88 723.88 0 0 0 706 640.55c-15.84-.16-28.29-7-38.76-18.12-7.42-7.87-15.09-15.53-21.67-24.14-2.23-2.91-5-3.2-8-2.19s-2.17 3.77-2 6c1.89 26.32 9.1 51.19 23 73.53 4.56 7.34 4.45 11.65-.32 18.11s-8.08 13.73-11.79 20.78a5.17 5.17 0 0 1-5.45 3.18c-23-.71-43.82-7.23-60.91-23.32-2.61-2.45-5.24-3.61-8.49-2-3.56 1.77-2 4.68-1.4 7.42 5.83 28.79 22 51.61 43 70.87 6.3 5.77 7.55 9.76 5.28 17.17a194.47 194.47 0 0 0-7.26 31.57c-.52 3.92-2.49 4.87-6 4.36-19.07-2.84-37.83-6.69-54.86-16.36-4.71-2.67-9.1-6.2-15.22-4.24-3.41 1.1-4.64 2.92-3.6 6.3 6.57 21.33 16.78 40.53 32.51 56.53 10.27 10.47 20.53 20.94 34.28 27 1.07.47 2.2 1.45 3.19 1.33 6.89-.84 6.41 3.93 6.91 8.4 1.11 9.91 2.43 19.79 3.81 29.67.4 2.9.21 4.16-3.46 4.58-21.43 2.49-41.5-2.69-61.26-10a14.77 14.77 0 0 0-5.76-1.38c-4.42.17-6 2-4.58 6.45 4.9 15.4 13.94 28.34 24.61 40.09 13.26 14.61 27.77 27.76 46.7 34.9 6.51 2.45 12.9 5.35 20 5.6 2.07.07 2.43 1.32 2.85 2.78 1.89 6.72 3.66 13.48 5.72 20.15.83 2.69-1.07 2.53-2.49 3.22-20.75 9.94-42.58 8.88-64.56 6.38-3.37-.38-7.81-2.6-9.81.5-2.34 3.62 2 6.63 4.17 9.14 15.69 18.43 34.54 32.24 57.61 40.53 12.13 4.36 24.14 7.23 37 6.3 3-.21 4.09.87 5.29 3.67 6.73 15.72 5.61 32.23 5.47 48.66-.24 29.72-4.92 58.92-10.45 88.66a143 143 0 0 0-27.85-16.74c-12.36-5.65-24.93-8.22-38.7-6.79-13.53 1.4-27.23 1.11-40.81 2.47-13.86 1.38-27.71 3-41.39 5.53-2.7.51-3.69.08-5-2.16a540.24 540.24 0 0 1-45-98.09 481.24 481.24 0 0 1-20.74-85.42c-2.06-13.83-3.44-27.79-4.53-41.78-.91-11.57-1.38-23.22-1.36-34.68a519.5 519.5 0 0 1 5.45-76c4.41-29.46 10.55-58.42 20.17-86.63a547.42 547.42 0 0 1 51.56-110.18 507.53 507.53 0 0 1 87.15-106.34A491 491 0 0 1 663.72 534c.52-.39 1.09-.65 2.01-1.15Z" class="cls-6"/><path d="M1185.58 1400c38.08-15.16 58.35-46.06 74.87-80.52 6.84-14.25 14.23-28.24 18.38-43.62 5.41-20.09 12.34-39.68 19-59.38 7-20.89 9.41-42.84 12.52-64.57 2.7-18.9 7.64-37.2 15.88-54.37 6.94-14.44 18.28-25.54 30.21-36.12 14.28-12.65 32.3-20.16 45.93-33.37 9.64-9.36 20.39-17.56 29.18-27.82 2.39-2.78 2.24-5.42 2-9-1.29-16.39-12.66-23.22-25.75-28.63a23.62 23.62 0 0 1-12.62-11.5 13.58 13.58 0 0 1 3.41-16.69c5.5-4.62 11.5-6.25 18.94-5.06 16 2.57 26.59 12 34.74 25.11 3 4.82 3.55 10.31 4.28 15.75.51 3.73 6.89 10.12 10.25 10.35 1.45.09 10-6.9 10.43-8.44 4.39-15.57 2.48-30.31-4.28-45a84.26 84.26 0 0 0-16.79-23.76c-4.08-4.2-8.11-8.4-10.7-13.73-1.76-3.6-2-7.27 1.37-10 3.22-2.55 6.45-3.09 11-1.43 29.08 10.64 37.78 37.24 49.25 61.72a44.5 44.5 0 0 1 3.72 10.31c1.1 5.72 5.27 6.86 9.82 7.33 4.93.51 8.88-3.87 6.62-8.41-4.81-9.67-1-15.06 7-20.08 5.06-3.18 8.5-8.38 12.37-13 7.06-8.36 6.38-18.16 5.31-28-1.56-14.54-3.55-29.07-.34-43.63.91-4.11 2.1-8.15 7.35-8.83 5.65-.74 8.82 2.53 10.86 7 7.28 15.86 7.9 32.63 3 48.84-8 26.58-17.3 52.85-34.54 75.32a13.93 13.93 0 0 0-2.49 3.72c-1.06 3.19-1 5.6 3.46 6.46 8.08 1.59 13.81-2.94 18.12-8 7.3-8.53 15.67-15 26.32-18.05 14.21-4.06 22.64-13.55 28.2-26.69 3.8-9 6.48-18.59 12.59-26.51 1.4-1.82 2.57-4.24 5.36-3.76 2.55.44 3 2.86 3.6 4.94 4 13.81 3.47 27.4-.51 41.28-5.86 20.42-19.27 34.56-36.06 46.2-24.34 16.88-47.73 35.09-72.63 51.16a515 515 0 0 1-72.12 38.38c-17 7.47-32.48 17.54-43.62 33.13-3.47 4.86-8.58 8.28-12.35 13-11.56 14.55-16.94 31.5-20 49.41-4.83 27.85-10.9 55.7-9.22 84.09.67 11.37-6 17.42-11.59 24.47a546.09 546.09 0 0 1-56.53 61.73c-28.11 26.08-59.11 48.23-92.27 67.39-9.53 5.51-9.68 5.27-16.7-3.59-1.43-1.68-2.67-3.45-4.23-5.53Z" class="cls-8"/><path d="M949.67 1478.8q-27.52-1.62-55-3.24c-2.69-.15-4.21-1.34-4.78-4.07-3.56-17.12-5.71-34.43-7.55-51.79a4.77 4.77 0 0 1 1.66-4.38c20.5-19.47 40.29-39.74 63.33-56.31 18.39-13.22 38.88-22.22 60.21-29.58a133.71 133.71 0 0 1 36.08-6.79c16.53-1 31.12 4.88 44.72 13.32 18.53 11.5 36.64 23.76 52.09 39.24 8.77 8.78 16 19 24 28.6q6.4 7.64 13 15.1c2.55 2.89 3.32 4.71-1.21 6.86-41.37 19.68-84.25 34.86-129.32 43.39a483.89 483.89 0 0 1-48.65 6.59c-12.4 1.06-24.77 2-37.22 1.93-3.76-.01-7.48 1.47-11.36 1.13Z" class="cls-5"/><path d="M840.1 589c-5.67 2-11 3.53-15.88 5.88-2.88 1.38-4.31.9-6.34-1.19-13.31-13.74-25.9-28.2-40.22-40.93-18-16-34.62-33.13-49-52.44-.49-.65-.92-1.35-1.34-2 77.08-37.27 158.35-53 244.47-50.17-11.18 21.4-21.66 41.93-31.31 62.87-9.75 21.15-15.65 43.37-18.74 67.07-7.28-3.08-15.23-3.81-22.66-6.44-18.32-6.5-36.61-13-51.79-25.87a215.14 215.14 0 0 0-28.39-20.26c-2-1.21-4-2.61-6.38-2.56-3 0-5.55 1.18-4.79 4.77 4.31 20.47 11.83 39.46 26.07 55.25 1 1.1 2.3 1.91 3.4 2.94.96.93 1.8 1.93 2.9 3.08Z" class="cls-6"/><path d="M659.84 410.45C664.2 419.33 668 428.54 673 437c14.72 24.7 27.17 50.79 45.1 73.51 18.31 23.2 35.73 47.21 58.4 66.56 17.46 14.91 35.18 29.5 52.75 44.27 2.64 2.22 5.86 1.93 8.93 2.28-2.45 14.16-11 24.56-20 34.92-10.42 12-23.86 19.33-37.82 26.05-3.74 1.8-7.66 3.42-11 5.82-4 2.88-7.23 1.6-11-.22-13.66-6.63-20.21-19.22-27-31.68-20-36.76-35.27-75.54-47.75-115.37-5.65-18-9.39-36.64-14-55-4.81-19-7.74-38.39-10.68-57.76-.93-6.55.07-13.06.91-19.93ZM1001.1 422.86c8.08 59.3 14.95 118.14 27.89 176.57-2.77-1-5.62-1.92-8.41-3a249 249 0 0 0-74.1-15.86c-2.31-.14-4.61-1-6.89-.85-3.22.16-3.77-1.52-4.21-4.16-1.79-10.8 2.8-20.21 6.45-29.73 6-15.71 14.93-30 22.4-45.06 8-16 14-33.08 22.54-48.83 5.06-9.35 7.8-19.82 14.33-29.08Z" class="cls-7"/><path d="M515.18 1240.72c20.43-1.14 39.63-6.34 59.27-7.71 18.93-1.32 38.25-2.24 54 11.65 5.37 4.72 10.29 9.94 15.45 14.89 1.18 1.14 2.39 2.8 3.8 3.06 6.33 1.19 5.35 4.66 3.83 9.25-3.88 11.68-7.43 23.46-13.08 34.48-1 2-2 3.22-4.42 3.19-19.06-.22-37.44 4.84-56.12 7.52-2.1.3-3.46.11-4.81-1.41-20.8-23.41-41.1-47.26-57.92-74.92Z" class="cls-8"/><path d="M1431 616.61c1 6.08-2.57 14.3-6.57 22.44a4.25 4.25 0 0 1-4.68 2.7c-23.07-1.28-46-3.66-68.9-6.88-2.72-.39-3.61-2.07-3.92-4.38-.89-6.58-2.33-13.14-2.47-19.73-.42-19.1-2.16-38.2-.16-57.32.84-8 .76-8.27 8.92-7.75 18.39 1.18 36.85 1.32 55.16 3.76 2.29.3 4.56.79 6.84 1.22 9.45 1.79 11.2 3.26 12 12.88 1.43 16.55 2.38 33.14 3.78 53.06Z" class="cls-7"/><path d="M1444.77 1103.3c-13.91 48.73-34.77 93.34-61.45 137.2.11-12.35 1.92-22.88 3.55-33.43 4-26.13 13.71-50.19 26.37-73.23 3-5.41 6.47-10.47 9.4-15.87 4.64-8.56 13.48-10.55 22.13-14.67Z" class="cls-6"/><path d="M551.65 940c11 4.8 21 9.73 31.93 12a102.7 102.7 0 0 0 27.66 1.64c3.32-.21 4.86.35 5.62 4.12 3.18 15.9 6.88 31.7 11.59 47.34-20.53.58-70.31-41.38-76.8-65.1Z" class="cls-8"/><path d="M1415.64 651.89c-9.48 17.23-24.37 24.82-43 23.2-15-1.29-30.18-1.19-45.19-3.09-2.11-.26-4.19-.75-7.09-1.29 7.83-8.71 10.81-20 19.94-27 1.46-1.12 2.42-2 4.71-1.31 13 4 26.45 5.47 39.78 7.77 10.14 1.74 20.21.83 30.85 1.72ZM1161.14 766.11c31.38 19.86 42 53.87 28.59 87.41-4.49 11.21-9.29 22.3-16 32.67.32-20.1-1-40.08-2.72-60a434.4 434.4 0 0 0-9.87-60.08ZM1309.78 664.59c-2-17.47-.11-33.69-.16-49.88 0-10.28-.66-20.62.93-30.88a22.83 22.83 0 0 1 3.76-10.06c5-7.1 11-13.12 17.75-19.51 1.14 5.74-.43 10.88-.45 16-.09 19.14-.09 38.29 3.19 57.18.92 5.34-.36 8.1-4 11.55-6.89 6.5-10.94 15.44-17.74 22.12-.84.81-1.59 1.67-3.28 3.48Z" class="cls-7"/><path d="M608.48 838.64a217.29 217.29 0 0 0-1.86 48.93c-18.58-4.11-59.48-51.88-61.78-72.69 18.98 14.7 39.22 24.66 63.64 23.76ZM659.05 1093.42c-32.34-1.51-57.7-15.94-79.74-37.83 5.9 1.36 11.78 2.77 17.7 4.07a83.56 83.56 0 0 0 44.19-2.1c2.64-.85 4.23-1 5.34 2.08 3.92 10.92 8.04 21.76 12.51 33.78ZM583.71 715.2c22 13.27 24.56 14.13 53.49 17.95-5.12 11.6-9.56 23.35-13.86 36.33-17.43-15.03-28.69-33.48-39.63-54.28ZM819.73 538.07c18.72 16.64 38.22 32 62.7 42.14a207.39 207.39 0 0 0-31.84 5.86c-2.39.63-3.32-1-4.61-2.14-13.92-12.18-20.44-28.66-26.25-45.86ZM692.7 653.49c-8.11 7.81-15.71 15.11-23.54 22.64-9.58-17.52-18.15-35.93-21.6-58.23 11.3 18.1 25.22 30.53 45.14 35.59Z" class="cls-8"/><path d="m1482.56 519 43-22.56c.3 2.8-1.35 3.94-2.32 5.33-7.44 10.59-15 21.08-22.43 31.71-1.64 2.35-2.66 2.85-4.72.43-4.24-4.91-8.7-9.58-13.53-14.91Z" class="cls-2"/><path d="M1461.45 939.64c1.16.52 1.1 1.38.51 2.81-.34-1.05-.57-1.73-.8-2.41ZM1461.16 940l-1-1.1.92-.79.39 1.49Z" class="cls-6"/><path d="M1018.46 1647.24c0 9-1 16.71-4.85 23.79-8.79 16.12-29.19 17.59-40.14 2.91-9.66-13-11.15-41.65-2.86-55.44 10.06-16.75 30.72-16.5 41 .53 5.44 8.97 6.52 19.07 6.85 28.21ZM623.55 1515.46c0 17-18 41.16-34.24 46.16s-31.48-6.72-30.73-23.8c.73-16.4 18.48-39.76 34.11-44.87 16.57-5.42 30.91 5.05 30.86 22.51ZM1364.47 1527.84c.09 6.56-2.75 11.77-7.21 16.4-3.69 3.83-6.47 3.89-10-.5-12.48-15.56-25.27-30.88-37.94-46.29l-1.26-1.54c-6.35-7.7-6.35-7.7 2.17-12.86 10.51-6.36 18-6 27.34 1.91a95.79 95.79 0 0 1 23.35 29.53 27.66 27.66 0 0 1 3.55 13.35ZM771.51 1665.27c-12 .07-13.61-2-10.31-13.23 1.35-4.62 3.08-9.17 4-13.88s3-5.19 6.78-3.45c2.11 1 4.38 1.59 6.45 2.63 7 3.5 8.94 7.82 7.11 15.51-1.99 8.15-6.72 12.38-14.03 12.42ZM786.39 1608.66h-1c-10.76-.4-11.21-1-8.25-11 1.69-5.71 3.33-11.44 5.05-17.14.39-1.3.21-2.93 2.52-3 11.94-.17 20.33 10.93 16.5 22-2.21 6.36-6.94 9.29-14.82 9.14ZM387.61 579c-18.64-.26-42.64-21.75-44.84-40.15-1.68-14.07 11.1-26.37 25.64-23.63 18.71 3.54 32.37 14.73 40.12 31.87 7.25 15.99-3.87 32.12-20.92 31.91Z" class="cls-2"/><path d="M1626 719.17c-.72 6.83-5.65 11.5-9.41 16.48-10.15 13.43-20.78 26.52-31.56 39.47a112.89 112.89 0 0 1-13.39 13c-4 3.48-7.56 2.19-8.74-3q-6.83-30-13.43-60a30 30 0 0 1-.2-4.47c-.7-10 2.49-12.6 12.28-11.2 13.92 2 27.89 3.59 41.87 5.11 7.58.9 14.9 2.97 22.58 4.61ZM1539.27 710.84c-.5 26.26 8.66 49.88 11.27 74.63-25.89-9.31-44.29-13.47-62.93-34 15.9-14.64 31.05-30.14 51.66-40.63ZM1585.46 647.52a556.75 556.75 0 0 1 42.06 62.19c-8.71-1.15-16-2.28-23.35-3.05-15.46-1.64-31.1-1-46.46-3.94-6.23-1.17-6.49-1.4-3.57-7 8.86-16.89 17.77-33.72 31.32-48.2ZM1503.64 661.13c21.93-12.18 46-17.44 72.12-21.45-6.4 10.75-11.9 20.11-17.53 29.39-4.56 7.49-9.51 14.74-13.85 22.35-2.3 4-4.2 4.22-7.77 1.51a188.72 188.72 0 0 1-31.12-29.12c-.49-.61-.92-1.33-1.85-2.68ZM1481.47 739.76c-1.34-6.18.33-12.21 1.26-18.19 2.14-13.76 4.79-27.43 7.26-41.14.71-3.94 1.46-9.07 4.81-10.35 3-1.12 6 3.33 8.45 5.86 9.28 9.5 20.8 16.44 30 26.43-11 3.13-19.28 10.12-27.51 17.14-7.21 6.14-14.28 12.43-21.43 18.63-.83.71-1.48 1.91-2.91 1.51ZM1586.77 785c16.13-17.16 30.19-36 44.63-55.71-1 11.66-.56 22.61-3.43 33.22-1.51 5.58-5.29 9.45-10.46 11.82-9.72 4.45-19.31 9.28-29.88 11.54ZM1597.08 649.71c11.22 5.33 23 9.74 32.14 18.65 6.87 6.73 7 15.42 5.73 24.18-.52 3.58-1.71 7.07-2.77 11.34-11.59-18.55-22.89-36.51-35.1-54.17ZM1587.63 785.91c-.39.74-1.2.94-1.62.47-.64-.71.35-1 .76-1.34ZM1481.39 739.65l-.39.62-.15-.39.62-.12Z" class="cls-9"/><path d="M959.76 871.4c1.53 22.18 3.17 44 4.87 65.88 1.23 15.83-.35 31.64-10.9 45-5.58 7.08-13.65 8.31-21.6 10-24.47 5.15-49.23-5-61-25a159.8 159.8 0 0 1-18.69-49.21 224.79 224.79 0 0 1-3.91-68 67.8 67.8 0 0 1 7.54-24.07c.84-1.66 2.35-3.39-1-4.53-22.14-7.47-44.63-13.69-67.93-15.47-6.34-.5-12.29-3.47-18.76-2.41-1.32.21-2-1-2.38-2.19-.7-1.93.28-3.36 1.68-4.3 5.24-3.53 10.63-6.82 15.85-10.36 20.51-13.89 44.28-18.6 67.82-23.41 29-5.91 58.2-7.31 86.94 1.32 31.76 9.53 61.74 22.9 84.07 48.55 17.17 19.73 31.33 41.39 34.45 68.44 1.73 15-5.64 23.12-20.42 25.42-15.08 2.35-29.22.17-40.65-8.93-10.38-8.26-21.52-15.51-31.51-24.25-1.23-1.09-2.34-2.46-4.47-2.48ZM779.2 799.73c7.55 0 13.63-.44 19.72.45 26.81 3.92 52.6 11.5 78.24 20.16 26.87 9.09 51.61 22.26 76 36.25 16.82 9.64 31.09 22.88 46.74 34.19 11 8 23 11.59 36.65 9.18 5.42-1 8.14-4 9-9.18a39.41 39.41 0 0 0-1.41-17.77c-9.31-31.44-28.32-56-55-74.26-23.1-15.82-49.21-24.68-76.62-30-20.63-4-41.09-1.37-61.29 2-9 1.52-18 4.5-26.94 6.8-16.29 4.2-30.19 12.38-45.09 22.18ZM907 841.25c-11.08-6.25-23.29-9.25-34.6-14.53-6.54-3-8.21-1.33-10.63 5.7a82.74 82.74 0 0 0-4.24 25 232.32 232.32 0 0 0 12.71 82.41c5.28 15.33 12.56 29.81 26 40.07 13.15 10.06 27.69 9.48 42.14 4.35 10.7-3.79 12.87-14.42 14.57-24 1.77-9.93 1.66-20.1.72-30.32-1.9-20.81-2.91-41.7-4.21-62.57-.13-2.12-.61-3.82-2.54-4.88l-11.19-6.12v3.93c.71 17.61 4 35 3.7 52.73-.22 11.61.81 23.28-2.19 34.76-2.55 9.74-12.13 13.22-20.13 7a18.83 18.83 0 0 1-4.92-6.19c-6.65-12.41-6.21-26-6.79-39.42-.13-3-.69-4.35-3.72-5.68-7.79-3.4-14.95-8-20.52-14.63-4.62-5.52-3.45-12.83 2.65-16.8a24.8 24.8 0 0 1 16-4.4c2.77.25 3.29-.7 3.84-3.4 1.56-7.66-.77-15.78 3.35-23.01Zm10.09 50.93a9.86 9.86 0 0 0-.93-3.19c-4.83-7.55-12.1-12.15-20.19-15.28-3.64-1.4-6.54 1-8.38 4.4-1.67 3-1.89 6 .51 8.69a55 55 0 0 0 17.2 12.44c5.42 2.66 11.86-1.14 11.76-7.06ZM1311.31 852.53c-16.86-1.88-30.91-10.53-42-25.51-15.27-20.65-23.29-43.87-27.61-68.74a19.47 19.47 0 0 1 4.87-17.11c11-12.38 24.86-21 38.71-29.64a212.29 212.29 0 0 1 40.14-20c4.76-1.72 9.2-.83 13.62.58 2 .63 4.73 1.44 3.74 4.83-.13.45.4 1.24.82 1.7 13.39 14.82 20.19 33.48 29.32 50.77 5.42 10.26 10.1 20.93 15 31.48a27 27 0 0 1 2.56 13.1c-.16 2.82-.88 5.56-3.19 7-13.9 8.94-24.62 21.78-38.21 31.06-9.3 6.35-17.26 14.66-28 18.88a21.78 21.78 0 0 1-9.77 1.6Zm-2.91-139.88a2.19 2.19 0 0 0 .38-.17s0-.18 0-.27l-.32.53-1.46.54a27.12 27.12 0 0 0-3.22 1.24c-16.32 8.73-30.68 20.39-45.7 31-6.43 4.57-7.2 12.24-2.4 17.4 5 5.37 11.51 8.54 19.36 12.19-3.91-8.08-1.1-14.08 2.59-19.73q7.08-10.84 14.68-21.36c4.93-6.86 10.14-13.52 15.22-20.27Zm62.51 83.05c7.82 0 9.36-2.12 7.44-8.07-4.87-15.09-13.3-28.58-19.42-43.12a237.78 237.78 0 0 0-20.48-39.22c-2.83-4.28-4.62-4-7.5-.16-11.74 15.69-23.73 31.2-35.5 46.87-3.08 4.09-6.36 8.13-8.39 12.9-2.55 6-1.88 8 4.43 9.18 21.43 4.1 41.84 11.71 62.67 17.85 6.07 1.78 12.08 3.63 16.75 3.77Zm-84.36-15.52a24.36 24.36 0 0 0 0 3.2c3.14 19.32 9.85 37.59 16.47 55.87 1.71 4.73 4.84 5.35 9.08 3.08 19.57-10.51 35.61-25.74 53.75-39.7Zm2.56 55.12a14.38 14.38 0 0 0-.37-1.87c-5.22-16-11.48-31.62-13.6-48.45a3.12 3.12 0 0 0-2-2.62c-6-3.05-12-6.22-18.43-9.56 4.93 24.72 17.67 44.65 34.4 62.5Z" class="cls-1"/><path d="M779.2 799.73c14.9-9.8 28.82-18 45-22.15 9-2.3 18-5.28 26.94-6.8 20.2-3.42 40.66-6.07 61.29-2 27.41 5.34 53.52 14.2 76.62 30 26.72 18.29 45.73 42.82 55 74.26a39.41 39.41 0 0 1 1.41 17.77c-.86 5.16-3.58 8.23-9 9.18-13.65 2.41-25.65-1.22-36.65-9.18-15.65-11.31-29.92-24.55-46.74-34.19-24.39-14-49.13-27.16-76-36.25-25.64-8.66-51.43-16.24-78.24-20.16-6-.92-12.08-.49-19.63-.48Z" class="cls-7"/><path d="M907 841.25c-4.09 7.23-1.76 15.35-3.32 23-.55 2.7-1.07 3.65-3.84 3.4a24.8 24.8 0 0 0-16 4.4c-6.1 4-7.27 11.28-2.65 16.8 5.57 6.65 12.73 11.23 20.52 14.63 3 1.33 3.59 2.7 3.72 5.68.58 13.4.14 27 6.79 39.42a18.83 18.83 0 0 0 4.92 6.19c8 6.23 17.58 2.75 20.13-7 3-11.48 2-23.15 2.19-34.76.34-17.69-3-35.12-3.7-52.73v-3.93l11.19 6.12c1.93 1.06 2.41 2.76 2.54 4.88 1.3 20.87 2.31 41.76 4.21 62.57.94 10.22 1.05 20.39-.72 30.32-1.7 9.57-3.87 20.2-14.57 24-14.45 5.13-29 5.71-42.14-4.35-13.43-10.26-20.71-24.74-26-40.07a232.32 232.32 0 0 1-12.71-82.41 82.74 82.74 0 0 1 4.24-25c2.42-7 4.09-8.73 10.63-5.7C883.71 832 895.92 835 907 841.25Z" class="cls-9"/><path d="M917.06 892.18c.1 5.92-6.34 9.72-11.79 7.06a55 55 0 0 1-17.2-12.44c-2.4-2.69-2.18-5.67-.51-8.69 1.84-3.35 4.74-5.8 8.38-4.4 8.09 3.13 15.36 7.73 20.19 15.28a9.86 9.86 0 0 1 .93 3.19Z" style="fill:#fefefe"/><path d="M1370.91 795.7c-4.67-.14-10.68-2-16.75-3.77-20.83-6.14-41.24-13.75-62.67-17.85-6.31-1.21-7-3.18-4.43-9.18 2-4.77 5.31-8.81 8.39-12.9 11.77-15.67 23.76-31.18 35.5-46.87 2.88-3.84 4.67-4.12 7.5.16a237.78 237.78 0 0 1 20.48 39.22c6.12 14.54 14.55 28 19.42 43.12 1.92 5.95.38 8.11-7.44 8.07ZM1286.55 780.18l79.32 22.45c-18.14 14-34.18 29.19-53.75 39.7-4.24 2.27-7.37 1.65-9.08-3.08-6.62-18.28-13.33-36.55-16.47-55.87a24.36 24.36 0 0 1-.02-3.2ZM1307.55 713.79c-5.08 6.75-10.29 13.41-15.22 20.27q-7.57 10.52-14.68 21.36c-3.69 5.65-6.5 11.65-2.59 19.73-7.85-3.65-14.37-6.82-19.36-12.19-4.8-5.16-4-12.83 2.4-17.4 15-10.65 29.38-22.31 45.7-31a25.46 25.46 0 0 1 3.22-1.23ZM1289.11 835.3c-16.73-17.85-29.47-37.78-34.35-62.5 6.42 3.34 12.4 6.51 18.43 9.56a3.12 3.12 0 0 1 2 2.62c2.12 16.83 8.38 32.49 13.6 48.45a14.38 14.38 0 0 1 .32 1.87ZM1308.48 712.74l.32-.53v.27a2.19 2.19 0 0 1-.38.17Z" class="cls-8"/><path d="m1308.4 712.65-.85 1.14-.53-.5 1.46-.55Z" class="cls-8"/></svg>