<?xml version="1.0" encoding="utf-8"?>
<!-- Generator: Adobe Illustrator 25.2.1, SVG Export Plug-In . SVG Version: 6.00 Build 0)  -->
<svg version="1.1" id="Livello_1" xmlns="http://www.w3.org/2000/svg" xmlns:xlink="http://www.w3.org/1999/xlink" x="0px" y="0px"
	 viewBox="0 0 481.8 209.6" style="enable-background:new 0 0 481.8 209.6;" xml:space="preserve">
<style type="text/css">
	.st0{fill:#CC4444;}
	.st1{fill:#C4AF7A;}
	.st2{fill:#E9D6A4;}
	.st3{fill:#81DAEF;}
	.st4{fill:#3E3E3E;}
	.st5{fill:#090909;}
	.st6{fill:#545656;}
	.st7{fill:#F8F8F8;}
	.st8{fill:#FFBC45;}
	.st9{fill:#050505;}
	.st10{fill:#070707;}
</style>
<path d="M274.7,83.5c8.2,0.1,14.4,1.7,19.3,6.4c3.6,3.5,6,8,6.9,12.9c2.2,10.7,5,21.2,7.6,31.8c3.4,14.1,7,28.2,10.4,42.4
	c2,8.2-0.2,15.4-6.5,21.2c-7.3,6.7-15.8,8.3-25,4.6c-6.5-2.6-10.3-7.8-12.5-14.2c-5.6-16.1-11-32.2-16.4-48.4
	c-2.4-7.2-5-14.3-7.3-21.6c-4-12.4-0.2-24.5,12.7-31.8C267.7,84.6,271.8,83.3,274.7,83.5z M254.8,123.3l19.4,57.1
	c0.1-1.2,0.3-2,0.3-2.8c0-1.3,0.5-2,1.9-2c0.7-0.1,1.4-0.2,2.1-0.4c1.2-0.1,2.1-1.1,2-2.3c0-0.5-0.3-1-0.6-1.4c-2.3-3-2.3-3,0.2-5.9
	c0.3-0.5,1-0.6,1.5-0.4c1,0.4,2.1,0.9,3.1,1.3c1,0.3,2.1-0.2,2.5-1.2c0.1-0.2,0.1-0.4,0.1-0.7c0-1.1-0.1-2.2-0.2-3.3
	c-0.1-0.5,0.2-0.9,0.7-1c0,0,0,0,0,0c1-0.3,2-0.6,3-1c0.5-0.2,1.1,0,1.3,0.4c0.6,0.9,1.3,1.8,1.9,2.8c0.5,0.8,1.5,1.1,2.3,0.6
	c0.3-0.2,0.5-0.4,0.7-0.7c0.2-0.4,0.5-0.8,0.7-1.3c1.3-2.4,1.3-2.4,3.9-1.8c0.5,0.1,0.9,0.2,1.4,0.3c0.7,0.1,0.9,0.5,0.9,1.1
	c0,1.1,0,2.1,0.1,3.2c0,0.9,0.7,1.7,1.6,1.7c0.3,0,0.7-0.1,1-0.3c0.7-0.4,1.3-0.8,2-1.1c1.8-0.9,1.5-1.2,3,0.4
	c0.4,0.5,0.9,0.9,1.4,1.4c0.6,0.3,0.7,1.1,0.4,1.6c0,0.1-0.1,0.1-0.2,0.2c-0.5,0.8-1,1.6-1.5,2.5c-0.6,0.8-0.4,1.8,0.3,2.4
	c0.3,0.2,0.7,0.4,1.1,0.3c0.6,0.1,1.2,0,1.8,0.1c0.8,0.1,1.1,0,0.9-1c-5-20.5-10.1-40.9-15-61.4c-0.3-1.1-0.2-2.8-1-3.1
	s-2,0.8-3.1,1.3c-1.1,0.6-1.5,1.9-0.9,2.9c0.1,0.3,0.3,0.5,0.6,0.7c0.9,0.7,1.8,1.4,2.8,2c0.7,0.3,1.1,1.2,0.8,1.9
	c0,0.1-0.1,0.2-0.1,0.2c-0.4,0.9-0.7,1.8-1,2.8c-0.1,0.6-0.6,1.1-1.2,1c-0.1,0-0.2,0-0.2-0.1c-1.3-0.2-2.5-0.3-3.8-0.4
	c-0.4-0.1-0.9,0-1.2,0.4c-0.9,1-1.6,2-0.7,3.5c0.4,0.7,0.5,1.6,0.9,2.3c0.5,0.7,0.4,1.8-0.4,2.3c-0.1,0.1-0.2,0.1-0.4,0.2
	c-1,0.6-1.8,1.9-2.9,2s-2.1-1.3-3-2.1c-0.8-1-2.3-1.3-3.4-0.6c-0.8,0.4-1.4,0.8-1.5,1.8c-0.1,0.7-0.3,1.5-0.4,2.2
	c-0.5,2.3-0.5,2.3-2.8,2.4c-2.9,0.2-2.9,0.2-3.8-2.5c-0.1-0.2-0.2-0.4-0.2-0.7c-0.1-1.5-1.4-2.7-2.9-2.7c-0.7-0.2-1.5,0.1-2,0.6
	c-0.6,0.7-1.2,1.3-1.8,1.9c-1.7,1.7-1.2,1.5-3,0.4c-2.9-1.6-3-1.6-2-4.8c0.7-1.5,0.2-3.3-1.2-4.2c-0.4-0.4-1-0.5-1.5-0.4
	C257.8,122.7,256.4,123,254.8,123.3z M275.6,124.4c8.2,0.1,14.9-6.5,15-14.8c0.1-8.2-6.5-14.9-14.8-15c-8.2-0.1-14.9,6.5-15,14.7
	C260.8,117.6,267.4,124.3,275.6,124.4C275.6,124.4,275.6,124.4,275.6,124.4z M296.4,167.5c-7.2,0-13,5.8-13.1,12.9s5.8,13,12.9,13.1
	s13-5.8,13.1-12.9c0,0,0-0.1,0-0.1C309.3,173.3,303.6,167.5,296.4,167.5L296.4,167.5z M295.6,202.6l-1.3-3.9c-0.5-1.3-2-1.9-3.3-1.4
	c-0.2,0.1-0.5,0.2-0.7,0.4c-1,0.9-1.8,1.9-2.7,2.9C290.1,201.9,292.8,202.5,295.6,202.6L295.6,202.6z M299.8,202.3
	c2.8-0.3,5.5-1.3,7.7-3l-2.2-1.8l-0.8-0.7c-1.1-0.7-2.6-0.4-3.4,0.7c-0.1,0.2-0.2,0.4-0.3,0.6C300.7,199.5,300.3,200.9,299.8,202.3
	L299.8,202.3z M291.2,90.2c-1.9-1.5-4-2.6-6.2-3.4c-0.4-0.2-0.7-0.1-0.6,0.5c0.1,1.2,0,2.5,0.2,3.7c0.1,1,1.1,1.8,2.1,1.6
	c0.2,0,0.4-0.1,0.6-0.2C288.5,91.7,289.8,91,291.2,90.2z M315.8,190.2c-1.2-0.1-2.3-0.2-3.4-0.4c-0.9-0.3-2,0.2-2.4,1.1
	c-0.4,0.5-0.5,1.2-0.2,1.8c0.5,1.2,1,2.4,1.5,3.7C313.2,194.6,314.7,192.5,315.8,190.2z M253,117.9c1-0.9,1.9-1.8,2.9-2.7
	c0.9-0.9,0.3-3.5-0.8-3.9c-0.9-0.4-1.9-0.7-2.8-1.1c-0.4-0.2-0.7-0.1-0.7,0.4C251.7,113.2,252.2,115.6,253,117.9z M295.3,94.5
	c-0.8,1.4-1.6,2.7-2.3,4c-0.4,1,0.1,2.2,1.1,2.6c0.1,0,0.1,0.1,0.2,0.1c1.3,0.1,2.7,0.2,4.1,0.3C297.8,98.9,296.7,96.6,295.3,94.5z
	 M252.2,104.1c1.4-0.2,2.6-0.4,3.9-0.7c0.8-0.2,1.9-2.5,1.5-3.2c-0.7-1.1-1.5-2-2.4-3.1C253.8,99.3,252.8,101.6,252.2,104.1
	L252.2,104.1z M278.8,192.3c1.3,2.2,2.9,4.2,4.8,5.8c0.2-1,0.5-2,0.8-3c0.4-1,0.1-2.2-0.8-2.8c-0.6-0.7-1.5-0.9-2.3-0.6
	C280.5,191.9,279.7,192.1,278.8,192.3L278.8,192.3z M274.2,180.5c0.8,2.3,1.5,4.4,2.2,6.5c0.2,0.6,0.4,0.4,0.7,0.1
	c0.6-0.6,1.2-1.1,1.8-1.7s0.3-3.1-0.6-3.4C277.1,181.5,275.8,181.1,274.2,180.5z M278.2,85.6c-2.1-0.1-4.3,0-6.4,0.2
	c-0.6,0.1-0.8,0.3-0.4,0.8c0.6,0.8,1.2,1.7,1.8,2.5c0.7,0.8,2,0.9,2.8,0.2c0.1-0.1,0.2-0.2,0.2-0.3C276.9,88,277.5,86.8,278.2,85.6z
	 M317.2,185.4c0.3-1.6,0.4-3.2,0.3-4.8c-0.1-2-0.1-2-1.9-1.1c-0.4,0.2-0.9,0.4-1.3,0.6c-0.9,0.6-1.1,1.8-0.5,2.7
	c0.1,0.1,0.2,0.2,0.3,0.3C315,183.9,316.1,184.6,317.2,185.4L317.2,185.4z M265.1,88.5c-2,1.1-3.9,2.4-5.7,3.9
	c1.1,0.5,2.1,0.9,3.2,1.3c1.2,0.3,2.5-0.5,2.7-1.8c0-0.1,0-0.2,0-0.3C265.3,90.6,265.2,89.6,265.1,88.5z"/>
<path d="M439.4,170.6V167c0-3.8,0-7.5,0-11.3c0-0.8,0.1-1.1,1-1c1.2,0.1,2.5,0,3.7,0c0.5,0,0.7,0.1,0.7,0.7c0,0.2,0,0.5,0,0.7
	c0,12.7,0,25.4,0,38.1c0,1.1-0.4,1.4-1.4,1.3c-1-0.1-1.9-0.1-2.9,0c-0.8,0.1-0.9-0.2-0.9-1c0.1-1.1,0-2.1,0-3.5
	c-2.7,3.4-7,5.2-11.3,4.7c-3.9-0.1-7.7-1.8-10.3-4.7c-5.2-5.8-4.7-16,0.9-21.2C424.2,165.1,434.3,164.5,439.4,170.6z M429.8,170.8
	c-5.8,0-9.8,4.1-9.9,10s4,10.3,9.7,10.4s9.8-4.2,9.8-10.2S435.6,170.9,429.8,170.8L429.8,170.8z"/>
<path d="M332.9,191.1c0,1.4,0,2.6,0,3.7c0,0.6-0.1,0.8-0.7,0.7c-1.2,0-2.4,0-3.6,0c-0.7,0-0.8-0.2-0.8-0.8c0-13.1,0-26.1,0-39.2
	c0-0.6,0.1-0.9,0.8-0.8c1.2,0.1,2.4,0.1,3.6,0c0.8,0,1,0.2,1,1c0,4.6,0,9.3,0,13.9c0,0.2-0.1,0.5,0.1,0.8c5.6-6.4,16-5.1,20.8,0
	c5.5,5.8,5.3,16.1-0.3,21.5C348.6,196.9,338.2,197.8,332.9,191.1z M352.6,181.3c0-4.1-1.4-7.3-4.9-9.2c-4.3-2.4-9.8-1.3-12.8,2.6
	c-3,4.2-2.5,10.9,1.3,14.1c2.9,2.7,7.2,3.3,10.8,1.6C350.9,188.6,352.5,185.2,352.6,181.3z"/>
<path d="M476.4,104.6c0-1.2,0-2.2,0-3.2c0-0.7,0.2-0.9,0.9-0.9c1.2,0,2.4,0,3.6,0c0.6,0,0.9,0.1,0.9,0.8c0,9.2,0,18.4,0,27.6
	c0,0.6-0.1,0.8-0.7,0.8c-1.2,0-2.4,0-3.6,0c-0.6,0-0.8-0.2-0.8-0.8c0-1.1,0-2.2,0-3.6c-2.6,3.3-6.7,5.1-10.9,4.8
	c-4.1,0-8-1.7-10.7-4.8c-5-5.7-4.6-15.5,0.6-20.8C460.3,99.6,470.5,98.1,476.4,104.6z M466.7,104.9c-5.8,0-9.8,4.2-9.8,10.3
	c0,5.9,4.2,10.1,9.8,10.1s9.8-4.3,9.7-10.3S472.4,104.9,466.7,104.9z"/>
<path d="M248.3,196.2c-9.6,0-17.4-5.4-19.8-13.7c-3.7-13,4.5-24.3,16.9-25.5c6.2-0.6,11.8,0.6,16.5,5c0.7,0.7,0.8,1.1,0,1.7
	c-0.7,0.6-1.4,1.3-2.1,2c-0.6,0.7-0.9,0.5-1.5,0c-7-6.4-18.6-4.7-23.3,3.4c-4.8,8.4-0.7,20.5,11,22c4.5,0.7,9.1-0.7,12.3-3.9
	c0.6-0.5,0.8-0.5,1.3,0.1c0.7,0.8,1.5,1.5,2.3,2.1c0.7,0.6,0.6,0.9,0,1.5c-3.2,3-7.3,4.9-11.7,5.2
	C249.7,196.1,248.9,196.1,248.3,196.2z"/>
<path d="M377.2,195.9c-8.8-0.3-14.9-6.7-14.7-15.4s6.9-14.7,15.7-14.4s14.9,6.8,14.6,15.8C392.5,190.2,385.8,196.2,377.2,195.9z
	 M377.7,170.8c-5.8,0-9.8,4.2-9.8,10.2s4.1,10.2,9.8,10.2s9.7-4.3,9.7-10.3S383.4,170.8,377.7,170.8z"/>
<path d="M421.9,104.7c4.1-5,11.4-5.3,15.7-3.6s6.6,5.3,6.8,9.8c0.2,6,0.1,12,0.1,18c0,0.6-0.2,0.7-0.8,0.7c-1.2,0-2.4-0.1-3.6,0
	c-0.8,0.1-1-0.2-1-1c0-5.1,0-10.1,0-15.2c0-1-0.1-2-0.3-3c-0.9-3.8-4.2-5.9-8.5-5.5c-5.2,0.6-8.2,3.8-8.2,9.2c0,4.8,0,9.6,0,14.4
	c0,0.8-0.1,1.1-1,1.1c-1.2-0.1-2.4-0.1-3.6,0c-0.6,0-0.7-0.2-0.7-0.7c0-9.2,0-18.4,0-27.6c0-0.6,0.1-0.9,0.8-0.9c1.2,0,2.4,0,3.6,0
	c0.6,0,0.8,0.2,0.7,0.8C421.9,102.3,421.9,103.4,421.9,104.7z"/>
<path d="M383.1,130c-7.8,0.3-14.2-4.4-15.6-12c-1.8-9.4,4.3-16.8,12.9-17.7c4.3-0.5,8.4,0.2,11.8,3.1c0.9,0.8,2,1.6,2.1,2.7
	s-1.6,1.3-2.3,2c-0.2,0.2-0.5,0.3-0.8,0.5c-0.5,0.4-0.7,0.3-1.1-0.2c-2.6-3.2-6.9-4.5-10.8-3.1c-3.8,1.2-6.4,4.6-6.6,8.5
	c-0.7,9.7,7.8,13,13.7,10.7c1.5-0.6,2.7-1.5,3.6-2.8c0.4-0.6,0.7-0.6,1.2-0.2c0.9,0.6,1.7,1.1,2.6,1.6c0.6,0.4,0.7,0.7,0.2,1.3
	c-2.2,3.1-5.6,5.1-9.3,5.4C384.3,130,383.8,130,383.1,130z"/>
<path d="M312.9,112.8V98.3c0-6.5,4-10.2,10.5-9.7c1.6,0.1,3.1,0.5,4.4,1.2c0.5,0.3,0.7,0.6,0.4,1.1c-0.1,0.1-0.1,0.2-0.1,0.3
	c-0.4,0.9-0.5,2-1.1,2.6c-0.8,0.7-1.6-0.5-2.4-0.7c-3.8-1-6.4,0.8-6.5,4.7c-0.1,2.6-0.1,2.6,2.6,2.6c1.7,0,3.4,0,5.2,0
	c0.6,0,0.8,0.2,0.8,0.8c-0.1,1.2,0.4,2.7-0.2,3.4s-2.2,0.2-3.3,0.2c-1.3,0-2.6,0.1-4,0c-0.8,0-1,0.2-1,1c0,7.5,0,15,0,22.5
	c0,1-0.2,1.4-1.3,1.3c-1-0.1-2.1-0.1-3.1,0c-0.8,0.1-1-0.3-1-1C312.9,123.4,312.9,118.1,312.9,112.8z"/>
<path d="M331.6,112.7c0-4.8,0.1-9.5,0-14.2c-0.2-6.9,4.5-10.9,12-9.7c3.7,0.6,4.2,2,2.2,5.1c-0.4,0.6-0.6,0.2-0.9,0
	c-1.4-0.9-3.1-1.2-4.7-0.8c-1.8,0.3-3.1,1.7-3.2,3.5c-0.1,1.1-0.1,2.2-0.1,3.2c0,0.7,0.2,0.8,0.8,0.8c2.3,0,4.5,0,6.8,0
	c0.7,0,0.9,0.2,0.9,0.9c-0.1,0.9-0.1,1.8,0,2.8c0,0.6-0.2,0.8-0.8,0.8c-2.2,0-4.4,0-6.6,0c-0.9,0-1,0.2-1,1c0,7.5,0,15,0,22.5
	c0,1-0.2,1.3-1.2,1.2c-1-0.1-1.9-0.1-2.9,0c-1.1,0.1-1.3-0.3-1.3-1.3C331.6,123.1,331.6,117.9,331.6,112.7z"/>
<path d="M400.2,172c0-5.4,0-10.8,0-16.2c0-0.8,0.2-1.1,1-1.1c1.1,0.1,2.2,0.1,3.2,0c0.9-0.1,1.1,0.2,1.1,1.1c0,10,0,19.9,0,29.9v0.8
	c0,3.6,2.3,5.5,5.8,4.6c1.3-0.3,1.4,0.1,1.4,1.1c0,0.5,0,1,0.1,1.6c0.3,1.1-0.1,1.6-1.3,1.8c-1.9,0.4-3.9,0.3-5.8-0.2
	c-3.3-0.9-5.5-3.9-5.5-7.3C400.2,182.8,400.3,177.4,400.2,172L400.2,172z"/>
<path d="M360,115c0,4.6,0,9.1,0,13.6c0,0.7-0.1,1-1,1c-1.2-0.1-2.3-0.1-3.5,0c-0.8,0.1-0.9-0.2-0.9-0.9c0-5.6,0-11.2,0-16.8
	c0-3.5,0-7,0-10.5c0-0.7,0.1-1,0.9-1c1.2,0.1,2.3,0.1,3.5,0c0.8,0,1,0.2,1,1C360,106,360,110.5,360,115z"/>
<path d="M406.8,115.2c0,4.5,0,9,0,13.5c0,0.8-0.2,1-1,1c-1.2-0.1-2.4-0.1-3.6,0c-0.7,0-0.8-0.2-0.8-0.8c0-9.2,0-18.4,0-27.5
	c0-0.6,0.2-0.8,0.8-0.8c1.2,0.1,2.4,0.1,3.6,0c0.8-0.1,1,0.3,1,1C406.7,106.1,406.8,110.6,406.8,115.2z"/>
<path d="M460,181c0,4.5,0,9,0,13.5c0,0.8-0.2,1.1-1,1.1c-1.2-0.1-2.4-0.1-3.6,0c-0.6,0-0.7-0.2-0.7-0.7c0-9.2,0-18.4,0-27.6
	c0-0.7,0.3-0.8,0.9-0.8c1.2,0,2.4,0.1,3.6,0c0.8,0,0.9,0.2,0.9,0.9C460,171.9,460,176.5,460,181z"/>
<path d="M357.3,95c-1.9,0.2-3.5-1.2-3.6-3.1c0-0.1,0-0.2,0-0.3c0.1-2,1.7-3.6,3.7-3.5c1.9,0.1,3.4,1.5,3.5,3.4
	c0,1.9-1.5,3.5-3.4,3.5C357.4,95,357.4,95,357.3,95z"/>
<path d="M404,95c-1.9,0.1-3.4-1.3-3.5-3.2c0-0.1,0-0.1,0-0.2c0-1.9,1.5-3.4,3.3-3.5c0.1,0,0.2,0,0.3,0c1.8-0.2,3.4,1.2,3.6,3
	c0,0.1,0,0.3,0,0.4c0,1.9-1.5,3.4-3.4,3.4C404.2,95,404.1,95,404,95z"/>
<path d="M457.3,160.9c-1.9,0.1-3.5-1.3-3.6-3.2c0-0.1,0-0.2,0-0.3c0-1.9,1.6-3.4,3.5-3.4c0.1,0,0.2,0,0.2,0c1.8-0.1,3.4,1.3,3.5,3.1
	c0,0.1,0,0.2,0,0.3c0,1.9-1.5,3.4-3.4,3.5C457.5,160.9,457.4,160.9,457.3,160.9z"/>
<path class="st0" d="M150.8,207.2c-5.3,0-10.5-0.6-15.7-1.6c-10.7-2-20.7-7-28.7-14.4c-10.5-9.7-23.5-16.3-37.6-19.1
	c-2.5-0.5-5-0.8-7-1c-1.7-0.2-2.4-1-2.6-1.6c-0.4-1-0.1-2.2,0.7-3c3.2-4.2,7.6-6.7,13.5-7.8c2-0.3,3.9-0.5,5.9-0.5h0.8
	c1.7,0,2.2-0.7,2.5-1.4c0.4-1,0.1-2.1-0.7-2.8l-0.1-0.1c-5.9-6-12.7-10.9-20.2-14.7c-10.9-5.5-22.7-9.1-34.8-10.7
	c-0.4-0.1-0.8-0.1-1.1-0.2s-0.6-0.1-0.9-0.1c-1.7-0.1-3.1-1.5-3-3.2c0-1.3,0.9-2.5,2.2-2.9c5.3-2.2,10.7-4.1,16.3-5.5
	c3.4-0.9,7-1.5,10.5-1.6c1.1,0,2.2,0.1,3.3,0.2c0.7-0.6,1.5-0.9,2.4-0.9c0.3,0,0.6,0,0.9,0.1c5.7,0.7,11.4,1,17.1,1
	c4.4,0,9.1-0.2,14.8-0.5c9.1-0.5,18.8-1.6,30.5-3.2c8.5-1.2,17.1-2.7,25.5-4.4c0.2-0.1,0.5-0.1,0.7-0.1c0.8,0,1.6,0.3,2.2,0.9
	c5.6,4.9,11.6,7.6,18.1,8.2c1.1,0.1,2.1,0.2,3.1,0.2c8.7,0,15.8-3.7,20.9-11.1c0.5-0.7,0.9-1.3,1.4-2c1.5-2.4,3.2-4.6,5.1-6.6
	c0.6-0.6,1.3-1.2,2.1-1.7c0.6-0.4,1.4-0.6,2.1-0.6c1.2,0,2.2,0.8,2.9,2.3c0.8,2,1.1,4.1,1,6.2v1.8c-0.1,3.9,0.1,7.7,0.8,11.5v0.1
	c0.2,1.1,0.7,2.1,1.5,2.9c0.5,0.5,0.8,1.3,0.7,2v0.1c0.2,9.7-1.8,19.4-5.7,28.3c-0.3,0.8-0.7,1.4-1.4,1.9c3.8,1.4,7.2,3.7,9.9,6.6
	c3.7,4.3,4.6,9.4,2.7,15.6s-5.7,11.5-9.4,16.2c-1.8,2.2-3.7,4.4-5.7,6.4c-0.6,0.7-1.4,1.1-2.3,1.1c-1.1,0-2-0.6-2.6-1.5
	c-1.3-1.7-2.3-2-3.1-2c-0.6,0-1.3,0.1-1.9,0.3c-0.4,0.2-0.8,0.3-1.2,0.3c-0.3,0-0.5,0-0.8-0.1h-0.1l-0.1-0.1
	c-0.4-0.2-0.7-0.3-1.1-0.5c-0.8-0.3-1.6-0.7-2.3-1.1c0.1,0.6-0.1,1.2-0.5,1.7l-0.3,0.3c-5.2,5.6-11.9,9.4-19.4,10.9
	C158.7,206.8,154.7,207.3,150.8,207.2z"/>
<path class="st1" d="M99.2,89c-0.5,0-1-0.1-1.4-0.3C85.7,84,74.2,78.1,63.5,71c-15.2-9.6-28.8-21.7-40.3-35.6
	C16.8,27.6,11.4,19.1,7,10C6.6,9.4,6.5,8.7,6.9,8.1l0.6-1.3l3.7,3c9,6.9,18.6,12.9,28.7,17.9c21.5,10.9,43.7,19.2,60.7,25.1
	c1.1,0.4,2.2,0.6,3.4,0.7c1.4,0.2,2.7,0.5,4,0.9c9.2,3.3,18.7,5.9,28.3,7.8c0.6,0.1,1.1,0.4,1.4,0.9c0.2,0.5,0.2,1.1,0,1.6v0.1
	c-0.9,2.2-0.5,3.4-2.5,4.6c-8,5.9,6.4,30.6,9.5,37.6c-0.8,0.4-10.9,2.7-11.7,3.1C132,110.5,99.7,89,99.2,89z"/>
<path class="st2" d="M52.7,108.4c-0.9,0-1.8-0.4-2.5-1.1c-0.9-0.8-1.8-1.5-2.8-2.1c-0.9-0.6-1.8-1.3-2.7-2
	c-6.5-5.5-12.1-12.5-17.5-21.8c-6.4-11.2-11.6-24-16.4-40.2c-2.9-9.8-5.2-19.7-6.9-29.7v-0.1C3.4,10.2,3.8,8.9,4.8,8l1.1-1.1
	l0.7,1.4c3.3,7,7.2,13.8,11.7,20.1c10.4,14.4,23.1,26.9,37.6,37.1c12.8,9.2,26.6,16.8,41.2,22.6l39,21.5l-47.9,6
	c-1.6,0.7-23.9-1.3-25.5-0.6C50.6,116.3,53.3,108.4,52.7,108.4z"/>
<path class="st2" d="M137.8,62.7c-0.2,0-0.4,0-0.6-0.1c-1.6-0.4-3.3-0.8-5-1.1c-1.1-0.2-2.1-0.5-3.2-0.7c-7.5-1.8-15-3.9-22.3-6.5
	c-0.9-0.2-1.6-0.9-1.7-1.8c-0.2-0.7-0.6-1.5-1-2.1v-0.2c-5.6-10.8-8.3-21.3-8.1-32.1c0-4.6,0.7-9.1,2-13.5l2.2,0.2
	c0.6,5.1,1.7,10.2,3.5,15c4,11,10.9,20.4,20.9,28.8c4.4,3.7,9.2,7,14.3,9.7h0.1c0.6,0.1,1,0.5,1.3,1c0.2,0.5,0.1,1-0.2,1.4
	c-0.1,0.1-0.1,0.2-0.1,0.3C139.5,61.7,139.1,62.7,137.8,62.7z"/>
<path class="st1" d="M140.3,59.5c-0.4,0-0.7-0.1-1-0.3c-17.7-9.6-29.5-22.3-35.8-38.6c-1.8-4.6-2.9-9.3-3.4-14.2
	c-0.2-0.6-0.1-1.3,0.2-1.8l0.9-1.4l1.7,2.5c0.8,1.1,1.5,2.2,2.2,3.3c9.2,14.7,21.4,28.2,37.2,41.2l0.6,0.5c0.8,0.6,1.6,1.3,2.4,1.9
	c0.4,0.3,0.7,0.8,0.8,1.3c0,0.6-0.3,1.1-0.8,1.4c-1.3,1-2.5,2.1-3.6,3.3C141.4,59.2,140.9,59.5,140.3,59.5z"/>
<path class="st3" d="M209.2,113.7c-2.4-6-0.8-34.7,2.4-42.6l0.9-2.3l1.1,2.2c0.6,1.2,0.9,2.5,0.9,3.9c0.8,10.9,0.1,21.9-1.9,32.7
	c-0.2,0.9-0.5,1.8-0.8,2.7c-0.1,0.3-0.2,0.6-0.4,0.9c-0.1,0.2-0.2,0.4-0.2,0.6v0.1c0.3,0.6,0.2,1.3-0.1,1.9l-1.2,2L209.2,113.7z"/>
<path class="st4" d="M214.1,66.8c-0.1-0.4-0.4-0.6-0.8-0.6c-0.2,0-0.3,0-0.5,0.1c-0.7,0.2-1.3,0.8-1.6,1.5c-0.5,0.9-0.8,1.9-1,2.9
	c-0.2,0.7-0.4,1.4-0.7,2.1l0,0c-0.6,1.7-1.5,3.3-2.5,4.8c-0.5,0.5-1,0.9-1.6,1.3l-0.8,0.4c-0.9,0.4-1.8,0.6-2.8,0.6
	c-0.6,0-1.1-0.1-1.7-0.2c-1.5-0.5-2.9-1.3-4.2-2.3l-2.9-2.8c-0.2-0.4-0.5-0.8-0.8-1.2c-1.6-2-3.1-4.2-4.5-6.4
	c-2.9-4.8-7-8.7-12-11.4c-4.4-2.6-9.4-4.1-14.5-4.2c-4.4,0-8.7,1.2-12.5,3.4c-0.2,0.1-0.5,0.2-0.7,0.2h-0.3c-0.2,0-0.3-0.1-0.5-0.1
	c-0.5,0-1,0.2-1.4,0.6c-3.4,2.6-6.1,6-7.9,9.9c-0.5,1.1-1,2.2-1.3,3.4l-2.3,1.2c-0.2,0.1-0.3,0.1-0.5,0.2c-8,5.7-16.4,10.7-25.2,15
	c-17.5,8.6-35.4,16.3-53.7,23c-1,0.4-1.5,0.6-1.7,1.1s0.1,1,0.7,2c1.9,3,2.1,3.2,5.6,3.5h0.3c5.2,0.5,10.5,0.7,15.7,0.7
	c2.3,0,4.7,0,7-0.1c7.5-0.2,15.5-0.9,24.4-1.9c9.7-1.1,19.5-2.5,29.2-4.3c2.4-0.4,4.8-0.9,7.2-1.4l3.6-0.9c3.4,3.1,7.3,5.6,11.5,7.3
	c3.6,1.6,7.5,2.4,11.5,2.5c6.2-0.1,12.2-2.5,16.8-6.7c3.4-3,5.9-6.8,7.3-11l2.5-1.6c1.9-1.8,3.4-2.8,4.8-2.8c1,0,1.9,0.4,2.6,1.1
	l1.5,0.9c-0.2,5-0.6,10.1-0.5,15.1c0,2.1,0.8,4.6,1.6,6.6l0,0c0.1,0.2,0.7,0.4,1.3,0.4l0,0c1.3-0.2,2.5-1,3-2.2v-0.1
	c0.1-0.2,0.2-0.4,0-0.6c-0.2-0.1-0.4-0.2-0.6-0.2l0,0c-0.8-0.1-1.2-0.6-1.5-1.5c-0.4-1.3-0.7-2.6-0.7-3.9c-0.8-12.3,0-24.6,2.5-36.6
	c0.4-1.5,0.9-3,1.6-4.4c0.3-0.6,0.8-1.1,1.5-1.2c0.3,0,0.6-0.1,0.8-0.4C214.2,67.4,214.1,67.1,214.1,66.8z M76.3,109.6
	c0.1,0.5,0,1.1-0.2,1.6c-0.2,0.6-0.6,1.1-1.1,1.5c-0.5,0.3-1,0.5-1.6,0.5c-0.9,0-1.8-0.5-2.3-1.3c-1-1.3-1.4-3-0.9-4.6
	c0.3-1.1,1.2-2,2.3-2.2h0.4c1,0,2,0.5,2.5,1.4c0.6,0.7,0.9,1.6,0.9,2.5h-0.1L76.3,109.6z M93.2,104.7v0.6c0,2.6-1.2,4.4-3.1,4.7
	c-0.2,0-0.4,0.1-0.6,0.1c-1.7,0-3.3-1.4-4.1-3.5c-0.6-1.6-0.6-3.3,0.1-4.9c0.2-0.5,0.5-1,0.9-1.3c1.4-1.3,3.5-1.2,4.8,0.2
	c0,0,0.1,0.1,0.1,0.1C92.4,101.8,93.1,103.2,93.2,104.7z M108.3,104.5c-0.2,0.3-0.4,0.6-0.6,0.8c-1.4,1.5-3.8,1.6-5.3,0.2
	c0,0-0.1-0.1-0.1-0.1c-2.3-2.2-3-5.6-1.8-8.6c0.3-0.7,0.7-1.3,1.3-1.7c1.7-1.3,4.1-1,5.4,0.7c0,0,0,0.1,0.1,0.1
	c1.2,1.4,1.8,3.2,1.8,5C109.2,102.2,108.9,103.4,108.3,104.5z M129.9,98.7l-0.6,0.9c-1.1,1.3-2.6,2-4.3,2c-1.3,0-2.6-0.5-3.6-1.3
	c-3.3-2.8-4.1-7.5-2-11.3c0.4-0.6,0.8-1.2,1.4-1.6c1-0.8,2.3-1.3,3.6-1.3c1.7,0,3.4,0.8,4.5,2.1c1.6,1.8,2.4,4.1,2.3,6.5
	C131,96.2,130.6,97.5,129.9,98.7z M191.2,89c-0.6,10.2-5.2,17.3-13.8,21.1c-2.8,1.3-5.8,1.9-8.8,1.9l0,0c-3.8,0-7.6-1-11-2.7
	c-12.4-6.1-19.8-19.2-18.4-33c1-10,7.5-18,16.7-20.4c1-0.3,1.9-0.5,2.9-0.6c0.9-0.1,1.8-0.2,2.7-0.2c7.5,0.1,14.7,3.3,19.9,8.8
	C188.3,71,191.7,79.6,191.2,89L191.2,89z"/>
<path class="st5" d="M192.7,161.7h3.7c0.7,0,1.3,0.2,1.3,1s-0.6,1-1.2,1h-7.6c-0.7,0-1.3-0.3-1.3-1s0.7-1,1.4-1H192.7z"/>
<path class="st6" d="M124.9,100.4c-2,0-4.2-1.9-5.1-4.4c-1.2-3.6,0.1-7.3,3-8.5l0.8-0.3l-0.4,0.7c-2.3,4.1-1,9.2,3,11.7l0.4,0.3
	l-0.5,0.2C125.7,100.3,125.3,100.4,124.9,100.4z"/>
<path class="st6" d="M104.9,105.3c-0.5,0-0.9-0.2-1.3-0.5c-1.3-0.9-2.1-2.3-2.4-3.8c-0.3-1.5,0-3.1,0.8-4.4c0.4-0.5,0.8-1,1.5-1h0.1
	l0.1,0.1l0.1,0.1l0.2,0.1l-0.1,0.2c-0.6,1.6-0.7,3.4-0.3,5.1c0.4,1.3,1.2,2.5,2.3,3.3l0.3,0.3l-0.4,0.2
	C105.5,105.2,105.2,105.3,104.9,105.3z"/>
<path class="st6" d="M89.9,108.8c-1.7,0-2.8-1-3.4-2.9c-0.8-1.9-0.1-4,1.6-5.1l0.6-0.4l-0.2,0.7c-0.3,1.3-0.4,2.6-0.2,3.9
	c0.3,1.3,1,2.5,2,3.3l0.6,0.5H89.9z"/>
<path class="st6" d="M72.8,111.6l-0.2,0.1l-0.1-0.2c-1.4-0.9-1.9-2.7-1.1-4.2c0.2-0.3,0.4-0.5,0.6-0.8l0.5-0.5l-0.1,0.7
	c-0.1,1.5,0,3,0.4,4.4l0.4,0.2l-0.3,0.1l0.1,0.4L72.8,111.6z"/>
<path class="st7" d="M103.5,95.9L103.5,95.9l0.1,0.2C103.6,96,103.6,96,103.5,95.9z"/>
<path class="st7" d="M72.8,111.3l0.2,0.1L72.8,111.3z"/>
<ellipse transform="matrix(0.1233 -0.9924 0.9924 0.1233 26.3383 292.4964)" class="st8" cx="178.7" cy="131.3" rx="10.3" ry="4.1"/>
<ellipse transform="matrix(0.3102 -0.9507 0.9507 0.3102 6.4694 285.2032)" class="st8" cx="199.8" cy="138.1" rx="9.2" ry="2.7"/>
<path class="st3" d="M168.8,111.7c-2.7,0-5.3-0.5-7.8-1.4c-10.7-3.7-17.6-11.6-20.7-23.4c-0.6-2.4-0.9-4.8-0.9-7.2
	c0.1-7.5,2.5-13.6,7.2-18.1c3.9-3.9,9.2-6.2,14.7-6.2c2.7,0,5.3,0.5,7.8,1.4c11.2,3.8,18.3,11.9,21.2,24.3c1.5,6,0.8,12.3-1.8,17.9
	C184.9,106.8,177.2,111.7,168.8,111.7z"/>
<path d="M177.7,142.3h-0.3c-3.1-0.4-4.1-6.3-3.4-11.6l0,0c0.3-2.6,1-5.1,2.2-7.4c1.2-2.1,2.6-3.2,4-3c3.1,0.4,4.1,6.3,3.4,11.6
	C182.9,137,180.6,142.3,177.7,142.3z M175.4,130.9c-0.7,5.4,0.6,9.7,2.1,9.9s3.8-3.7,4.5-9.1s-0.6-9.7-2.1-9.9
	c-0.7-0.1-1.7,0.8-2.5,2.3C176.3,126.3,175.7,128.6,175.4,130.9L175.4,130.9z"/>
<path d="M197.3,147.5c-0.2,0-0.3,0-0.5-0.1c-1.1-0.3-1.6-1.7-1.5-3.9c0.1-2.3,0.5-4.5,1.3-6.6c0.7-2.2,1.6-4.2,2.9-6.1
	c1.3-1.8,2.5-2.6,3.5-2.2s1.6,1.7,1.5,3.9c-0.1,2.3-0.5,4.5-1.3,6.6c-0.7,2.2-1.6,4.2-2.9,6.1C199.3,146.7,198.2,147.5,197.3,147.5z
	 M202.5,129.9c-0.2,0-0.8,0.3-1.8,1.7c-1.1,1.8-2,3.7-2.7,5.7l0,0c-0.7,2-1.1,4.1-1.2,6.2c0,1.9,0.4,2.4,0.5,2.4s0.8-0.1,1.8-1.7
	c1.1-1.8,2-3.7,2.7-5.7c0.7-2,1.1-4.1,1.2-6.2C203,130.5,202.6,130,202.5,129.9z"/>
<path class="st5" d="M161.5,54.6c7.7,0.1,15,3.3,20.3,8.9c6.9,7.1,10.5,15.6,10,25.5s-4.8,17.5-14.1,21.6c-6.8,3-13.7,2.4-20.3-0.8
	c-12.7-6.1-20.2-19.5-18.8-33.5c1-10.2,7.8-18.5,17.1-20.9c0.9-0.3,1.9-0.5,2.9-0.6C159.7,54.7,160.7,54.6,161.5,54.6z M140.5,79.7
	c-0.1,2.3,0.2,4.7,0.8,6.9c2.9,10.9,9.2,18.8,20,22.6s21.4-0.8,26.2-10.8c2.6-5.3,3.2-11.4,1.7-17.2c-2.7-11.4-9.2-19.7-20.5-23.5
	c-7.9-2.7-15.3-1.3-21.4,4.6C142.4,67.1,140.5,73.1,140.5,79.7z"/>
<path d="M175.5,98.9c-6.1-5.7-12.1-11.5-18.2-17.2l-4.1-3.9c0-0.1,0-0.1-0.1-0.1l0,0c-0.4-0.3-1-0.3-1.3,0.1l-0.1,0.1
	c-0.3,0.4-0.2,1.1,0.2,1.4l0,0l0.5,0.5l16.9,16l5.4,5.1c0.3,0.4,0.9,0.5,1.4,0.3c0.4-0.2,0.6-0.6,0.5-1
	C176.5,99.7,175.9,99.4,175.5,98.9z"/>
<path d="M179.6,85.6l-17.6-17c-0.5-0.5-1.1-0.9-1.8-0.2s-0.2,1.2,0.4,1.7l11.3,10.8c2.2,2.1,4.3,4.2,6.5,6.2
	c0.3,0.4,0.9,0.6,1.4,0.4c0.4-0.1,0.6-0.5,0.6-0.9C180.3,86.2,179.9,85.9,179.6,85.6z"/>
<path d="M168.1,85.9l3.6,3.5c0.3,0.4,0.8,0.5,1.3,0.3c0.4-0.1,0.6-0.5,0.5-0.9c0-0.4-0.2-0.8-0.6-1l-8.5-8.2
	c-0.5-0.5-1.1-0.9-1.7-0.3s-0.2,1.2,0.4,1.7L168.1,85.9z"/>
<path class="st9" d="M100.9,0.1c1.7,0.6,3.2,1.8,4.1,3.4c4.7,7.7,10,15,15.8,21.9c8.1,9.2,17,17.6,26.6,25.2
	c0.4,0.4,0.9,0.4,1.4,0.2c10.8-4.8,21-3.1,30.7,3.1c3.7,2.3,6.9,5.3,9.5,8.8c1.5,2,2.8,4.3,4.3,6.4c1.4,2.2,3.2,4.1,5.2,5.8
	c3.2,2.6,5.3,2.1,6.9-1.7c0.7-1.8,1-3.7,1.9-5.5c0.4-1.1,0.9-2.1,1.5-3c1.4-1.9,3.9-2.7,6.2-2c1.6,0.4,2.7,1.8,2.8,3.5
	c0.2,0.8,0.2,1.5,0,2.3c-1.1,3-0.3,6-0.1,9c0.3,6.9,0.1,13.9-0.7,20.8c-0.2,4.1-0.9,8.1-2,12c-0.3,1.1-0.5,2.3-0.4,3.5
	c0.2,3-0.5,5.7-3.3,7.3c-0.5,0.3-0.4,0.6-0.4,1c0.1,9.6-1.8,19-5.6,27.8c-0.3,0.7-0.1,0.9,0.5,1.1c3,1.5,5.7,3.6,7.8,6.2
	c4.2,5.3,4.6,11.2,2.7,17.4s-5.3,11.2-9.1,16.1c-2.1,2.6-4.3,5.1-6.6,7.6c-2,2.3-5.5,2.5-7.8,0.5c-0.3-0.3-0.6-0.6-0.9-1
	c-0.4-0.9-1.4-1.3-2.3-0.9c0,0-0.1,0-0.1,0.1h-0.1c-1.4,0.5-2.9,0.4-4.2-0.2c-0.4-0.2-1-0.1-1.3,0.3c-6.5,7-14.6,10.7-23.9,11.9
	c-13.2,1.8-26.7,0-39-5.3c-5.4-2.3-10.3-5.5-14.6-9.5c-9.6-9-21.4-15.5-34.1-18.9c-3.4-0.9-7-1.5-10.5-1.7c-2.9-0.1-5.2-2.5-5.1-5.5
	c0,0,0,0,0,0c0-1.1,0.4-2.2,1.1-3.1c3.3-4.4,8.1-7.5,13.5-8.7c2.7-0.6,5.5-1,8.3-1c-0.6-0.8-1.2-1.5-2-2.1
	c-9.5-8.8-20.8-14.5-33.1-18.3c-6.6-2-13.4-3.4-20.2-4.3c-3.1-0.4-5.3-3.2-4.9-6.3c0.3-2,1.5-3.7,3.4-4.5c7.5-3.3,15.3-5.6,23.3-7
	c1.5-0.2,3-0.4,4.5-0.4c-0.9-1.2-1.4-2.5-2.6-3.4c-8.8-6-15.4-13.9-21-22.9C20,75,15,62.9,10.9,50.5C6.6,38,3.3,25.2,1,12.2
	c-0.1-0.4,0-1-0.4-1.3V9.5C1,9.4,0.9,9.1,0.9,8.8c0.8-3.2,4-5.2,7.2-4.4c1,0.2,1.8,0.7,2.6,1.3c0.4,0.4,0.9,0.7,1.3,1.1
	c9.3,7.5,19.6,13.5,30.3,18.9c18.5,9.2,37.5,17,57.1,23.6c0.2,0.1,0.4,0.3,0.7,0c-0.2-0.4-0.3-0.8-0.5-1.2c-6-13.1-8.3-26.7-5.4-41
	C94.6,5.3,94.8,3.5,96,2c0.8-0.7,1.6-1.3,2.5-1.8L100.9,0.1L100.9,0.1z M209.8,72.9c-0.7,1.7-1.5,3.3-2.5,4.9
	c-0.2,0.3-0.3,0.7-0.3,1.1c-0.3,3.3-0.6,6.6-0.8,9.9c-0.6,7.6-0.7,15.2-0.5,22.8c0,2.1,0.4,4.2,1.2,6.1c0.1,0.2,0.1,0.6,0.5,0.6
	c1.2-0.1,2.3-0.9,2.7-2c0.1-0.3,0.4-0.6-0.3-0.6c-0.9-0.2-1.6-0.9-1.8-1.7c-0.4-1.3-0.7-2.6-0.7-4c-0.8-12.3,0-24.7,2.5-36.8
	c0.3-1.5,0.8-2.9,1.5-4.2c0.3-0.7,0.9-1.2,1.7-1.4c0.4-0.1,0.7-0.1,0.6-0.6s-0.6-0.4-0.9-0.3c-0.7,0.2-1.2,0.7-1.4,1.4
	C210.7,69.5,210.4,71.3,209.8,72.9L209.8,72.9z M135,145.1v15.1c-0.1,1.1,0.7,2.1,1.8,2.3c0.3,0,0.7,0,1-0.1
	c3.2-0.7,5.4,0.1,7.3,2.7s4,5.6,5.9,8.4c0.7,1.3,2.3,1.9,3.7,1.4c2.9-0.8,5.9,0.4,7.4,3c1.4,2,2.7,4,4.1,5.9
	c0.6,1.2,2.1,1.7,3.3,1.2l2.7-0.6c2.8-0.8,5.8,0.3,7.6,2.6c1,1.2,1.9,2.5,2.9,3.7c1.1,1.5,2.9,1.9,4.5,2.6c0.4,0.1,0.8,0.1,1.1-0.1
	c3-1,4.9-0.4,6.7,2.1c0.9,1.2,1.7,1.3,2.8,0.2c2-2,3.8-4.1,5.6-6.3c3.9-4.8,7.4-9.8,9.2-15.7c1.6-5.1,1.3-10-2.4-14.3
	c-2.8-3.3-6.6-5.1-10.5-6.7c-3.6-1.3-7.4-2.2-11.2-2.4c-0.7-0.1-1.1-0.4-1.1-1.1s0.5-0.9,1.2-0.9c0.3,0,0.5,0,0.8,0.1
	c3.2,0.4,6.5,1.1,9.6,2c1.6,0.5,1.7,0.5,2.3-1c3.9-8.7,5.8-18.2,5.6-27.7c0-0.4,0.1-0.8-0.3-1.1c-1-1-1.7-2.4-1.9-3.8
	c-1.1-4.5-0.9-9.1-0.9-13.7c0.1-1.9-0.2-3.8-0.9-5.6c-0.7-1.6-1.5-1.8-2.9-1c-0.7,0.4-1.3,0.9-1.9,1.5c-2.6,2.5-4.3,5.5-6.3,8.4
	c-6.2,8.8-14.7,12.6-25.4,11.6c-7.3-0.7-13.5-3.8-19-8.6c-0.5-0.4-1.1-0.6-1.7-0.4c-8.5,1.7-17,3.2-25.6,4.4
	c-10.2,1.4-20.4,2.6-30.6,3.2c-10.8,0.6-21.6,0.8-32.3-0.5c-0.7-0.2-1.5,0-2,0.5c-0.3,0.3-0.8,0.4-1.2,0.4
	c-4.5-0.6-8.9,0.3-13.3,1.3c-5.5,1.4-10.9,3.2-16.2,5.4c-0.9,0.2-1.4,1-1.3,1.9c0.1,1,0.9,1.3,1.8,1.5l2,0.3
	c12.3,1.6,24.2,5.2,35.3,10.8c7.6,3.8,14.5,8.9,20.5,14.9c1.3,1.1,1.7,2.8,1.1,4.4c-0.6,1.5-2.2,2.5-3.8,2.3c-2.1,0-4.2,0.1-6.3,0.5
	c-5.1,0.9-9.5,3.1-12.7,7.3c-1,1.3-0.6,2.2,1,2.3c2.4,0.3,4.8,0.6,7.1,1c14.3,2.9,27.5,9.7,38.3,19.5c7.8,7.2,17.5,12.1,27.9,14.1
	c9.1,1.7,18.1,2.4,27.2,0.4c7.2-1.4,13.8-5.1,18.7-10.6c0.4-0.3,0.5-1,0.2-1.4c0-0.1-0.1-0.1-0.2-0.2c-1.1-1.4-2.2-2.8-3.3-4.1
	c-0.8-1-1.9-1.7-3.2-1.9c-1.7-0.4-3.2,0.3-4.8,0.7c-2.6,0.6-4.2,0-5.7-2.2c-1.4-2-2.7-4-4.1-6c-1-1.7-3.1-2.5-5-2
	c-2.3,0.7-4.9-0.3-6.1-2.4c-1.8-2.6-3.7-5.1-5.4-7.8c-1.4-2.2-3.2-3.1-5.9-2.4c-2,0.6-4.1-0.5-4.7-2.5c0,0,0,0,0-0.1
	c-0.1-0.4-0.2-0.9-0.1-1.3c0-5-0.2-10,0.1-15c0.1-1.9-0.8-2.1-1.9-2.7l-0.4-0.2c-1.5-0.7-3.1-1.1-4.8-1.2c-0.5,0.1-1-0.3-1.1-0.9
	c0,0,0-0.1,0-0.1c0-0.7,0.5-1,1.2-1c0.4,0,0.9,0.1,1.3,0.1c4.8,0.8,9.1,3.3,12.1,7.1c0.5,0.5,0.8,1.1,0.1,1.7s-1.2,0.2-1.7-0.4
	C137.1,146.8,136.1,145.9,135,145.1z M7.9,8.6C7.7,9,7.9,9.2,8,9.5c4.3,9,9.7,17.5,16,25.2c11.4,13.8,24.9,25.8,40,35.4
	c10.8,7,22.2,12.9,34.2,17.6c0.6,0.3,1.4,0.3,2-0.1c1.8-0.9,3.6-1.7,5.4-2.6c9.4-4.7,18.7-9.7,27.2-15.9c1.7-1.1,3.1-2.7,3.8-4.6
	c0.2-0.7,0.4-1-0.5-1.1c-9.7-1.9-19.2-4.5-28.5-7.8c-2.4-0.9-5-0.8-7.4-1.6C79.5,46.7,59,38.9,39.3,28.8
	c-10.2-5.1-19.9-11.1-28.9-18L7.9,8.6z M5.5,8.8C4.8,9.5,4.6,10.5,5,11.3c1.8,10,4.1,19.9,6.9,29.6C16,54.8,21,68.3,28.2,80.8
	c4.7,8.1,10.1,15.5,17.3,21.6c1.8,1.5,3.8,2.7,5.5,4.2c0.8,0.8,2,0.9,2.9,0.4c12.4-4.7,24.7-9.6,36.8-15c2-0.9,3.9-1.8,6-2.7
	C82,83.5,68,75.8,55.2,66.5C40.6,56,27.7,43.8,17.3,29.1C12.7,22.7,8.8,15.9,5.5,8.8z M134.2,70.5c-0.2,0-0.3,0.1-0.4,0.2
	c-8,5.7-16.5,10.7-25.3,15c-17.5,8.6-35.4,16.3-53.7,23c-1.8,0.7-1.8,0.7-0.8,2.3c1.9,3,1.9,2.9,5.4,3.3c7.5,0.7,15.1,0.9,22.6,0.6
	c8.2-0.3,16.3-1,24.4-1.9c9.8-1.1,19.5-2.5,29.1-4.2c3-0.5,6-1.1,9-1.7C135.4,96.4,131.5,84.4,134.2,70.5z M98.9,5.1
	c-1.3,4.2-2,8.7-2,13.1c-0.2,11.2,2.8,21.6,8,31.5c0.5,0.8,0.9,1.6,1.2,2.5c0,0.5,0.5,1,1,1c7.2,2.5,14.6,4.7,22.1,6.4l8.2,1.8
	c1.1,0.3,1.1-0.7,1.5-1.2s-0.4-0.6-0.7-0.8c-5.2-2.8-10-6-14.5-9.8c-9.5-8-16.9-17.5-21.2-29.3C100.6,15.4,99.4,10.3,98.9,5.1z
	 M195,88.1c0-2.9-0.3-5.7-1.1-8.5c-0.5-2-0.8-4.2-2.2-5.9c-1.7-2-3.2-4.2-4.6-6.4c-2.9-4.7-7-8.5-11.8-11.2
	c-8.6-4.8-17.5-5.7-26.5-0.8c-0.4,0.3-1,0.4-1.5,0.3c-0.5-0.1-1,0-1.4,0.4c-3.4,2.5-6,5.9-7.8,9.7c-3.1,6.6-3.8,14.1-2,21.2
	c3,12.5,10.2,21.9,22.2,26.9c9.9,4.1,19.5,3.2,27.7-4.2C192.5,104,194.8,96.5,195,88.1L195,88.1z M101.3,5.3
	c-0.2,0.3-0.2,0.6-0.1,0.9c0.5,4.8,1.6,9.5,3.4,14c6.8,17.3,19.3,29.3,35.3,38c0.5,0.3,0.8,0.1,1.1-0.3c1.1-1.3,2.3-2.4,3.7-3.4
	c0.5-0.4,0.5-0.6,0-1l-3-2.4c-14.6-12-27.4-25.5-37.5-41.5C103.2,8.2,102.2,6.8,101.3,5.3z M210.3,113.3c0.3-0.7-0.2-1.2-0.1-1.7
	s0.5-1.1,0.6-1.7c0.3-0.8,0.5-1.7,0.7-2.5c2-10.7,2.6-21.6,1.9-32.5c0.1-1.2-0.2-2.3-0.7-3.4C209.5,79.5,208,107.9,210.3,113.3z
	 M204,95.2c0.2-5.1,0.5-10.2,0.9-15.4c-1.5,0.8-3.3,0.9-4.9,0.4c-1.6-0.6-3-1.3-4.4-2.3c0.8,3.1,1.3,6.3,1.4,9.5
	c0.1,3.2-0.3,6.5-1.1,9.6C199.3,93.9,201.2,93,204,95.2z"/>
<path class="st10" d="M131.7,94.6c0,1.5-0.4,3-1.2,4.3c-1.7,3-5.5,4-8.5,2.3c-0.3-0.2-0.6-0.4-0.9-0.7c-3.5-3-4.4-8-2.2-12
	c1.7-3,5.5-4.1,8.5-2.4c0.7,0.4,1.3,0.9,1.8,1.5C130.8,89.6,131.7,92.1,131.7,94.6z M123.2,92c-0.1,2.7,1.3,5.2,3.6,6.6
	c0.5,0.4,1.2,0.3,1.6-0.1c0.1-0.1,0.1-0.2,0.2-0.3c1.5-2.3,1.5-5.3,0.1-7.6c-0.7-1.3-1.7-2.7-3.3-2.7
	C124.3,87.7,123.2,90.1,123.2,92L123.2,92z M122.9,87.7c-2.8,1.2-4,4.7-2.8,8.1c1,3,3.9,5,5.9,4C121.8,97.3,120.5,92,122.9,87.7z"/>
<path class="st5" d="M109.8,101c0,1.3-0.3,2.6-1,3.8c-1.1,2.1-3.8,2.9-5.9,1.7c0,0,0,0,0,0c-0.3-0.2-0.6-0.4-0.9-0.7
	c-2.5-2.4-3.3-6-1.9-9.2c1-2.3,3.6-3.4,5.9-2.5c0.8,0.3,1.5,0.8,2,1.5C109.1,97.2,109.7,99.1,109.8,101z M103.5,96
	c-0.6,0.1-1,0.4-1.3,0.9c-1.7,2.2-0.8,6.4,1.5,7.8c0.6,0.5,1.4,0.5,2.1,0.2c-1.1-0.9-1.9-2.1-2.4-3.4c-0.4-1.8-0.3-3.6,0.3-5.3v-0.3
	L103.5,96z M107.8,101.1c0.1-1.7-0.6-3.3-1.8-4.5c-0.2-0.2-0.5-0.7-0.7,0.1c-0.7,1.6-0.7,3.4,0,5c0.4,0.9,1.1,2.1,1.9,1.9
	S107.7,102,107.8,101.1z"/>
<path class="st10" d="M93.8,105.3c0,2.8-1.4,4.9-3.5,5.3s-4.3-1.1-5.3-3.8c-0.7-1.7-0.6-3.6,0.1-5.3c0.8-2.1,3.1-3.1,5.2-2.3
	c0,0,0,0,0,0c0.6,0.2,1.1,0.6,1.5,1.1C93.1,101.7,93.8,103.5,93.8,105.3z M91.2,107.4c0.9-1.9,0.6-4.1-0.8-5.7
	c-0.5-0.5-0.7-0.5-0.9,0.2C88.8,103.9,89.4,106.2,91.2,107.4z M90,108.5c-1.1-0.9-1.8-2.1-2.1-3.5c-0.2-1.3-0.1-2.7,0.2-4
	c-1.6,1-2.2,3.1-1.4,4.8C87.3,107.7,88.4,108.6,90,108.5L90,108.5z"/>
<path class="st10" d="M76.9,109.5c0.1,0.6,0,1.2-0.3,1.8c-0.5,1.8-2.4,2.8-4.2,2.3c-0.7-0.2-1.4-0.7-1.8-1.3c-1.2-1.4-1.5-3.3-1-5.1
	c0.3-1.4,1.4-2.4,2.8-2.6c1.4-0.2,2.7,0.4,3.4,1.6C76.6,107.1,77,108.3,76.9,109.5z M72.9,111.3v0.2H73L72.9,111.3
	c-0.4-1.5-0.6-3-0.5-4.6c-1.1,1.1-1.2,2.9-0.2,4.1C72.4,111,72.7,111.2,72.9,111.3L72.9,111.3z M73.5,106.6
	c-0.4,1.6-0.1,3.3,0.7,4.7c1.1-1.3,1-3.3-0.3-4.4C73.7,106.9,73.6,106.8,73.5,106.6z"/>
</svg>
